SplineFontDB: 3.2
FontName: NewCM10-Regular
FullName: NewComputerModern10-Regular
FamilyName: NewComputerModern10
Weight: Regular
Copyright: (C) 2019-2021 Antonis Tsolomitis. This work is released under the GUST Font License --  see http://tug.org/fonts/licenses/GUST-FONT-LICENSE.txt for details.
Version: 3.9
ItalicAngle: 0
UnderlinePosition: -146
UnderlineWidth: 40
Ascent: 806
Descent: 194
InvalidEm: 0
sfntRevision: 0x00010041
LayerCount: 2
Layer: 0 0 "Back" 1
Layer: 1 0 "Fore" 0
XUID: [1021 12 -395342500 4608103]
StyleMap: 0x0040
FSType: 8
OS2Version: 3
OS2_WeightWidthSlopeOnly: 0
OS2_UseTypoMetrics: 0
CreationTime: 1254995892
ModificationTime: 1633857279
PfmFamily: 81
TTFWeight: 400
TTFWidth: 5
LineGap: 0
VLineGap: 0
Panose: 0 0 5 0 0 0 0 0 0 0
OS2TypoAscent: 806
OS2TypoAOffset: 0
OS2TypoDescent: -194
OS2TypoDOffset: 0
OS2TypoLinegap: 200
OS2WinAscent: 1127
OS2WinAOffset: 0
OS2WinDescent: 290
OS2WinDOffset: 0
HheadAscent: 1127
HheadAOffset: 0
HheadDescent: -290
HheadDOffset: 0
OS2SubXSize: 650
OS2SubYSize: 600
OS2SubXOff: 0
OS2SubYOff: 75
OS2SupXSize: 650
OS2SupYSize: 600
OS2SupXOff: 0
OS2SupYOff: 350
OS2StrikeYSize: 40
OS2StrikeYPos: 258
OS2CapHeight: 683
OS2XHeight: 431
OS2Vendor: 'UKWN'
OS2CodePages: 20000193.00000000
OS2UnicodeRanges: 20000007.00000000.00000000.00000000
Lookup: 1 0 0 "'ss05' Style Set 5 lookup 23 IPA alts" { "'ss05' Style Set 5 lookup 23 IPA alts-1"  } ['ss05' ('DFLT' <'dflt' > 'cher' <'dflt' > 'cyrl' <'MKD ' 'SRB ' 'dflt' > 'grek' <'dflt' > 'hebr' <'dflt' > 'latn' <'AZE ' 'CRT ' 'DEU ' 'MOL ' 'NLD ' 'PLK ' 'ROM ' 'TRK ' 'dflt' > 'math' <'dflt' > 'thai' <'dflt' > 'yi  ' <'dflt' > ) ]
Lookup: 1 0 0 "'aalt' Access All Alternates lookup 1" { "'aalt' Access All Alternates lookup 1 subtable"  } ['aalt' ('DFLT' <'dflt' > 'cyrl' <'dflt' > 'latn' <'AZE ' 'CRT ' 'MOL ' 'NLD ' 'PLK ' 'ROM ' 'TRK ' 'dflt' > ) ]

StartChar: .notdef
Encoding: 1114112 -1 0
Width: 500
Flags: MW
HStem: 0 50<100 400 100 450> 487 50<100 400 100 100>
VStem: 50 50<50 50 50 487> 400 50<50 487 487 487>
LayerCount: 2
Fore
SplineSet
50 0 m 1
 50 537 l 1
 450 537 l 1
 450 0 l 1
 50 0 l 1
100 50 m 1
 400 50 l 1
 400 487 l 1
 100 487 l 1
 100 50 l 1
EndSplineSet
EndChar

StartChar: exclam
Encoding: 33 33 2
Width: 278
GlyphClass: 2
Flags: MW
HStem: 0 106<124.5 153.5>
LayerCount: 2
Fore
SplineSet
192 665 m 2
 153 209 l 2
 152 192 149 187 139 187 c 0
 127 187 126 195 125 210 c 2
 86 665 l 2
 86 698 113 716 139 716 c 0
 165 716 192 698 192 665 c 2
192 53 m 0
 192 24 168 0 139 0 c 0
 110 0 86 24 86 53 c 0
 86 82 110 106 139 106 c 0
 168 106 192 82 192 53 c 0
EndSplineSet
EndChar

StartChar: quotedbl
Encoding: 34 34 3
Width: 374
GlyphClass: 2
Flags: MW
HStem: 423 21G<126 152 126 126 222 222 222 248> 685 20G<129.539 149 225 245>
LayerCount: 2
Fore
SplineSet
174 670 m 2
 152 423 l 1
 126 423 l 1
 104 670 l 2
 103.892578125 671.077148438 103.83984375 672.139648438 103.83984375 673.186523438 c 0
 103.83984375 691.572265625 120.077148438 705 139 705 c 0
 159 705 176 690 174 670 c 2
270 670 m 2
 248 423 l 1
 222 423 l 1
 200 670 l 2
 198 690 215 705 235 705 c 0
 255 705 272 690 270 670 c 2
EndSplineSet
EndChar

StartChar: numbersign
Encoding: 35 35 4
Width: 833
GlyphClass: 2
Flags: MW
HStem: -194 21G<181.5 195 410.5 424> 133 40<82 261 90 249 302 478 90 290 531 742 742 743> 327 40<89 90 90 301 89 342 354 530 583 742> 674 20G<408 421.5 637 650.5>
VStem: 56 720<143 163 337 357>
LayerCount: 2
Fore
SplineSet
776 153 m 0
 776 133 757 133 743 133 c 2
 519 133 l 1
 438 -170 l 2
 435 -181 432 -194 416 -194 c 0
 405 -194 396 -185 396 -174 c 0
 396 -170 399 -158 400 -156 c 2
 478 133 l 1
 290 133 l 1
 209 -170 l 2
 206 -181 203 -194 187 -194 c 0
 176 -194 167 -185 167 -174 c 0
 167 -170 170 -158 171 -156 c 2
 249 133 l 1
 89 133 l 2
 75 133 56 133 56 153 c 0
 56 173 75 173 90 173 c 2
 261 173 l 1
 301 327 l 1
 90 327 l 2
 75 327 56 327 56 347 c 0
 56 367 75 367 89 367 c 2
 313 367 l 1
 394 670 l 2
 397 681 400 694 416 694 c 0
 427 694 436 685 436 674 c 0
 436 670 433 658 432 656 c 2
 354 367 l 1
 542 367 l 1
 623 670 l 2
 626 681 629 694 645 694 c 0
 656 694 665 685 665 674 c 0
 665 670 662 658 661 656 c 2
 583 367 l 1
 743 367 l 2
 757 367 776 367 776 347 c 0
 776 327 757 327 742 327 c 2
 571 327 l 1
 531 173 l 1
 742 173 l 2
 757 173 776 173 776 153 c 0
530 327 m 1
 342 327 l 1
 302 173 l 1
 490 173 l 1
 530 327 l 1
EndSplineSet
EndChar

StartChar: dollar
Encoding: 36 36 5
Width: 500
GlyphClass: 2
Flags: MW
HStem: -56 21G<234 265 234 234> -10 31<265 265> 137 92<100 114.5 99 115.5> 311 92<265 265> 319 92<234 234> 479 92<386.5 398.5> 673 31<234 234> 730 20G<234 265 265 265>
VStem: 56 51<533 558.5> 234 31<-56 -11 -11 -11 21 311 411 673 705 750> 392 51<143.5 177>
CounterMasks: 1 00e0
LayerCount: 2
Fore
SplineSet
443 195 m 0x17e0
 443 92 370 -1 265 -10 c 1
 265 -56 l 1
 234 -56 l 1
 234 -11 l 1
 109 -3 56 89 56 178 c 0
 56 227 96 229 102 229 c 0
 127 229 148 211 148 183 c 0
 148 156 129 137 102 137 c 0
 98 137 90 138 86 139 c 1
 99 77 146 26 234 21 c 1
 234 319 l 1xe8e0
 183 332 149 340 111 379 c 0
 93 396 56 444 56 513 c 0
 56 604 123 694 234 704 c 1
 234 750 l 1
 265 750 l 1
 265 705 l 1
 377 699 443 626 443 529 c 0
 443 480 400 479 397 479 c 0
 376 479 351 494 351 525 c 0
 351 553 371 571 397 571 c 0
 407 571 409 570 413 569 c 1
 398 625 350 669 265 673 c 1
 265 403 l 1
 313 391 349 382 389 338 c 0
 398 329 443 278 443 195 c 0x17e0
392 165 m 0
 392 189 385 286 265 311 c 1x12e0
 265 21 l 1
 344 31 392 98 392 165 c 0
234 411 m 1
 234 673 l 1
 154 665 107 603 107 543 c 0
 107 523 111 437 234 411 c 1
EndSplineSet
Substitution2: "'onum' Oldstyle Figures lookup 5 subtable" dollar.oldstyle
Substitution2: "'aalt' Access All Alternates lookup 1 subtable" dollar.oldstyle
EndChar

StartChar: percent
Encoding: 37 37 6
Width: 833
GlyphClass: 2
Flags: MW
HStem: -56 22<637 673 637 682.5> 325 22<636.5 673.5> 347 22<194 230 194 239.5> 619 22<445 498.5 427 501> 728 22<193.5 219 165 230.5>
VStem: 56 62<488.5 607.5> 179 25 308 25<495 555 492 601.5> 499 62<85.5 204.5> 751 25<92 198.5>
LayerCount: 2
Fore
SplineSet
693 730 m 0xbfc0
 693 724 691 721 685 712 c 2
 179 -41 l 2
 171 -52 169 -56 159 -56 c 0
 149 -56 139 -47 139 -36 c 1
 139 -36 139 -29 148 -16 c 2
 597 653 l 1
 596 654 l 1
 590 650 539 619 463 619 c 0
 427 619 377 624 312 661 c 1
 333 609 333 562 333 548 c 0
 333 436 276 347 203 347 c 0
 128 347 56 428 56 549 c 0
 56 666 127 750 203 750 c 0
 235 750 256 735 275 718 c 0
 330 666 392 641 462 641 c 0
 535 641 602 668 652 736 c 0
 658 743 663 750 673 750 c 0
 684 750 693 741 693 730 c 0xbfc0
776 145 m 0
 776 33 719 -56 646 -56 c 0
 571 -56 499 25 499 146 c 0
 499 263 570 347 646 347 c 0
 717 347 776 260 776 145 c 0
308 549 m 0
 308 654 257 728 204 728 c 0
 183 728 118 715 118 548 c 0
 118 382 184 369 204 369 c 0
 256 369 308 441 308 549 c 0
751 146 m 0
 751 251 700 325 647 325 c 0x4040
 626 325 561 312 561 145 c 0
 561 -21 627 -34 647 -34 c 0
 699 -34 751 38 751 146 c 0
EndSplineSet
EndChar

StartChar: ampersand
Encoding: 38 38 7
Width: 778
GlyphClass: 2
Flags: MW
HStem: -22 31<189.5 245 189.5 265.5 557 606.5> 298 31 400 31<508 531> 409 22 694 22<283.5 331>
VStem: 42 83<133 155> 163 63<562.5 608> 231 25 361 25<555 588> 696 25<121 121>
LayerCount: 2
Fore
SplineSet
727 400 m 1xeec0
 638 399 617 364 578 298 c 0
 532 219 492 151 446 98 c 1
 478 60 530 9 584 9 c 0
 629 9 693 42 696 121 c 1
 721 121 l 1
 719 35 656 -22 580 -22 c 0
 532 -22 473 -6 404 54 c 1
 367 21 308 -22 223 -22 c 0
 124 -22 42 41 42 128 c 0
 42 182 68 209 113 255 c 2
 204 352 l 1
 169 441 163 513 163 555 c 0
 163 661 237 716 299 716 c 0
 370 716 386 633 386 587 c 0
 386 521 318 445 264 385 c 1
 308 270 417 133 430 118 c 1
 473 171 518 239 573 336 c 0
 574 339 579 346 579 356 c 0
 579 381 554 400 508 400 c 1
 508 431 l 1
 535 429 619 428 630 428 c 2
 727 431 l 1
 727 400 l 1xeec0
361 588 m 1
 361 588 361 694 301 694 c 0
 266 694 226 662 226 578 c 0
 226 547 229 489 256 409 c 1xdf80
 280 435 361 522 361 588 c 1
385 73 m 1
 348 110 312 162 293 190 c 0
 250 252 235 282 213 329 c 1
 159 277 125 241 125 160 c 0
 125 106 148 9 231 9 c 0
 259 9 321 16 385 73 c 1
EndSplineSet
Substitution2: "'lnum' Lining Figures lookup 6 subtable" ampersand
Substitution2: "'onum' Oldstyle Figures lookup 5 subtable" ampersand
Substitution2: "'aalt' Access All Alternates lookup 1 subtable" ampersand
EndChar

StartChar: quotesingle
Encoding: 39 39 8
Width: 278
GlyphClass: 2
Flags: MW
HStem: 423 21G<126 152 126 126> 685 20G<129 149>
VStem: 126 26<423 423>
LayerCount: 2
Fore
SplineSet
174 670 m 2
 152 423 l 1
 126 423 l 1
 104 670 l 2
 102 690 119 705 139 705 c 0
 159 705 176 690 174 670 c 2
EndSplineSet
EndChar

StartChar: parenleft
Encoding: 40 40 9
Width: 389
GlyphClass: 2
Flags: MW
HStem: -250 21G<316 324> 730 20G<316 324>
VStem: 99 58<211 292>
LayerCount: 2
Fore
SplineSet
331 -240 m 0
 331 -247 327 -250 321 -250 c 0
 311 -250 225 -185 165 -62 c 0
 110 51 99 172 99 250 c 0
 99 334 111 445 162 555 c 0
 221 682 311 750 321 750 c 0
 327 750 331 747 331 740 c 0
 331 737 331 735 318 723 c 0
 195 598 157 424 157 250 c 0
 157 97 189 -92 314 -218 c 0
 331 -235 331 -237 331 -240 c 0
EndSplineSet
EndChar

StartChar: parenright
Encoding: 41 41 10
Width: 389
GlyphClass: 2
Flags: MW
HStem: -250 21G<64 72> 730 20G<64 72>
VStem: 231 58<208 289 208 354.5>
LayerCount: 2
Fore
SplineSet
289 250 m 0
 289 166 277 55 226 -55 c 0
 167 -182 77 -250 67 -250 c 0
 61 -250 57 -246 57 -240 c 0
 57 -237 57 -235 70 -223 c 0
 194 -97 231 79 231 250 c 0
 231 459 174 618 76 717 c 0
 57 735 57 737 57 740 c 0
 57 746 61 750 67 750 c 0
 77 750 163 685 223 562 c 0
 278 449 289 328 289 250 c 0
EndSplineSet
EndChar

StartChar: asterisk
Encoding: 42 42 11
Width: 500
GlyphClass: 2
Flags: MW
HStem: 319 21G<242.5 257> 730 20G<242 256.5>
VStem: 65 369<441 446.5 434.5 447 622.5 634.5>
LayerCount: 2
Fore
SplineSet
434 441 m 0
 434 428 423 413 407 413 c 0
 399 413 396 416 391 419 c 2
 261 514 l 1
 276 344 l 2
 276 331 265 319 249 319 c 0
 236 319 223 329 223 344 c 2
 238 514 l 1
 98 413 l 1
 65 413 65 441 65 441 c 1
 65 453 69 460 88 469 c 2
 227 535 l 1
 86 601 l 2
 69 609 65 617 65 628 c 0
 65 641 76 656 92 656 c 0
 98 656 100 656 114 645 c 2
 238 555 l 1
 223 725 l 2
 223 738 234 750 250 750 c 0
 263 750 276 740 276 725 c 2
 261 555 l 1
 372 637 l 2
 398 656 400 656 407 656 c 0
 423 656 434 641 434 628 c 0
 434 616 430 609 411 600 c 2
 272 534 l 1
 413 468 l 2
 430 460 434 452 434 441 c 0
EndSplineSet
EndChar

StartChar: plus
Encoding: 43 43 12
Width: 778
GlyphClass: 2
Flags: MW
HStem: -83 21G<379 399> 230 40<82 369 89 369 409 688> 563 20G<379 399>
VStem: 369 40<-50 230 270 550>
LayerCount: 2
Fore
SplineSet
721 250 m 0
 721 230 702 230 688 230 c 2
 409 230 l 1
 409 -50 l 2
 409 -64 409 -83 389 -83 c 0
 369 -83 369 -64 369 -50 c 2
 369 230 l 1
 89 230 l 2
 75 230 56 230 56 250 c 0
 56 270 75 270 89 270 c 2
 369 270 l 1
 369 550 l 2
 369 564 369 583 389 583 c 0
 409 583 409 564 409 550 c 2
 409 270 l 1
 688 270 l 2
 702 270 721 270 721 250 c 0
EndSplineSet
EndChar

StartChar: comma
Encoding: 44 44 13
Width: 278
GlyphClass: 2
Flags: MW
HStem: -193 21G<109.5 118> 0 106<121.5 146.5>
VStem: 181 22
LayerCount: 2
Fore
SplineSet
203 1 m 0
 203 -114 124 -193 112 -193 c 0
 107 -193 102 -189 102 -182 c 0
 102 -178 103 -177 109 -171 c 0
 153 -124 181 -63 179 16 c 1
 168 6 154 0 139 0 c 0
 103 0 86 27 86 53 c 0
 86 79 104 106 139 106 c 0
 179 106 203 65 203 1 c 0
EndSplineSet
EndChar

StartChar: hyphen
Encoding: 45 45 14
Width: 333
GlyphClass: 2
Flags: MW
HStem: 187 58<11 276 11 276>
VStem: 11 265<187 245 187 245>
LayerCount: 2
Fore
SplineSet
276 187 m 1
 11 187 l 1
 11 245 l 1
 276 245 l 1
 276 187 l 1
EndSplineSet
EndChar

StartChar: period
Encoding: 46 46 15
Width: 278
GlyphClass: 2
Flags: MW
HStem: 0 106<124.5 153.5>
VStem: 86 106<38.5 67.5>
LayerCount: 2
Fore
SplineSet
192 53 m 0
 192 24 168 0 139 0 c 0
 110 0 86 24 86 53 c 0
 86 82 110 106 139 106 c 0
 168 106 192 82 192 53 c 0
EndSplineSet
EndChar

StartChar: slash
Encoding: 47 47 16
Width: 500
GlyphClass: 2
Flags: MW
HStem: -250 21G<70.5 83> 730 20G<402 428.5 416 443>
VStem: 56 387
LayerCount: 2
Fore
SplineSet
443 730 m 2
 443 730 443 725 438 712 c 2
 97 -230 l 2
 94 -240 90 -250 76 -250 c 0
 65 -250 56 -241 56 -230 c 2
 56 -230 56 -225 61 -212 c 2
 402 730 l 2
 405 740 409 750 423 750 c 0
 434 750 443 741 443 730 c 2
EndSplineSet
EndChar

StartChar: zero
Encoding: 48 48 17
Width: 500
GlyphClass: 2
Flags: MW
HStem: -22 22<229.5 271.5 229.5 276> 644 22<236.5 265.5>
VStem: 39 83<302.5 360> 377 83<294.5 360 280.5 363.5>
LayerCount: 2
Fore
SplineSet
460 320 m 0
 460 241 455 163 423 94 c 0
 379 -1 303 -22 249 -22 c 0
 200 -22 127 -2 84 79 c 0
 43 155 39 245 39 320 c 0
 39 400 44 478 76 547 c 0
 117 640 190 666 250 666 c 0
 292 666 374 650 420 554 c 0
 455 480 460 400 460 320 c 0
377 332 m 0
 377 395 377 471 367 527 c 0
 348 626 282 644 249 644 c 0
 224 644 149 635 130 516 c 0
 122 462 122 396 122 332 c 0
 122 273 122 181 133 121 c 0
 151 25 210 0 249 0 c 0
 294 0 351 30 366 125 c 0
 377 189 377 257 377 332 c 0
EndSplineSet
Substitution2: "'zero' Slashed Zero lookup 11 subtable" zero.slash
Substitution2: "'pnum' Proportional Numbers lookup 7 subtable" zero.prop
Substitution2: "'onum' Oldstyle Figures lookup 5 subtable" zero.oldstyle
AlternateSubs2: "'aalt' Access All Alternates lookup 2 subtable" zero.oldstyle zero.prop zero.slash
EndChar

StartChar: one
Encoding: 49 49 18
Width: 500
GlyphClass: 2
Flags: MW
HStem: 0 31<95 127> 571 31<89 99> 646 20G<271 282.5>
VStem: 220 74<79 597 597 597>
LayerCount: 2
Fore
SplineSet
419 0 m 1
 384 3 297 3 257 3 c 0
 217 3 130 3 95 0 c 1
 95 31 l 1
 127 31 l 2
 217 31 220 43 220 79 c 2
 220 597 l 1
 168 571 109 571 89 571 c 1
 89 602 l 1
 121 602 209 602 271 666 c 1
 294 666 294 664 294 640 c 2
 294 79 l 2
 294 42 297 31 387 31 c 2
 419 31 l 1
 419 0 l 1
EndSplineSet
Substitution2: "'pnum' Proportional Numbers lookup 7 subtable" one.prop
Substitution2: "'onum' Oldstyle Figures lookup 5 subtable" one.oldstyle
AlternateSubs2: "'aalt' Access All Alternates lookup 2 subtable" one.oldstyle one.prop
EndChar

StartChar: two
Encoding: 50 50 19
Width: 500
GlyphClass: 2
Flags: MW
HStem: 0 77<127 307 307 318 127 421> 174 77 429 105<101.5 111.5> 635 31<195 269.5>
VStem: 50 105<461.5 495 461.5 529.5> 253 105 358 91<432 513>
LayerCount: 2
Fore
SplineSet
449 174 m 1xfa
 421 0 l 1
 50 0 l 1
 50 24 50 26 61 37 c 2
 253 251 l 2xcc
 308 313 358 392 358 472 c 0
 358 554 315 635 224 635 c 0
 166 635 112 598 89 533 c 1
 92 534 94 534 102 534 c 0
 137 534 155 508 155 482 c 0
 155 441 120 429 103 429 c 0
 100 429 50 429 50 485 c 0
 50 574 124 666 237 666 c 0
 359 666 449 586 449 472 c 0
 449 372 389 318 233 180 c 1
 127 77 l 1
 307 77 l 2
 329 77 395 77 402 85 c 0
 412 100 419 144 424 174 c 1
 449 174 l 1xfa
EndSplineSet
Substitution2: "'pnum' Proportional Numbers lookup 7 subtable" two.prop
Substitution2: "'onum' Oldstyle Figures lookup 5 subtable" two.oldstyle
AlternateSubs2: "'aalt' Access All Alternates lookup 2 subtable" two.oldstyle two.prop
EndChar

StartChar: three
Encoding: 51 51 20
Width: 500
GlyphClass: 2
Flags: MW
HStem: -22 28<219.5 263 219.5 305> 77 116 337 23<182.5 185.5 182 191 182 235> 478 101<109 116.5 109 135.5> 641 25<224 262.5>
VStem: 154 92 246 92 338 92<523 569 488.5 574>
CounterMasks: 1 07
LayerCount: 2
Fore
SplineSet
457 171 m 0xf9
 457 69 366 -22 244 -22 c 0
 135 -22 42 44 42 135 c 0
 42 179 74 193 98 193 c 0
 127 193 154 173 154 137 c 0
 154 99 123 77 88 82 c 1
 123 23 198 6 241 6 c 0
 285 6 354 35 354 171 c 0
 354 269 317 337 235 337 c 2
 191 337 l 2
 174 337 167 337 167 348 c 0
 167 358 174 359 182 360 c 0
 189 360 213 362 221 363 c 0
 246 364 280 367 310 415 c 0
 336 459 338 517 338 529 c 0xfd
 338 619 283 641 242 641 c 0
 206 641 140 628 109 579 c 1
 124 579 171 579 171 529 c 0
 171 500 151 478 120 478 c 0
 91 478 69 497 69 530 c 0
 69 606 145 666 246 666 c 0xfa
 342 666 430 610 430 528 c 0
 430 449 372 379 290 352 c 1
 394 331 457 253 457 171 c 0xf9
EndSplineSet
Substitution2: "'pnum' Proportional Numbers lookup 7 subtable" three.prop
Substitution2: "'onum' Oldstyle Figures lookup 5 subtable" three.oldstyle
AlternateSubs2: "'aalt' Access All Alternates lookup 2 subtable" three.oldstyle three.prop
EndChar

StartChar: four
Encoding: 52 52 21
Width: 500
GlyphClass: 2
Flags: MW
HStem: 0 31<197 218> 165 31<56 294 28 28 371 471> 657 20G<350.5 363>
VStem: 300 71<196 569 569 569>
LayerCount: 2
Fore
SplineSet
471 165 m 1
 371 165 l 1
 371 78 l 2
 371 42 373 31 447 31 c 2
 468 31 l 1
 468 0 l 1
 427 3 374 3 332 3 c 0
 290 3 238 3 197 0 c 1
 197 31 l 1
 218 31 l 2
 292 31 294 42 294 78 c 2
 294 165 l 1
 28 165 l 1
 28 196 l 1
 335 665 l 2
 343 677 346 677 355 677 c 0
 371 677 371 671 371 651 c 2
 371 196 l 1
 471 196 l 1
 471 165 l 1
300 196 m 1
 300 569 l 1
 56 196 l 1
 300 196 l 1
EndSplineSet
Substitution2: "'pnum' Proportional Numbers lookup 7 subtable" four.prop
Substitution2: "'onum' Oldstyle Figures lookup 5 subtable" four.oldstyle
AlternateSubs2: "'aalt' Access All Alternates lookup 2 subtable" four.oldstyle four.prop
EndChar

StartChar: five
Encoding: 53 53 22
Width: 500
GlyphClass: 2
Flags: MW
HStem: -22 28<192.5 252 192.5 289> 116 98<93.5 115.5> 118 83 398 22<235 283> 551 83<236 278.5> 564 98 634 28 641 22 646 20G<400 403.5>
VStem: 50 99<153 177 153 184> 128 89 132 99 360 89<190.5 233>
LayerCount: 2
Fore
SplineSet
449 201 m 0x1410
 449 74 347 -22 231 -22 c 0xa018
 119 -22 50 75 50 161 c 0
 50 207 85 214 99 214 c 0
 132 214 149 189 149 165 c 0
 149 141 132 116 99 116 c 0x4040
 88 116 85 117 82 118 c 1
 99 59 156 6 229 6 c 0
 275 6 312 32 336 71 c 0
 360 113 360 173 360 208 c 0
 360 258 358 297 342 334 c 0
 334 352 309 398 257 398 c 0
 176 398 139 344 128 328 c 0
 124 322 122 319 115 319 c 0
 101 319 101 327 101 345 c 2
 101 641 l 2xb128
 101 657 101 665 111 665 c 2
 111 665 115 665 123 662 c 0x02
 170 641 216 634 256 634 c 0
 323 634 372 654 392 663 c 0x09
 397 666 400 666 400 666 c 2
 407 666 410 661 410 655 c 0
 410 642 340 551 217 551 c 0x08a0
 185 551 152 558 132 564 c 1
 132 369 l 1
 168 404 211 420 259 420 c 0
 367 420 449 320 449 201 c 0x1410
EndSplineSet
Substitution2: "'pnum' Proportional Numbers lookup 7 subtable" five.prop
Substitution2: "'onum' Oldstyle Figures lookup 5 subtable" five.oldstyle
AlternateSubs2: "'aalt' Access All Alternates lookup 2 subtable" five.oldstyle five.prop
EndChar

StartChar: six
Encoding: 54 54 23
Width: 500
GlyphClass: 2
Flags: MW
HStem: -22 28<219.5 262.5 219.5 306.5> 404 23<223 264> 510 91<387.5 394> 641 25<281.5 319>
VStem: 42 90<328 352 328 426.5> 305 90 367 90<181 229.5>
LayerCount: 2
Fore
SplineSet
457 204 m 0xfc
 457 72 362 -22 251 -22 c 0
 158 -22 42 49 42 316 c 0
 42 537 177 666 305 666 c 0
 388 666 432 618 432 558 c 0
 432 519 402 510 386 510 c 0
 364 510 340 525 340 556 c 0
 340 601 380 601 395 601 c 1
 373 635 331 641 307 641 c 0
 256 641 132 605 132 352 c 2
 132 328 l 1
 152 376 189 427 257 427 c 0
 368 427 457 331 457 204 c 0xfc
367 205 m 0
 367 254 367 305 349 342 c 0
 318 404 272 404 256 404 c 0
 166 404 134 304 134 226 c 0
 134 208 134 128 152 81 c 0
 158 66 188 6 251 6 c 0
 274 6 320 11 350 71 c 0
 367 107 367 157 367 205 c 0
EndSplineSet
Substitution2: "'pnum' Proportional Numbers lookup 7 subtable" six.prop
Substitution2: "'onum' Oldstyle Figures lookup 5 subtable" six.oldstyle
AlternateSubs2: "'aalt' Access All Alternates lookup 2 subtable" six.oldstyle six.prop
EndChar

StartChar: seven
Encoding: 55 55 24
Width: 500
GlyphClass: 2
Flags: MW
HStem: -22 21G<199 245> 567 77<197.5 485 242 411> 656 20G<89 114 114 114>
VStem: 176 92<28 33 33 84>
LayerCount: 2
Fore
SplineSet
485 644 m 1
 485 623 485 621 476 609 c 2
 341 419 l 2
 297 357 283 271 279 248 c 0
 271 194 268 139 268 84 c 2
 268 33 l 2
 268 23 268 -22 222 -22 c 0
 176 -22 176 23 176 33 c 0
 176 135 209 274 299 409 c 1
 411 567 l 1
 204 567 l 2
 191 567 113 567 106 561 c 0
 93 549 84 486 81 470 c 1
 56 470 l 1
 89 676 l 1
 114 676 l 1
 118 657 120 644 242 644 c 2
 485 644 l 1
EndSplineSet
Substitution2: "'pnum' Proportional Numbers lookup 7 subtable" seven.prop
Substitution2: "'onum' Oldstyle Figures lookup 5 subtable" seven.oldstyle
AlternateSubs2: "'aalt' Access All Alternates lookup 2 subtable" seven.oldstyle seven.prop
EndChar

StartChar: eight
Encoding: 56 56 25
Width: 500
GlyphClass: 2
Flags: MW
HStem: -22 28<207 291 207 305.5> 641 25<213.5 285.5>
VStem: 42 50<109.5 180 109.5 200.5> 113 50 407 50<114.5 162.5>
LayerCount: 2
Fore
SplineSet
457 168 m 0
 457 61 362 -22 249 -22 c 0
 144 -22 42 45 42 151 c 0
 42 250 128 306 186 335 c 1
 161 352 124 377 113 389 c 0
 71 436 69 481 69 499 c 0
 69 592 150 666 250 666 c 0
 341 666 430 609 430 517 c 0
 430 451 381 399 309 362 c 1
 373 322 389 312 408 291 c 0
 446 249 457 204 457 168 c 0
386 517 m 0
 386 589 322 641 249 641 c 0
 178 641 113 599 113 538 c 0
 113 521 117 487 163 457 c 2
 287 377 l 1
 347 412 386 460 386 517 c 0
407 132 m 0
 407 193 360 223 332 242 c 2
 209 320 l 1
 124 273 92 209 92 151 c 0
 92 68 164 6 250 6 c 0
 332 6 407 58 407 132 c 0
EndSplineSet
Substitution2: "'pnum' Proportional Numbers lookup 7 subtable" eight.prop
Substitution2: "'onum' Oldstyle Figures lookup 5 subtable" eight.oldstyle
AlternateSubs2: "'aalt' Access All Alternates lookup 2 subtable" eight.oldstyle eight.prop
EndChar

StartChar: nine
Encoding: 57 57 26
Width: 500
GlyphClass: 2
Flags: MW
HStem: -22 28<196.5 234 196.5 270.5> 42 92<107 124 105 129> 218 23<235 272.5> 304 25 329 92 578 25 641 25<235.5 276>
VStem: 42 90<415.5 467 415.5 478.5> 153 90 367 90<286 318 318 318>
LayerCount: 2
Fore
SplineSet
457 329 m 0xefc0
 457 114 335 -22 206 -22 c 0
 121 -22 67 19 67 86 c 0
 67 125 97 134 113 134 c 0
 135 134 159 119 159 88 c 0
 159 71 151 42 107 42 c 1
 134 8 188 6 205 6 c 0
 263 6 367 52 367 286 c 2
 367 318 l 1
 344 260 303 218 242 218 c 0
 130 218 42 316 42 441 c 0
 42 516 65 558 106 603 c 0
 149 648 198 666 253 666 c 0
 342 666 457 598 457 329 c 0xefc0
365 421 m 0
 365 467 361 530 349 562 c 0
 332 607 299 641 253 641 c 0
 218 641 180 628 153 578 c 0
 132 541 132 494 132 440 c 0
 132 391 132 341 150 304 c 0x1780
 181 241 227 241 243 241 c 0
 331 241 365 338 365 421 c 0
EndSplineSet
Substitution2: "'pnum' Proportional Numbers lookup 7 subtable" nine.prop
Substitution2: "'onum' Oldstyle Figures lookup 5 subtable" nine.oldstyle
AlternateSubs2: "'aalt' Access All Alternates lookup 2 subtable" nine.oldstyle nine.prop
EndChar

StartChar: colon
Encoding: 58 58 27
Width: 278
GlyphClass: 2
Flags: MW
HStem: 0 106<124.5 153.5> 325 106<124.5 153.5>
VStem: 86 106<38.5 67.5 363.5 392.5>
LayerCount: 2
Fore
SplineSet
192 378 m 0
 192 349 168 325 139 325 c 0
 110 325 86 349 86 378 c 0
 86 407 110 431 139 431 c 0
 168 431 192 407 192 378 c 0
192 53 m 0
 192 24 168 0 139 0 c 0
 110 0 86 24 86 53 c 0
 86 82 110 106 139 106 c 0
 168 106 192 82 192 53 c 0
EndSplineSet
EndChar

StartChar: semicolon
Encoding: 59 59 28
Width: 278
GlyphClass: 2
Flags: MW
HStem: -193 21G<109.5 117.5> 0 106<121.5 141.5> 325 106<124.5 153.5>
VStem: 86 106<363.5 392.5>
LayerCount: 2
Fore
SplineSet
192 378 m 0
 192 349 168 325 139 325 c 0
 110 325 86 349 86 378 c 0
 86 407 110 431 139 431 c 0
 168 431 192 407 192 378 c 0
195 3 m 0
 195 -113 123 -193 112 -193 c 0
 107 -193 102 -189 102 -182 c 0
 102 -179 102 -177 109 -169 c 0
 173 -95 173 -17 173 11 c 1
 165 4 154 2 147 1 c 2
 147 1 144 0 139 0 c 0
 103 0 86 27 86 53 c 0
 86 79 104 106 139 106 c 0
 193 106 195 32 195 3 c 0
EndSplineSet
EndChar

StartChar: less
Encoding: 60 60 29
Width: 778
GlyphClass: 2
Flags: MW
VStem: 83 611<-25.5 256>
LayerCount: 2
Fore
SplineSet
694 -20 m 0
 694 -31 685 -40 674 -40 c 0
 671 -40 669 -40 656 -33 c 2
 102 228 l 2
 91 233 83 238 83 250 c 0
 83 262 91 267 102 272 c 2
 656 533 l 2
 669 540 671 540 674 540 c 0
 685 540 694 531 694 520 c 0
 694 509 687 504 675 498 c 2
 150 250 l 1
 675 2 l 2
 687 -4 694 -9 694 -20 c 0
EndSplineSet
EndChar

StartChar: equal
Encoding: 61 61 30
Width: 778
GlyphClass: 2
Flags: MW
HStem: 133 40<82 687 90 687 687 688> 327 40<89 90 90 687>
VStem: 56 665<143 163 337 357>
LayerCount: 2
Fore
SplineSet
721 347 m 0
 721 327 702 327 687 327 c 2
 90 327 l 2
 75 327 56 327 56 347 c 0
 56 367 75 367 89 367 c 2
 688 367 l 2
 702 367 721 367 721 347 c 0
721 153 m 0
 721 133 702 133 688 133 c 2
 89 133 l 2
 75 133 56 133 56 153 c 0
 56 173 75 173 90 173 c 2
 687 173 l 2
 702 173 721 173 721 153 c 0
EndSplineSet
EndChar

StartChar: greater
Encoding: 62 62 31
Width: 778
GlyphClass: 2
Flags: MW
VStem: 83 611<-25.5 256 244 525.5>
LayerCount: 2
Fore
SplineSet
694 250 m 0
 694 238 686 233 675 228 c 2
 121 -33 l 2
 108 -40 106 -40 103 -40 c 0
 92 -40 83 -31 83 -20 c 0
 83 -11 88 -5 102 2 c 2
 627 250 l 1
 102 498 l 2
 88 505 83 511 83 520 c 0
 83 531 92 540 103 540 c 0
 106 540 108 540 121 533 c 2
 675 272 l 2
 686 267 694 262 694 250 c 0
EndSplineSet
EndChar

StartChar: question
Encoding: 63 63 32
Width: 472
GlyphClass: 2
Flags: MW
HStem: 0 106<207.5 236.5> 187 21G<216 228.5> 481 91 524 91<92 99 92 116> 683 22<202 277.5>
VStem: 56 92<557 592.5 557 604.5> 169 106<38.5 67.5> 226 106 275 92 332 83<549 595.5>
LayerCount: 2
Fore
SplineSet
415 570 m 0x2d
 415 528 394 492 367 472 c 0
 332 446 235 375 235 249 c 2
 235 214 l 2
 235 196 235 187 222 187 c 0
 210 187 210 193 210 211 c 2
 210 256 l 2
 210 317 232 409 298 481 c 0x6080
 316 499 332 517 332 576 c 0
 332 615 332 683 223 683 c 0
 181 683 123 668 92 615 c 1
 106 615 148 615 148 570 c 0
 148 544 130 524 102 524 c 0x1c40
 79 524 56 538 56 572 c 0
 56 637 118 705 226 705 c 0
 375 705 415 628 415 570 c 0x2d
275 53 m 0
 275 24 251 0 222 0 c 0
 193 0 169 24 169 53 c 0
 169 82 193 106 222 106 c 0
 251 106 275 82 275 53 c 0
EndSplineSet
EndChar

StartChar: at
Encoding: 64 64 33
Width: 778
GlyphClass: 2
Flags: MW
HStem: -11 22<302 420> 128 22<354 400 354 414 605.5 656> 461 20G<547 564 564 575.5> 544 22<353.5 406> 683 22<306 456.5>
VStem: 56 25<257.5 442.5 257.5 446.5> 189 69<291.5 402.5 291.5 410> 505 69 519 69<262 432 432 441> 619 69 696 25<286 452.5>
LayerCount: 2
Fore
SplineSet
721 338 m 0xcd60
 721 231 707 128 619 128 c 0
 581 128 529 147 519 199 c 1
 489 157 441 128 387 128 c 0
 284 128 189 221 189 347 c 0
 189 473 284 566 387 566 c 0
 426 566 478 552 524 489 c 0
 530 482 531 481 547 481 c 2
 564 481 l 2
 587 481 588 480 588 457 c 2
 588 216 l 2x72e0
 588 201 588 150 623 150 c 0
 689 150 696 240 696 332 c 0
 696 573 525 683 388 683 c 0
 224 683 81 538 81 347 c 0
 81 168 211 11 393 11 c 0
 487 11 580 35 665 75 c 0
 670 78 672 78 688 78 c 2
 697 78 l 2
 713 78 720 78 720 68 c 0
 720 52 600 17 574 11 c 0
 510 -4 446 -11 394 -11 c 0
 194 -11 56 159 56 347 c 0
 56 546 206 705 389 705 c 0
 550 705 721 572 721 338 c 0xcd60
519 262 m 2
 519 432 l 2x0080
 519 450 519 453 506 472 c 0
 470 528 422 544 390 544 c 0
 317 544 258 458 258 347 c 0
 258 236 318 150 390 150 c 0
 410 150 461 156 505 219 c 0x53
 519 240 519 244 519 262 c 2
EndSplineSet
EndChar

StartChar: A
Encoding: 65 65 34
Width: 750
GlyphClass: 2
Flags: HMW
HStem: 0 31<32 32> 228 31<233 458 233 469 222 458> 696 20G<351 383 367 398>
AnchorPoint: "topright" 641 430 basechar 0
AnchorPoint: "bottom" 584 7 basechar 0
AnchorPoint: "top" 374 749 basechar 0
AnchorPoint: "below" 358 -20 basechar 0
AnchorPoint: "overlap" 347 323 basechar 0
LayerCount: 2
Fore
SplineSet
717 0 m 1
 717 0 586 3 586 3 c 2
 548 3 478 3 442 0 c 1
 442 31 l 1
 469 31 525 31 525 61 c 0
 525 65 523 71 522 75 c 2
 469 228 l 1
 222 228 l 1
 176 97 l 2
 175 95 174 85 174 82 c 0
 174 56 199 31 249 31 c 1
 249 0 l 1
 134 3 l 1
 32 0 l 1
 32 31 l 1
 86 32 126 47 144 98 c 2
 351 696 l 2
 356 710 359 716 375 716 c 0
 391 716 393 709 398 696 c 2
 614 71 l 2
 625 38 639 31 699 31 c 2
 717 31 l 1
 717 0 l 1
458 259 m 1
 345 584 l 1
 233 259 l 1
 458 259 l 1
EndSplineSet
Position2: "'cpsp' Capital Spacing lookup 0 subtable" dx=7 dy=0 dh=14 dv=0
EndChar

StartChar: B
Encoding: 66 66 35
Width: 708
GlyphClass: 2
Flags: HMW
HStem: 0 31<36 60 60 98.5 271 396 396 428 36 60> 344 22<222 367 367 410 222 367> 652 31<36 60 36 402 247.5 271 271 395>
VStem: 139 83<78 344 366 605 605 612> 527 97<482 540.5> 551 100<148.5 217.5>
AnchorPoint: "topright" 671 430 basechar 0
AnchorPoint: "top" 333 749 basechar 0
AnchorPoint: "below" 338 -19 basechar 0
AnchorPoint: "overlap" 351 323 basechar 0
LayerCount: 2
Fore
SplineSet
651 183 m 0xb8
 651 89 561 0 428 0 c 2
 36 0 l 1
 36 31 l 1
 60 31 l 2
 137 31 139 42 139 78 c 2
 139 605 l 2
 139 641 137 652 60 652 c 2
 36 652 l 1
 36 683 l 1
 402 683 l 2
 532 683 624 601 624 514 c 0
 624 440 555 376 458 357 c 1
 569 345 651 270 651 183 c 0xb8
527 514 m 0
 527 567 492 652 395 652 c 2
 271 652 l 2
 224 652 222 645 222 612 c 2
 222 366 l 1
 367 366 l 2
 478 366 527 450 527 514 c 0
551 184 m 0
 551 251 509 344 410 344 c 2
 222 344 l 1
 222 71 l 2
 222 38 224 31 271 31 c 2
 396 31 l 2
 499 31 551 113 551 184 c 0
EndSplineSet
Position2: "'cpsp' Capital Spacing lookup 0 subtable" dx=7 dy=0 dh=14 dv=0
EndChar

StartChar: C
Encoding: 67 67 36
Width: 722
GlyphClass: 2
Flags: HMW
HStem: -22 31<385.5 470.5 385.5 485.5> 674 31<384.5 452 310.5 469.5>
VStem: 56 103<238.5 444> 635 30
AnchorPoint: "topright" 741 430 basechar 0
AnchorPoint: "bottom" 408 -9 basechar 0
AnchorPoint: "top" 409 749 basechar 0
AnchorPoint: "below" 408 -39 basechar 0
AnchorPoint: "overlap" 407 323 basechar 0
LayerCount: 2
Fore
SplineSet
665 233 m 0
 665 117 567 -22 404 -22 c 0
 218 -22 56 135 56 342 c 0
 56 546 217 705 404 705 c 0
 500 705 551 655 588 619 c 1
 638 693 l 2
 646 705 650 705 654 705 c 0
 665 705 665 698 665 681 c 2
 665 444 l 2
 665 423 665 420 649 420 c 0
 635 420 635 423 633 437 c 0
 613 583 524 674 415 674 c 0
 354 674 159 640 159 341 c 0
 159 43 355 9 416 9 c 0
 525 9 632 91 640 234 c 0
 641 244 641 250 652 250 c 0
 665 250 665 243 665 233 c 0
EndSplineSet
Position2: "'cpsp' Capital Spacing lookup 0 subtable" dx=7 dy=0 dh=14 dv=0
EndChar

StartChar: D
Encoding: 68 68 37
Width: 764
GlyphClass: 2
Flags: HMW
HStem: 0 31<35 59 59 97.5 273 374 374 401 35 59> 652 31<35 59 35 401 249.5 273 273 373>
VStem: 138 86<78 605 605 612> 273 100<652 652> 607 100<280.5 375>
AnchorPoint: "topright" 751 430 basechar 0
AnchorPoint: "bottom" 335 1 basechar 0
AnchorPoint: "top" 327 749 basechar 0
AnchorPoint: "below" 332 -19 basechar 0
AnchorPoint: "overlap" 325 323 basechar 0
LayerCount: 2
Fore
SplineSet
707 336 m 0
 707 148 569 0 401 0 c 2
 35 0 l 1
 35 31 l 1
 59 31 l 2
 136 31 138 42 138 78 c 2
 138 605 l 2
 138 641 136 652 59 652 c 2
 35 652 l 1
 35 683 l 1
 401 683 l 2
 572 683 707 526 707 336 c 0
607 336 m 0
 607 414 598 500 555 559 c 0
 504 630 435 652 373 652 c 2
 273 652 l 2
 226 652 224 645 224 612 c 2
 224 71 l 2
 224 38 226 31 273 31 c 2
 374 31 l 2
 475 31 532 89 552 116 c 0
 588 165 607 225 607 336 c 0
EndSplineSet
Position2: "'cpsp' Capital Spacing lookup 0 subtable" dx=7 dy=0 dh=14 dv=0
EndChar

StartChar: E
Encoding: 69 69 38
Width: 681
GlyphClass: 2
Flags: HMW
HStem: 0 31<33 57 57 95.5 274 407 407 493 33 57> 338 31<225 315 225 315> 455 31 649 31<33 57 33 596 250.5 274 274 403>
VStem: 136 89<78 338 369 602 602 609> 423 25<221 263.5 443 486> 599 25<455 455> 627 25<258 258>
AnchorPoint: "topright" 691 430 basechar 0
AnchorPoint: "bottom" 402 2 basechar 0
AnchorPoint: "top" 338 749 basechar 0
AnchorPoint: "below" 352 -22 basechar 0
AnchorPoint: "overlap" 347 323 basechar 0
LayerCount: 2
Fore
SplineSet
652 258 m 1
 610 0 l 1
 33 0 l 1
 33 31 l 1
 57 31 l 2
 134 31 136 42 136 78 c 2
 136 602 l 2
 136 638 134 649 57 649 c 2
 33 649 l 1
 33 680 l 1
 596 680 l 1
 624 455 l 1
 599 455 l 1
 583 594 556 649 403 649 c 2
 274 649 l 2
 227 649 225 642 225 609 c 2
 225 369 l 1
 315 369 l 2
 412 369 423 400 423 486 c 1
 448 486 l 1
 448 221 l 1
 423 221 l 1
 423 306 412 338 315 338 c 2
 225 338 l 1
 225 71 l 2
 225 38 227 31 274 31 c 2
 407 31 l 2
 579 31 602 104 627 258 c 1
 652 258 l 1
EndSplineSet
Position2: "'cpsp' Capital Spacing lookup 0 subtable" dx=7 dy=0 dh=14 dv=0
EndChar

StartChar: F
Encoding: 70 70 39
Width: 653
GlyphClass: 2
Flags: HMW
HStem: 0 31<33 57> 325 31<225 311 225 311> 649 31<33 57 33 582 250.5 274 274 394>
VStem: 136 89<78 79 79 325 356 602 602 609> 185 89 353 89 417 25<208 250.5 431 473> 585 25<455 455>
AnchorPoint: "topright" 661 430 basechar 0
AnchorPoint: "top" 339 749 basechar 0
AnchorPoint: "overlap" 347 340 basechar 0
LayerCount: 2
Fore
SplineSet
610 455 m 1xb0
 585 455 l 1
 569 593 544 649 394 649 c 2
 274 649 l 2x29
 227 649 225 642 225 609 c 2
 225 356 l 1
 311 356 l 2
 407 356 417 389 417 473 c 1
 442 473 l 1
 442 208 l 1
 417 208 l 1
 417 293 407 325 311 325 c 2
 225 325 l 1
 225 79 l 2x52
 225 44 225 31 320 31 c 2
 353 31 l 1
 353 0 l 1
 317 3 226 3 185 3 c 0
 146 3 68 3 33 0 c 1
 33 31 l 1
 57 31 l 2
 134 31 136 42 136 78 c 2
 136 602 l 2
 136 638 134 649 57 649 c 2
 33 649 l 1
 33 680 l 1
 582 680 l 1
 610 455 l 1xb0
EndSplineSet
Position2: "'cpsp' Capital Spacing lookup 0 subtable" dx=7 dy=0 dh=14 dv=0
EndChar

StartChar: G
Encoding: 71 71 40
Width: 785
GlyphClass: 2
Flags: HMW
HStem: -22 31<389.5 436 389.5 442.5> 242 31<452 484 452 452> 674 31<386 453.5 311 469.5>
VStem: 56 103<239.5 444.5> 577 89<130 194 194 198>
AnchorPoint: "topright" 751 430 basechar 0
AnchorPoint: "top" 405 749 basechar 0
AnchorPoint: "below" 408 -50 basechar 0
AnchorPoint: "overlap" 403 323 basechar 0
LayerCount: 2
Fore
SplineSet
735 242 m 1
 670 242 666 237 666 198 c 2
 666 24 l 2
 666 9 666 1 657 1 c 0
 646 1 606 41 593 63 c 1
 559 4 479 -22 406 -22 c 0
 216 -22 56 137 56 342 c 0
 56 547 218 705 404 705 c 0
 503 705 557 651 589 619 c 1
 639 693 l 2
 647 705 651 705 655 705 c 0
 666 705 666 698 666 681 c 2
 666 444 l 2
 666 423 666 420 650 420 c 0
 636 420 636 423 634 437 c 0
 614 584 523 674 416 674 c 0
 356 674 159 641 159 342 c 0
 159 44 357 9 422 9 c 0
 450 9 577 18 577 130 c 2
 577 194 l 2
 577 231 574 242 484 242 c 2
 452 242 l 1
 452 273 l 1
 488 270 573 270 613 270 c 2
 735 273 l 1
 735 242 l 1
EndSplineSet
Position2: "'cpsp' Capital Spacing lookup 0 subtable" dx=7 dy=0 dh=14 dv=0
EndChar

StartChar: H
Encoding: 72 72 41
Width: 750
GlyphClass: 2
Flags: HMW
HStem: 0 31<33 57> 340 31<225 524 225 524> 652 31<33 57 33 33>
VStem: 136 89<78 340 371 605> 524 89<78 340 340 340 371 605>
AnchorPoint: "topright" 761 430 basechar 0
AnchorPoint: "bottom" 179 5 basechar 0
AnchorPoint: "top" 383 749 basechar 0
AnchorPoint: "below" 379 -21 basechar 0
AnchorPoint: "overlap" 384 323 basechar 0
LayerCount: 2
Fore
SplineSet
716 0 m 1
 681 3 606 3 568 3 c 0
 530 3 456 3 421 0 c 1
 421 31 l 1
 445 31 l 2
 522 31 524 42 524 78 c 2
 524 340 l 1
 225 340 l 1
 225 78 l 2
 225 42 227 31 304 31 c 2
 328 31 l 1
 328 0 l 1
 293 3 218 3 180 3 c 0
 142 3 68 3 33 0 c 1
 33 31 l 1
 57 31 l 2
 134 31 136 42 136 78 c 2
 136 605 l 2
 136 641 134 652 57 652 c 2
 33 652 l 1
 33 683 l 1
 68 680 143 680 181 680 c 0
 219 680 293 680 328 683 c 1
 328 652 l 1
 304 652 l 2
 227 652 225 641 225 605 c 2
 225 371 l 1
 524 371 l 1
 524 605 l 2
 524 641 522 652 445 652 c 2
 421 652 l 1
 421 683 l 1
 456 680 531 680 569 680 c 0
 607 680 681 680 716 683 c 1
 716 652 l 1
 692 652 l 2
 615 652 613 641 613 605 c 2
 613 78 l 2
 613 42 615 31 692 31 c 2
 716 31 l 1
 716 0 l 1
EndSplineSet
Position2: "'cpsp' Capital Spacing lookup 0 subtable" dx=7 dy=0 dh=14 dv=0
EndChar

StartChar: I
Encoding: 73 73 42
Width: 361
GlyphClass: 2
Flags: HMW
HStem: 0 31<28 54> 652 31<28 54 28 28>
VStem: 136 89<78 605>
AnchorPoint: "topright" 371 430 basechar 0
AnchorPoint: "bottom" 227 5 basechar 0
AnchorPoint: "top" 182 749 basechar 0
AnchorPoint: "below" 182 -24 basechar 0
AnchorPoint: "overlap" 181 323 basechar 0
LayerCount: 2
Fore
SplineSet
333 0 m 1
 298 3 219 3 180 3 c 0
 142 3 63 3 28 0 c 1
 28 31 l 1
 54 31 l 2
 133 31 136 42 136 78 c 2
 136 605 l 2
 136 641 133 652 54 652 c 2
 28 652 l 1
 28 683 l 1
 63 680 142 680 181 680 c 0
 219 680 298 680 333 683 c 1
 333 652 l 1
 307 652 l 2
 228 652 225 641 225 605 c 2
 225 78 l 2
 225 42 228 31 307 31 c 2
 333 31 l 1
 333 0 l 1
EndSplineSet
Position2: "'cpsp' Capital Spacing lookup 0 subtable" dx=7 dy=0 dh=14 dv=0
EndChar

StartChar: J
Encoding: 74 74 43
Width: 514
GlyphClass: 2
Flags: HMW
HStem: -22 22<196 225.5 196 252> 0 112 58 112<89 111 86 115> 148 22 652 31<168 204 168 168>
VStem: 41 112<101 132 101 134> 89 112 302 86<150 167 167 604 604 611>
AnchorPoint: "topright" 521 430 basechar 0
AnchorPoint: "top" 343 749 basechar 0
AnchorPoint: "below" 202 -63 basechar 0
AnchorPoint: "overlap" 347 323 basechar 0
LayerCount: 2
Fore
SplineSet
465 652 m 1x59
 402 652 388 652 388 611 c 2
 388 167 l 2
 388 133 388 131 387 123 c 0
 376 48 303 -22 201 -22 c 0x8b
 112 -22 41 38 41 112 c 0x44
 41 156 75 170 97 170 c 0
 125 170 153 150 153 114 c 0x24
 153 88 141 58 89 58 c 1x22
 125 0 193 0 199 0 c 0
 252 0 302 56 302 148 c 2
 302 604 l 2
 302 639 302 652 204 652 c 2
 168 652 l 1
 168 683 l 1
 206 680 294 680 336 680 c 2
 465 683 l 1
 465 652 l 1x59
EndSplineSet
Position2: "'cpsp' Capital Spacing lookup 0 subtable" dx=7 dy=0 dh=14 dv=0
EndChar

StartChar: K
Encoding: 75 75 44
Width: 778
GlyphClass: 2
Flags: HMW
HStem: 0 31<33 57> 652 31<33 57 33 33>
VStem: 136 89<78 253 287 605>
AnchorPoint: "topright" 781 430 basechar 0
AnchorPoint: "top" 419 749 basechar 0
AnchorPoint: "below" 407 -20 basechar 0
AnchorPoint: "overlap" 407 323 basechar 0
LayerCount: 2
Fore
SplineSet
736 0 m 1
 736 0 621 3 621 3 c 2
 583 3 513 3 478 0 c 1
 478 31 l 1
 498 31 537 31 537 61 c 0
 537 73 528 86 522 95 c 2
 341 363 l 1
 225 253 l 1
 225 78 l 2
 225 42 227 31 304 31 c 2
 328 31 l 1
 328 0 l 1
 293 3 218 3 180 3 c 0
 142 3 68 3 33 0 c 1
 33 31 l 1
 57 31 l 2
 134 31 136 42 136 78 c 2
 136 605 l 2
 136 641 134 652 57 652 c 2
 33 652 l 1
 33 683 l 1
 68 680 143 680 181 680 c 0
 219 680 293 680 328 683 c 1
 328 652 l 1
 304 652 l 2
 227 652 225 641 225 605 c 2
 225 287 l 1
 538 586 l 2
 546 593 556 603 556 619 c 0
 556 628 550 651 510 652 c 1
 510 683 l 1
 544 680 601 680 637 680 c 0
 664 680 696 680 722 683 c 1
 722 652 l 1
 641 651 588 600 580 592 c 2
 400 419 l 1
 631 79 l 2
 661 35 682 31 736 31 c 1
 736 0 l 1
EndSplineSet
Position2: "'cpsp' Capital Spacing lookup 0 subtable" dx=7 dy=0 dh=14 dv=0
EndChar

StartChar: L
Encoding: 76 76 45
Width: 625
GlyphClass: 2
Flags: HMW
HStem: 0 31<33 57 57 95.5 274 356 356 444 33 57> 238 20G<557 582 582 582> 652 31<33 57 33 33>
VStem: 136 89<78 604> 185 89 557 25<258 258>
AnchorPoint: "topright" 441 430 basechar 0
AnchorPoint: "top" 185 749 basechar 0
AnchorPoint: "below" 326 -22 basechar 0
AnchorPoint: "overlap" 194 323 basechar 0
LayerCount: 2
Fore
SplineSet
582 258 m 1xcc
 554 0 l 1
 33 0 l 1
 33 31 l 1
 57 31 l 2
 134 31 136 42 136 78 c 2
 136 605 l 2xd4
 136 641 134 652 57 652 c 2
 33 652 l 1
 33 683 l 1
 68 680 146 680 185 680 c 0
 226 680 317 680 353 683 c 1
 353 652 l 1
 320 652 l 2
 225 652 225 638 225 604 c 2
 225 71 l 2x30
 225 38 227 31 274 31 c 2
 356 31 l 2
 532 31 546 156 557 258 c 1
 582 258 l 1xcc
EndSplineSet
Position2: "'cpsp' Capital Spacing lookup 0 subtable" dx=7 dy=0 dh=14 dv=0
EndChar

StartChar: M
Encoding: 77 77 46
Width: 917
GlyphClass: 2
Flags: HMW
HStem: 0 31<37 88.5> 652 31<37 61 37 206 816.5 855 855 879>
VStem: 140 28<105 605 605 623> 430 28 695 81<78 605>
AnchorPoint: "topright" 921 430 basechar 0
AnchorPoint: "top" 448 749 basechar 0
AnchorPoint: "overlap" 457 323 basechar 0
LayerCount: 2
Fore
SplineSet
879 0 m 1
 842 3 775 3 736 3 c 0
 697 3 629 3 592 0 c 1
 592 31 l 1
 616 31 l 2
 693 31 695 42 695 78 c 2
 695 652 l 1
 694 652 l 1
 448 19 l 2
 444 8 441 0 430 0 c 0
 420 0 415 9 410 22 c 2
 169 644 l 1
 168 644 l 1
 168 105 l 2
 168 78 168 31 271 31 c 1
 271 0 l 1
 154 3 l 1
 37 0 l 1
 37 31 l 1
 140 31 140 78 140 105 c 2
 140 605 l 2
 140 641 138 652 61 652 c 2
 37 652 l 1
 37 683 l 1
 206 683 l 2
 229 683 232 683 241 661 c 2
 458 101 l 1
 677 664 l 2
 684 682 684 683 710 683 c 2
 879 683 l 1
 879 652 l 1
 855 652 l 2
 778 652 776 641 776 605 c 2
 776 78 l 2
 776 42 778 31 855 31 c 2
 879 31 l 1
 879 0 l 1
EndSplineSet
Position2: "'cpsp' Capital Spacing lookup 0 subtable" dx=7 dy=0 dh=14 dv=0
EndChar

StartChar: N
Encoding: 78 78 47
Width: 750
GlyphClass: 2
Flags: HMW
HStem: 0 31<33 84.5> 652 31<33 62 33 203>
VStem: 136 28<105 625> 585 28<151 578>
AnchorPoint: "topright" 761 430 basechar 0
AnchorPoint: "top" 369 749 basechar 0
AnchorPoint: "below" 391 -18 basechar 0
AnchorPoint: "overlap" 387 323 basechar 0
LayerCount: 2
Fore
SplineSet
716 652 m 1
 613 652 613 605 613 578 c 2
 613 26 l 2
 613 7 613 0 599 0 c 0
 592 0 591 1 582 13 c 2
 174 613 l 2
 170 619 169 620 164 625 c 1
 164 105 l 2
 164 78 164 31 267 31 c 1
 267 0 l 1
 150 3 l 1
 33 0 l 1
 33 31 l 1
 136 31 136 78 136 105 c 2
 136 627 l 2
 136 646 135 647 112 650 c 0
 97 651 77 652 62 652 c 2
 33 652 l 1
 33 683 l 1
 203 683 l 2
 222 683 223 682 232 670 c 2
 585 151 l 1
 585 578 l 2
 585 605 585 652 482 652 c 1
 482 683 l 1
 599 680 l 1
 716 683 l 1
 716 652 l 1
EndSplineSet
Position2: "'cpsp' Capital Spacing lookup 0 subtable" dx=7 dy=0 dh=14 dv=0
EndChar

StartChar: O
Encoding: 79 79 48
Width: 778
GlyphClass: 2
Flags: HMW
HStem: -22 26<341 435 341 479> 680 25<346.5 431.5>
VStem: 56 103<236.5 442> 618 103<238 441 238 481>
AnchorPoint: "topright" 781 430 basechar 0
AnchorPoint: "bottom" 391 -14 basechar 0
AnchorPoint: "top" 392 749 basechar 0
AnchorPoint: "below" 392 -63 basechar 0
AnchorPoint: "overlap" 397 323 basechar 0
LayerCount: 2
Fore
SplineSet
721 339 m 0
 721 137 570 -22 388 -22 c 0
 210 -22 56 134 56 339 c 0
 56 545 209 705 388 705 c 0
 570 705 721 543 721 339 c 0
618 353 m 0
 618 609 475 680 388 680 c 0
 305 680 159 612 159 353 c 0
 159 92 293 4 389 4 c 0
 481 4 618 88 618 353 c 0
EndSplineSet
Position2: "'cpsp' Capital Spacing lookup 0 subtable" dx=7 dy=0 dh=14 dv=0
EndChar

StartChar: P
Encoding: 80 80 49
Width: 681
GlyphClass: 2
Flags: HMW
HStem: 0 31<35 59> 316 26<227 362 362 396 227 227> 652 31<35 59 35 388 249.5 273 273 362>
VStem: 35 103<0 605 31 605 78 683 78 683> 138 86<342 605 605 612 342 623> 227 103<0 78 0 316> 521 103<473.5 521.5>
AnchorPoint: "topright" 661 430 basechar 0
AnchorPoint: "top" 319 749 basechar 0
AnchorPoint: "overlap" 327 323 basechar 0
LayerCount: 2
Fore
SplineSet
624 497 m 0xf6
 624 397 516 316 396 316 c 2
 227 316 l 1
 227 78 l 2
 227 42 229 31 306 31 c 2
 330 31 l 1
 330 0 l 1
 295 3 220 3 182 3 c 0
 144 3 70 3 35 0 c 1
 35 31 l 1
 59 31 l 2
 136 31 138 42 138 78 c 2
 138 605 l 2
 138 641 136 652 59 652 c 2
 35 652 l 1
 35 683 l 1
 388 683 l 2
 525 683 624 595 624 497 c 0xf6
521 497 m 0
 521 546 521 652 362 652 c 2
 273 652 l 2
 226 652 224 645 224 612 c 2
 224 342 l 1x6a
 362 342 l 2
 521 342 521 450 521 497 c 0
EndSplineSet
Position2: "'cpsp' Capital Spacing lookup 0 subtable" dx=7 dy=0 dh=14 dv=0
EndChar

StartChar: Q
Encoding: 81 81 50
Width: 778
GlyphClass: 2
Flags: HMW
HStem: -194 103<590.5 635.5 590.5 657> -22 25<363.5 400 363.5 404.5> 42 22 126 22<370.5 417> 680 25<342 436.5>
VStem: 56 100<238 442> 308 22<56.5 78.5 56.5 84.5> 621 100<300 441 263.5 466.5> 705 22
AnchorPoint: "topright" 761 430 basechar 0
AnchorPoint: "top" 390 749 basechar 0
AnchorPoint: "below" 386 -198 basechar 0
AnchorPoint: "overlap" 383 323 basechar 0
LayerCount: 2
Fore
SplineSet
727 -10 m 0x8080
 727 -61 708 -194 606 -194 c 0
 513 -194 499 -102 484 -7 c 1
 455 -16 420 -22 389 -22 c 0
 207 -22 56 137 56 339 c 0
 56 545 209 705 388 705 c 0
 570 705 721 543 721 339 c 0xcd
 721 188 636 60 518 7 c 1
 542 -57 567 -91 614 -91 c 0
 657 -91 699 -61 705 -7 c 0
 706 3 707 11 716 11 c 0
 727 11 727 0 727 -10 c 0x8080
621 339 m 0
 621 594 485 680 388 680 c 0
 296 680 156 599 156 339 c 0
 156 109 268 36 322 16 c 1
 321 18 308 37 308 64 c 0
 308 105 339 148 390 148 c 0
 449 148 481 98 503 42 c 1
 609 120 621 261 621 339 c 0
477 26 m 1
 466 84 444 126 390 126 c 0
 351 126 330 93 330 64 c 0
 330 49 338 3 389 3 c 0
 411 3 443 7 477 26 c 1
EndSplineSet
Position2: "'cpsp' Capital Spacing lookup 0 subtable" dx=7 dy=0 dh=14 dv=0
EndChar

StartChar: R
Encoding: 82 82 51
Width: 736
GlyphClass: 2
Flags: HMW
HStem: -22 22<622 653.5> 0 31<35 59> 331 22<224 335 335 339 224 335> 652 31<35 59 35 349 295 349 349 350>
VStem: 35 103<0 605 31 605 78 683 78 683> 138 86<78 331 353 605 605 612> 224 103<0 78 0 331>
CounterMasks: 1 0e
AnchorPoint: "topright" 671 430 basechar 0
AnchorPoint: "top" 329 749 basechar 0
AnchorPoint: "below" 408 -20 basechar 0
AnchorPoint: "overlap" 327 323 basechar 0
LayerCount: 2
Fore
SplineSet
732 88 m 0x9e
 732 60 715 -22 637 -22 c 0xbe
 607 -22 552 -16 511 20 c 0
 470 58 470 98 470 163 c 0
 470 230 470 261 432 297 c 0
 397 331 355 331 339 331 c 2
 224 331 l 1
 224 78 l 2
 224 42 226 31 303 31 c 2
 327 31 l 1
 327 0 l 1
 291 3 220 3 181 3 c 0
 142 3 71 3 35 0 c 1
 35 31 l 1
 59 31 l 2x6e
 136 31 138 42 138 78 c 2
 138 605 l 2
 138 641 136 652 59 652 c 2
 35 652 l 1
 35 683 l 1
 349 683 l 2
 496 683 610 599 610 503 c 0
 610 425 532 364 435 340 c 1
 490 321 539 288 557 224 c 1
 570 144 l 2
 584 51 592 0 641 0 c 0
 666 0 701 18 707 89 c 0
 708 96 708 105 719 105 c 0
 732 105 732 94 732 88 c 0x9e
507 503 m 0
 507 648 395 652 305 652 c 0
 285 652 256 652 246 650 c 0
 224 647 224 635 224 612 c 2
 224 353 l 1
 335 353 l 2
 483 353 507 434 507 503 c 0
EndSplineSet
Position2: "'cpsp' Capital Spacing lookup 0 subtable" dx=7 dy=0 dh=14 dv=0
EndChar

StartChar: S
Encoding: 83 83 52
Width: 556
GlyphClass: 2
Flags: HMW
HStem: -22 31<286.5 343 286.5 360.5> 186 31 388 31 480 31 677 28<213 295.5 195.5 335.5>
VStem: 56 64<517 564> 187 64 435 64<131 168.5>
AnchorPoint: "topright" 551 430 basechar 0
AnchorPoint: "bottom" 300 -14 basechar 0
AnchorPoint: "top" 252 749 basechar 0
AnchorPoint: "below" 298 -53 basechar 0
AnchorPoint: "overlap" 267 323 basechar 0
LayerCount: 2
Fore
SplineSet
499 186 m 0
 499 76 419 -22 302 -22 c 0
 213 -22 149 14 118 48 c 1
 85 -5 82 -9 82 -9 c 2
 75 -20 74 -22 67 -22 c 0
 56 -22 56 -15 56 2 c 2
 56 202 l 2
 56 220 56 227 69 227 c 0
 72 227 80 227 81 217 c 0
 82 181 85 117 143 63 c 0
 196 14 272 9 301 9 c 0
 385 9 435 81 435 152 c 0
 435 185 425 218 404 244 c 0
 376 281 346 288 319 295 c 0
 249 312 198 324 187 328 c 0
 109 355 56 428 56 511 c 0
 56 617 140 705 251 705 c 0
 340 705 381 664 411 635 c 1
 446 692 l 2
 453 704 454 705 461 705 c 0
 472 705 472 698 472 681 c 2
 472 480 l 2
 472 461 472 456 459 456 c 0
 448 456 448 462 447 468 c 0
 441 513 419 677 252 677 c 0
 174 677 120 616 120 546 c 0
 120 488 159 434 221 419 c 2
 349 388 l 2
 433 368 499 286 499 186 c 0
EndSplineSet
Position2: "'cpsp' Capital Spacing lookup 0 subtable" dx=7 dy=0 dh=14 dv=0
EndChar

StartChar: T
Encoding: 84 84 53
Width: 722
GlyphClass: 2
Flags: HMW
HStem: 0 31<171 211> 452 21G<36 61 36 36 660 685 660 660> 646 31<165.5 250 470.5 555.5>
VStem: 36 25<452 452> 316 89<79 606> 660 25<452 452>
CounterMasks: 1 1c
AnchorPoint: "topright" 731 430 basechar 0
AnchorPoint: "bottom" 361 6 basechar 0
AnchorPoint: "top" 365 749 basechar 0
AnchorPoint: "below" 361 -24 basechar 0
AnchorPoint: "overlap" 361 323 basechar 0
LayerCount: 2
Fore
SplineSet
685 452 m 1
 660 452 l 1
 646 613 631 646 480 646 c 0
 461 646 434 646 423 644 c 0
 405 640 405 626 405 606 c 2
 405 79 l 2
 405 45 405 31 510 31 c 2
 550 31 l 1
 550 0 l 1
 509 3 406 3 360 3 c 0
 314 3 212 3 171 0 c 1
 171 31 l 1
 211 31 l 2
 316 31 316 45 316 79 c 2
 316 606 l 2
 316 629 316 640 295 644 c 0
 285 646 259 646 241 646 c 0
 90 646 75 613 61 452 c 1
 36 452 l 1
 55 677 l 1
 666 677 l 1
 685 452 l 1
EndSplineSet
Position2: "'cpsp' Capital Spacing lookup 0 subtable" dx=7 dy=0 dh=14 dv=0
EndChar

StartChar: U
Encoding: 85 85 54
Width: 750
GlyphClass: 2
Flags: HMW
HStem: -22 31<366.5 437.5 366.5 445.5> 574 31 652 31<33 57 33 33>
VStem: 136 89<228 605> 390 89 582 31<234 254 254 574>
AnchorPoint: "topright" 761 430 basechar 0
AnchorPoint: "bottom" 388 -14 basechar 0
AnchorPoint: "top" 403 749 basechar 0
AnchorPoint: "below" 388 -44 basechar 0
AnchorPoint: "overlap" 394 323 basechar 0
LayerCount: 2
Fore
SplineSet
716 652 m 1
 613 652 613 607 613 574 c 2
 613 254 l 2
 613 214 613 205 610 185 c 0
 593 71 503 -22 388 -22 c 0
 252 -22 136 87 136 228 c 2
 136 605 l 2
 136 641 134 652 57 652 c 2
 33 652 l 1
 33 683 l 1
 68 680 143 680 181 680 c 0
 219 680 293 680 328 683 c 1
 328 652 l 1
 304 652 l 2
 227 652 225 641 225 605 c 2
 225 224 l 2
 225 34 343 9 390 9 c 0
 485 9 582 89 582 231 c 2
 582 578 l 2
 582 605 582 652 479 652 c 1
 479 683 l 1
 598 680 l 1
 716 683 l 1
 716 652 l 1
EndSplineSet
Position2: "'cpsp' Capital Spacing lookup 0 subtable" dx=7 dy=0 dh=14 dv=0
EndChar

StartChar: V
Encoding: 86 86 55
Width: 750
GlyphClass: 2
Flags: HMW
HStem: -22 21G<367.5 382.5> 652 31<19 51.5>
VStem: 19 711<652 683 652 683>
AnchorPoint: "topright" 771 430 basechar 0
AnchorPoint: "top" 409 749 basechar 0
AnchorPoint: "below" 376 -64 basechar 0
AnchorPoint: "overlap" 407 323 basechar 0
LayerCount: 2
Fore
SplineSet
730 652 m 1
 662 651 635 622 621 585 c 2
 398 -3 l 2
 393 -17 391 -22 374 -22 c 0
 361 -22 356 -19 349 0 c 2
 117 614 l 2
 103 652 84 652 19 652 c 1
 19 683 l 1
 19 683 146 680 146 680 c 2
 184 680 253 680 289 683 c 1
 289 652 l 1
 264 652 207 652 207 623 c 1
 207 623 207 619 213 605 c 2
 404 100 l 1
 587 582 l 2
 589 588 592 594 592 602 c 0
 592 625 571 651 519 652 c 1
 519 683 l 1
 519 683 633 680 633 680 c 2
 659 680 699 681 730 683 c 1
 730 652 l 1
EndSplineSet
Position2: "'cpsp' Capital Spacing lookup 0 subtable" dx=7 dy=0 dh=14 dv=0
EndChar

StartChar: W
Encoding: 87 87 56
Width: 1028
GlyphClass: 2
Flags: HMW
HStem: -22 21G<321.5 335 691.5 705> 579 31 585 31 652 31<18 55.5>
VStem: 18 991<652 683 652 683>
AnchorPoint: "topright" 1041 430 basechar 0
AnchorPoint: "top" 529 749 basechar 0
AnchorPoint: "below" 528 -18 basechar 0
AnchorPoint: "overlap" 531 323 basechar 0
LayerCount: 2
Fore
SplineSet
1009 652 m 1x58
 970 652 927 642 909 585 c 2x38
 718 -2 l 2
 714 -15 712 -22 698 -22 c 0
 685 -22 682 -12 679 -3 c 2
 513 506 l 1
 348 -2 l 2
 344 -15 342 -22 328 -22 c 0
 315 -22 312 -12 309 -3 c 2
 109 610 l 2xc0
 97 647 93 652 18 652 c 1
 18 683 l 1
 18 683 140 680 140 680 c 2
 178 680 246 680 282 683 c 1
 282 652 l 1
 256 652 198 652 198 622 c 0
 198 619 199 612 200 609 c 2
 361 117 l 1
 500 546 l 1
 478 616 l 2x38
 466 652 445 652 388 652 c 1
 388 683 l 1
 388 683 510 680 510 680 c 2
 548 680 616 680 652 683 c 1
 652 652 l 1
 626 652 568 652 568 622 c 0
 568 617 570 611 571 607 c 2
 731 117 l 1
 881 579 l 2
 883 585 886 593 886 599 c 0
 886 618 866 651 799 652 c 1
 799 683 l 1
 799 683 918 680 918 680 c 2
 948 680 979 681 1009 683 c 1
 1009 652 l 1x58
EndSplineSet
Position2: "'cpsp' Capital Spacing lookup 0 subtable" dx=7 dy=0 dh=14 dv=0
EndChar

StartChar: X
Encoding: 88 88 57
Width: 750
GlyphClass: 2
Flags: HMW
HStem: 0 31<24 74.5> 652 31<37 56 37 37>
VStem: 24 702<0 31 0 31>
AnchorPoint: "topright" 761 430 basechar 0
AnchorPoint: "top" 379 749 basechar 0
AnchorPoint: "below" 358 -25 basechar 0
AnchorPoint: "overlap" 367 323 basechar 0
LayerCount: 2
Fore
SplineSet
726 0 m 1
 726 0 596 3 596 3 c 2
 558 3 485 3 450 0 c 1
 450 31 l 1
 493 32 515 49 515 61 c 0
 515 64 512 68 510 72 c 2
 352 311 l 1
 210 101 l 2
 203 90 200 86 200 77 c 0
 200 59 217 32 263 31 c 1
 263 0 l 1
 227 3 172 3 135 3 c 2
 24 0 l 1
 24 31 l 1
 125 31 155 77 169 97 c 2
 333 339 l 1
 149 617 l 2
 130 645 111 652 56 652 c 2
 37 652 l 1
 37 683 l 1
 37 683 167 680 167 680 c 2
 205 680 278 680 313 683 c 1
 313 652 l 1
 270 651 248 634 248 622 c 0
 248 618 253 610 255 607 c 2
 384 414 l 1
 498 583 l 2
 505 594 507 596 507 606 c 0
 507 629 485 651 445 652 c 1
 445 683 l 1
 485 680 533 680 573 680 c 2
 684 683 l 1
 684 652 l 1
 595 651 561 619 539 587 c 2
 402 386 l 1
 613 67 l 2
 634 36 655 31 707 31 c 2
 726 31 l 1
 726 0 l 1
EndSplineSet
Position2: "'cpsp' Capital Spacing lookup 0 subtable" dx=7 dy=0 dh=14 dv=0
EndChar

StartChar: Y
Encoding: 89 89 58
Width: 750
GlyphClass: 2
Flags: HMW
HStem: 0 31<228 252> 652 31<11 29 11 11>
VStem: 331 86<78 80 80 273>
AnchorPoint: "topright" 771 430 basechar 0
AnchorPoint: "top" 410 749 basechar 0
AnchorPoint: "below" 375 -20 basechar 0
AnchorPoint: "overlap" 383 323 basechar 0
LayerCount: 2
Fore
SplineSet
738 652 m 1
 706 652 647 648 610 587 c 2
 417 273 l 1
 417 80 l 2
 417 41 420 31 497 31 c 2
 520 31 l 1
 520 0 l 1
 484 3 413 3 374 3 c 0
 335 3 264 3 228 0 c 1
 228 31 l 1
 252 31 l 2
 329 31 331 42 331 78 c 2
 331 273 l 1
 121 615 l 2
 105 641 97 652 29 652 c 2
 11 652 l 1
 11 683 l 1
 11 683 141 680 141 680 c 2
 180 680 253 680 289 683 c 1
 289 652 l 1
 244 652 219 648 219 627 c 0
 219 622 219 620 226 610 c 2
 407 315 l 1
 572 583 l 2
 576 589 582 602 582 613 c 0
 582 633 566 652 525 652 c 1
 525 683 l 1
 525 683 640 680 640 680 c 2
 667 680 707 681 738 683 c 1
 738 652 l 1
EndSplineSet
Position2: "'cpsp' Capital Spacing lookup 0 subtable" dx=7 dy=0 dh=14 dv=0
EndChar

StartChar: Z
Encoding: 90 90 59
Width: 611
GlyphClass: 2
Flags: HMW
HStem: 0 34<159 323 323 415.5> 652 31<213 295 295 452>
VStem: 56 504<8.5 267>
AnchorPoint: "topright" 631 430 basechar 0
AnchorPoint: "top" 329 749 basechar 0
AnchorPoint: "below" 318 -24 basechar 0
AnchorPoint: "overlap" 291 323 basechar 0
LayerCount: 2
Fore
SplineSet
560 267 m 1
 543 0 l 1
 82 0 l 2
 61 0 56 0 56 17 c 0
 56 25 56 26 63 37 c 2
 452 652 l 1
 295 652 l 2
 131 652 101 571 94 458 c 1
 69 458 l 1
 80 683 l 1
 528 683 l 2
 548 683 554 683 554 667 c 0
 554 660 554 659 547 648 c 2
 159 34 l 1
 323 34 l 2
 508 34 527 128 535 267 c 1
 560 267 l 1
EndSplineSet
Position2: "'cpsp' Capital Spacing lookup 0 subtable" dx=7 dy=0 dh=14 dv=0
EndChar

StartChar: bracketleft
Encoding: 91 91 60
Width: 278
GlyphClass: 2
Flags: MW
HStem: -250 40<158 255 158 255> 710 40<158 255 158 158>
VStem: 118 40<-210 710 -210 750>
LayerCount: 2
Fore
SplineSet
255 -250 m 1
 118 -250 l 1
 118 750 l 1
 255 750 l 1
 255 710 l 1
 158 710 l 1
 158 -210 l 1
 255 -210 l 1
 255 -250 l 1
EndSplineSet
EndChar

StartChar: backslash
Encoding: 92 92 61
Width: 500
GlyphClass: 2
Flags: MW
HStem: -250 21G<416 428.5> 730 20G<56 83>
VStem: 56 387
LayerCount: 2
Fore
SplineSet
443 -230 m 2
 443 -241 434 -250 423 -250 c 0
 409 -250 405 -239 401 -228 c 2
 61 712 l 2
 56 725 56 730 56 730 c 2
 56 741 65 750 76 750 c 0
 90 750 94 739 98 728 c 2
 438 -212 l 2
 443 -225 443 -230 443 -230 c 2
EndSplineSet
EndChar

StartChar: bracketright
Encoding: 93 93 62
Width: 278
GlyphClass: 2
Flags: MW
HStem: -250 40<22 119 22 159 22 119> 710 40<22 119 22 159>
VStem: 119 40<-210 710 710 710>
LayerCount: 2
Fore
SplineSet
159 -250 m 1
 22 -250 l 1
 22 -210 l 1
 119 -210 l 1
 119 710 l 1
 22 710 l 1
 22 750 l 1
 159 750 l 1
 159 -250 l 1
EndSplineSet
EndChar

StartChar: asciicircum
Encoding: 94 94 63
Width: 556
GlyphClass: 2
Flags: MW
HStem: 562 21G<6 6 549 549> 685 59<277 278>
VStem: -5 566<584 584>
LayerCount: 2
Fore
SplineSet
561 584 m 1
 549 562 l 1
 277 685 l 1
 6 562 l 1
 -5 584 l 1
 278 744 l 1
 561 584 l 1
EndSplineSet
EndChar

StartChar: underscore
Encoding: 95 95 64
Width: 750
GlyphClass: 2
Flags: MW
HStem: -138 26<0 750 0 750>
LayerCount: 2
Fore
SplineSet
750 -138 m 1
 0 -138 l 1
 0 -112 l 1
 750 -112 l 1
 750 -138 l 1
EndSplineSet
EndChar

StartChar: grave
Encoding: 96 96 65
Width: 500
GlyphClass: 2
Flags: MW
HStem: 510 21G<295 295> 678 20G<153 169.5>
LayerCount: 2
Fore
SplineSet
312 528 m 1
 295 510 l 1
 143 632 l 2
 134 639 126 650 126 662 c 0
 126 680 144 698 162 698 c 0
 177 698 188 687 192 681 c 2
 312 528 l 1
EndSplineSet
EndChar

StartChar: a
Encoding: 97 97 66
Width: 500
GlyphClass: 2
Flags: MW
HStem: -11 22<174.5 221.5 174.5 225> -6 31<405.5 411.5> 288 90 426 22<194 234.5>
VStem: 32 77<71 117> 316 69<140 240 240 240 261 275> 458 25<89 145>
AnchorPoint: "topright" 471 430 basechar 0
AnchorPoint: "bottom" 402 1 basechar 0
AnchorPoint: "top" 216 505 basechar 0
AnchorPoint: "below" 234 -20 basechar 0
AnchorPoint: "overlap" 236 213 basechar 0
AnchorPoint: "hook" 415 1 basechar 0
LayerCount: 2
Fore
SplineSet
483 89 m 2x7e
 483 8 422 -6 401 -6 c 0x42
 354 -6 327 36 323 76 c 1
 304 29 258 -11 192 -11 c 0x80
 129 -11 32 14 32 95 c 0
 32 139 57 191 132 225 c 0
 195 255 265 258 316 261 c 1
 316 298 l 2
 316 387 259 426 210 426 c 0
 178 426 129 415 102 380 c 1
 148 379 153 346 153 334 c 0
 153 308 135 288 107 288 c 0
 81 288 61 305 61 335 c 0
 61 401 130 448 212 448 c 0
 260 448 310 432 349 393 c 0
 385 356 385 317 385 275 c 2
 385 75 l 2
 385 70 389 25 422 25 c 0
 433 25 458 31 458 89 c 2
 458 145 l 1
 483 145 l 1
 483 89 l 2x7e
316 140 m 2
 316 240 l 1
 151 234 109 151 109 96 c 0
 109 46 150 11 199 11 c 0x8c
 244 11 316 45 316 140 c 2
EndSplineSet
Substitution2: "'smcp' Lowercase to Small Capitals lookup 14 subtable" A.sc
Substitution2: "'cv02' Character Variants 02 lookup 0 subtable" a.end
EndChar

StartChar: b
Encoding: 98 98 67
Width: 556
GlyphClass: 2
Flags: HMW
HStem: -11 22<271.5 321 271.5 357.5> 72 42 420 22<292 326.5> 652 42
VStem: 106 66<377 596 596 620.5> 106 83 438 83<198.5 237.5>
AnchorPoint: "topright" 441 490 basechar 0
AnchorPoint: "top" 139 745 basechar 0
AnchorPoint: "below" 297 -41 basechar 0
AnchorPoint: "overlap" 304 238 basechar 0
AnchorPoint: "hook" 392 13 basechar 0
LayerCount: 2
Fore
SplineSet
521 216 m 0xba
 521 87 417 -11 298 -11 c 0
 224 -11 182 39 167 62 c 1
 131 0 l 1
 106 0 l 1
 106 596 l 2
 106 645 98 652 28 652 c 1
 28 683 l 1
 172 694 l 1
 172 377 l 1
 188 395 231 442 309 442 c 0
 423 442 521 343 521 216 c 0xba
438 217 m 0
 438 258 435 315 409 356 c 0
 385 394 349 420 304 420 c 0
 280 420 225 412 186 356 c 0
 175 340 175 339 175 320 c 2
 175 114 l 2
 175 96 175 93 189 72 c 0x66
 213 35 249 11 294 11 c 0
 348 11 386 44 407 75 c 0
 436 120 438 180 438 217 c 0
EndSplineSet
Substitution2: "'smcp' Lowercase to Small Capitals lookup 14 subtable" B.sc
EndChar

StartChar: c
Encoding: 99 99 68
Width: 444
GlyphClass: 2
Flags: HMW
HStem: -11 25<231.5 276.5 231.5 316> 294 92<358 358> 423 25<225.5 256.5>
VStem: 34 83<152 278> 312 92<327 346.5>
AnchorPoint: "topright" 425 431 basechar 0
AnchorPoint: "bottom" 228 -2 basechar 0
AnchorPoint: "top" 254 505 basechar 0
AnchorPoint: "below" 250 -32 basechar 0
AnchorPoint: "overlap" 252 224 basechar 0
AnchorPoint: "hook" 373 42 basechar 0
LayerCount: 2
Fore
SplineSet
415 119 m 0
 415 109 383 -11 249 -11 c 0
 133 -11 34 88 34 216 c 0
 34 340 126 448 251 448 c 0
 328 448 404 409 404 341 c 0
 404 311 384 294 358 294 c 0
 330 294 312 314 312 340 c 0
 312 353 318 383 359 386 c 1
 324 422 261 423 252 423 c 0
 199 423 117 381 117 218 c 0
 117 57 205 14 258 14 c 0
 295 14 360 26 389 119 c 0
 391 125 393 129 402 129 c 0
 405 129 415 129 415 119 c 0
EndSplineSet
Substitution2: "'smcp' Lowercase to Small Capitals lookup 14 subtable" C.sc
EndChar

StartChar: d
Encoding: 100 100 69
Width: 556
GlyphClass: 2
Flags: HMW
HStem: -11 22<228.5 272.5 228.5 278> 0 31<492 527> 87 31 420 22<234 278.5> 652 31<305 340> 652 42
VStem: 34 83<193.5 232.5 193.5 279.5> 383 66<380 596 596 620.5>
AnchorPoint: "topright" 531 430 basechar 0
AnchorPoint: "bottom" 251 -2 basechar 0
AnchorPoint: "top" 416 745 basechar 0
AnchorPoint: "below" 251 -20 basechar 0
AnchorPoint: "overlap" 263 218 basechar 0
AnchorPoint: "hook" 440 -2 basechar 0
LayerCount: 2
Fore
SplineSet
527 0 m 1x65
 380 -11 l 1
 380 55 l 1
 355 23 310 -11 246 -11 c 0
 132 -11 34 88 34 215 c 0
 34 344 139 442 257 442 c 0
 311 442 354 416 383 380 c 1
 383 596 l 2
 383 645 375 652 305 652 c 1
 305 683 l 1x9b
 449 694 l 1
 449 87 l 2
 449 38 457 31 527 31 c 1
 527 0 l 1x65
380 118 m 2x40
 380 323 l 2
 380 341 380 343 369 360 c 0
 338 405 296 420 261 420 c 0
 207 420 169 387 148 356 c 0
 119 311 117 251 117 214 c 0
 117 173 120 116 146 75 c 0
 170 37 206 11 251 11 c 0xb2
 294 11 339 33 369 81 c 0
 380 98 380 100 380 118 c 2x40
EndSplineSet
Substitution2: "'smcp' Lowercase to Small Capitals lookup 14 subtable" D.sc
EndChar

StartChar: e
Encoding: 101 101 70
Width: 444
GlyphClass: 2
Flags: HMW
HStem: -11 25<229 259 229 309> 231 21<112 349 112 390 111 349> 426 22<219 287.5>
VStem: 28 83<213 231 213 282.5> 349 66<252 271.5>
AnchorPoint: "topright" 441 430 basechar 0
AnchorPoint: "bottom" 250 -6 basechar 0
AnchorPoint: "top" 238 505 basechar 0
AnchorPoint: "below" 251 -34 basechar 0
AnchorPoint: "overlap" 252 239 basechar 0
AnchorPoint: "hook" 368 42 basechar 0
LayerCount: 2
Fore
SplineSet
415 119 m 0
 415 100 370 -11 248 -11 c 0
 133 -11 28 86 28 220 c 0
 28 345 120 448 236 448 c 0
 361 448 415 351 415 252 c 0
 415 231 412 231 390 231 c 2
 111 231 l 1
 111 195 111 129 141 81 c 0
 164 44 204 14 254 14 c 0
 264 14 354 14 389 117 c 0
 391 125 393 131 402 131 c 0
 407 131 415 129 415 119 c 0
349 252 m 1
 349 291 339 426 236 426 c 0
 202 426 118 401 112 252 c 1
 349 252 l 1
EndSplineSet
Substitution2: "'smcp' Lowercase to Small Capitals lookup 14 subtable" E.sc
Substitution2: "'cv02' Character Variants 02 lookup 0 subtable" e.end
EndChar

StartChar: f
Encoding: 102 102 71
Width: 306
GlyphClass: 2
Flags: HMW
HStem: 0 31<34 67.5> 400 31<33 112 33 112 178 292 178 178> 591 84 683 22<245 268.5>
VStem: 112 66<76 78 78 400> 270 87<623 646.5>
AnchorPoint: "topright" 381 430 basechar 0
AnchorPoint: "top" 266 745 basechar 0
AnchorPoint: "overlap" 144 338 basechar 0
AnchorPoint: "hook" 140 10 basechar 0
LayerCount: 2
Fore
SplineSet
357 635 m 0
 357 611 342 591 313 591 c 0
 286 591 270 611 270 634 c 0
 270 659 288 672 300 676 c 1
 285 683 270 683 267 683 c 0
 223 683 175 635 175 547 c 2
 175 431 l 1
 292 431 l 1
 292 400 l 1
 178 400 l 1
 178 78 l 2
 178 42 180 31 254 31 c 2
 275 31 l 1
 275 0 l 1
 235 3 188 3 148 3 c 2
 34 0 l 1
 34 31 l 1
 101 31 112 31 112 76 c 2
 112 400 l 1
 33 400 l 1
 33 431 l 1
 112 431 l 1
 112 546 l 2
 112 652 197 705 267 705 c 0
 320 705 357 672 357 635 c 0
EndSplineSet
Substitution2: "'smcp' Lowercase to Small Capitals lookup 14 subtable" F.sc
EndChar

StartChar: g
Encoding: 103 103 72
Width: 500
GlyphClass: 2
Flags: HMW
HStem: -206 23<199.5 299 199.5 308> 7 58<162 264.5> 110 23 149 23<212.5 242 178.5 268.5> 419 23<202 233 175.5 265.5> 430 23
VStem: 159 75<66 66> 234 75 309 75<282.5 307.5>
CounterMasks: 1 0380
AnchorPoint: "topright" 521 430 basechar 0
AnchorPoint: "top" 227 505 basechar 0
AnchorPoint: "overlap" 221 274 basechar 0
LayerCount: 2
Fore
SplineSet
485 404 m 0x0780
 485 381 466 374 456 374 c 0
 440 374 427 386 427 403 c 0
 427 415 432 426 443 430 c 1x1780
 440 431 433 431 433 431 c 2
 415 431 379 426 343 392 c 1
 368 369 384 332 384 295 c 0
 384 218 315 149 222 149 c 0
 203 149 162 152 123 180 c 1
 106 160 106 137 106 133 c 0
 106 101 127 70 159 66 c 0
 166 65 209 65 234 65 c 0
 295 65 353 65 406 37 c 0
 457 9 471 -42 471 -77 c 0
 471 -155 367 -206 249 -206 c 0
 127 -206 28 -151 28 -79 c 0
 28 -39 60 4 120 21 c 1
 89 41 76 79 76 110 c 0
 76 145 94 178 107 193 c 1
 82 214 60 252 60 296 c 0
 60 373 129 442 222 442 c 0xfb80
 244 442 286 439 328 406 c 1
 370 447 414 453 434 453 c 0
 473 453 485 421 485 404 c 0x0780
309 296 m 0
 309 319 309 419 222 419 c 0xcb80
 182 419 159 391 151 379 c 0
 136 354 135 322 135 295 c 0
 135 272 135 172 222 172 c 0
 262 172 285 200 293 212 c 0
 308 237 309 269 309 296 c 0
419 -79 m 0
 419 7 307 7 221 7 c 2
 162 7 l 2
 118 4 80 -33 80 -79 c 0
 80 -132 149 -183 250 -183 c 0
 348 -183 419 -133 419 -79 c 0
EndSplineSet
Substitution2: "'smcp' Lowercase to Small Capitals lookup 14 subtable" G.sc
EndChar

StartChar: h
Encoding: 104 104 73
Width: 556
GlyphClass: 2
Flags: HMW
HStem: 0 31<32 65.5> 420 22<282 345.5> 652 31<32 67> 652 42
VStem: 110 69<76 260> 388 69<76 252 61 309 61 337.5>
AnchorPoint: "topright" 390 482 basechar 0
AnchorPoint: "bottom" 433 4 basechar 0
AnchorPoint: "top" 143 745 basechar 0
AnchorPoint: "below" 287 -20 basechar 0
AnchorPoint: "overlap" 294 362 basechar 0
AnchorPoint: "hook" 435 4 basechar 0
LayerCount: 2
Fore
SplineSet
535 0 m 1xd4
 423 3 l 1
 310 0 l 1
 310 31 l 1
 377 31 388 31 388 76 c 2
 388 309 l 2
 388 366 377 420 314 420 c 0
 250 420 179 364 179 260 c 2
 179 76 l 2
 179 31 190 31 257 31 c 1
 257 0 l 1
 145 3 l 1
 32 0 l 1
 32 31 l 1
 99 31 110 31 110 76 c 2
 110 596 l 2
 110 645 102 652 32 652 c 1
 32 683 l 1xec
 176 694 l 1
 176 346 l 1
 177 346 l 1
 193 382 237 442 321 442 c 0
 379 442 412 422 426 405 c 0
 457 369 457 338 457 252 c 2
 457 61 l 2
 458 31 483 31 535 31 c 1
 535 0 l 1xd4
EndSplineSet
Substitution2: "'smcp' Lowercase to Small Capitals lookup 14 subtable" H.sc
EndChar

StartChar: i
Encoding: 105 105 74
Width: 278
GlyphClass: 2
Flags: HMW
HStem: 0 31<33 66.5> 400 31<37 69.5> 400 42 551 106<123 154 122 155>
VStem: 85 107<591.5 616.5> 111 66<76 345 345 369.5>
AnchorPoint: "topright" 261 430 basechar 0
AnchorPoint: "bottom" 146 4 basechar 0
AnchorPoint: "top" 138 725 basechar 0
AnchorPoint: "below" 146 -22 basechar 0
AnchorPoint: "overlap" 144 323 basechar 0
AnchorPoint: "hook" 146 9 basechar 0
LayerCount: 2
Fore
SplineSet
247 0 m 1xa4
 213 1 178 3 143 3 c 2
 33 0 l 1
 33 31 l 1
 100 31 111 31 111 76 c 2
 111 345 l 2
 111 394 102 400 37 400 c 1
 37 431 l 1xc4
 177 442 l 1
 177 75 l 2
 177 36 181 31 247 31 c 1
 247 0 l 1xa4
192 604 m 0x18
 192 579 172 551 138 551 c 0
 108 551 85 577 85 604 c 0
 85 629 105 657 139 657 c 0
 169 657 192 631 192 604 c 0x18
EndSplineSet
Substitution2: "'smcp' Lowercase to Small Capitals lookup 14 subtable" I.sc
EndChar

StartChar: j
Encoding: 106 106 75
Width: 306
GlyphClass: 2
Flags: HMW
HStem: -205 22<68.5 103 68.5 110.5> -167 88 400 42 551 106<141 172 140 173>
VStem: -40 92<-138.5 -112 -138.5 -112> 103 107<591.5 616.5> 144 66<-52 -50 -50 344 344 368.5>
AnchorPoint: "topright" 271 430 basechar 0
AnchorPoint: "top" 158 725 basechar 0
AnchorPoint: "below" 111 -262 basechar 0
AnchorPoint: "overlap" 181 323 basechar 0
LayerCount: 2
Fore
SplineSet
210 -50 m 2xea
 210 -141 148 -205 73 -205 c 0
 16 -205 -40 -177 -40 -125 c 0
 -40 -99 -22 -79 6 -79 c 0
 34 -79 52 -99 52 -125 c 0
 52 -152 32 -166 17 -170 c 1
 43 -183 66 -183 71 -183 c 0
 135 -183 144 -97 144 -52 c 2
 144 344 l 2
 144 393 135 400 58 400 c 1
 58 431 l 1
 210 442 l 1
 210 -50 l 2xea
210 604 m 0x14
 210 579 190 551 156 551 c 0
 126 551 103 577 103 604 c 0
 103 629 123 657 157 657 c 0
 187 657 210 631 210 604 c 0x14
EndSplineSet
Substitution2: "'smcp' Lowercase to Small Capitals lookup 14 subtable" J.sc
EndChar

StartChar: k
Encoding: 107 107 76
Width: 528
GlyphClass: 2
Flags: HMW
HStem: 0 31<28 61.5> 400 31<306 306> 652 31<28 63> 652 42
VStem: 106 66<214 596 596 620.5> 247 66 352 66
AnchorPoint: "topright" 387 472 basechar 0
AnchorPoint: "bottom" 139 4 basechar 0
AnchorPoint: "top" 138 745 basechar 0
AnchorPoint: "below" 288 -21 basechar 0
AnchorPoint: "overlap" 254 323 basechar 0
AnchorPoint: "hook" 434 12 basechar 0
LayerCount: 2
Fore
SplineSet
511 0 m 1xde
 482 2 453 3 424 3 c 2
 316 0 l 1
 316 31 l 1
 335 31 352 35 352 54 c 0
 352 72 310 128 233 234 c 1
 169 179 l 1
 169 76 l 2
 169 31 180 31 247 31 c 1
 247 0 l 1
 137 3 l 1
 28 0 l 1
 28 31 l 1
 95 31 106 31 106 76 c 2
 106 596 l 2
 106 645 98 652 28 652 c 1
 28 683 l 1xae
 172 694 l 1
 172 214 l 1
 313 336 l 2
 321 343 335 355 335 375 c 0
 335 388 325 399 306 400 c 1
 306 431 l 1
 320 430 382 428 418 428 c 0
 446 428 459 428 488 431 c 1
 488 400 l 1
 467 399 425 397 362 346 c 0
 352 338 281 278 281 274 c 0
 281 271 286 265 287 263 c 2
 414 84 l 2
 452 31 474 31 511 31 c 1
 511 0 l 1xde
EndSplineSet
Substitution2: "'cv01' Character Variants 01 lookup 20 subtable" k.alt
Substitution2: "'smcp' Lowercase to Small Capitals lookup 14 subtable" K.sc
EndChar

StartChar: l
Encoding: 108 108 77
Width: 278
GlyphClass: 2
Flags: HMW
HStem: 0 31<33 66.5> 652 31<33 68> 652 42
VStem: 111 66<76 596 596 620.5>
AnchorPoint: "topright" 251 430 basechar 0
AnchorPoint: "top" 146 745 basechar 0
AnchorPoint: "below" 143 -20 basechar 0
AnchorPoint: "overlap" 144 323 basechar 0
AnchorPoint: "hook" 149 12 basechar 0
LayerCount: 2
Fore
SplineSet
255 0 m 1xb0
 144 3 l 1
 33 0 l 1
 33 31 l 1
 100 31 111 31 111 76 c 2
 111 596 l 2
 111 645 103 652 33 652 c 1
 33 683 l 1xd0
 177 694 l 1
 177 76 l 2
 177 31 188 31 255 31 c 1
 255 0 l 1xb0
EndSplineSet
Substitution2: "'smcp' Lowercase to Small Capitals lookup 14 subtable" L.sc
EndChar

StartChar: m
Encoding: 109 109 78
Width: 833
GlyphClass: 2
Flags: HMW
HStem: 0 31<32 65.5> 400 31<32 67> 420 22<284.5 343.5 560 623.5>
VStem: 110 69<76 260> 388 69<76 260> 666 69<76 252 61 309 61 337.5>
CounterMasks: 1 1c
AnchorPoint: "topright" 781 430 basechar 0
AnchorPoint: "top" 425 505 basechar 0
AnchorPoint: "below" 427 -23 basechar 0
AnchorPoint: "overlap" 433 331 basechar 0
AnchorPoint: "hook" 721 14 basechar 0
LayerCount: 2
Fore
SplineSet
813 0 m 1xbc
 701 3 l 1
 588 0 l 1
 588 31 l 1
 655 31 666 31 666 76 c 2
 666 309 l 2
 666 366 655 420 592 420 c 0
 528 420 457 364 457 260 c 2
 457 76 l 2
 457 31 468 31 535 31 c 1
 535 0 l 1
 423 3 l 1
 310 0 l 1
 310 31 l 1
 377 31 388 31 388 76 c 2
 388 309 l 2
 388 366 377 420 314 420 c 0xbc
 250 420 179 364 179 260 c 2
 179 76 l 2
 179 31 190 31 257 31 c 1
 257 0 l 1
 145 3 l 1
 32 0 l 1
 32 31 l 1
 99 31 110 31 110 76 c 2
 110 344 l 2
 110 393 102 400 32 400 c 1
 32 431 l 1xdc
 173 442 l 5
 173 337 l 1
 201 399 248 442 321 442 c 0
 366 442 440 431 454 344 c 1
 471 382 515 442 599 442 c 0
 657 442 690 422 704 405 c 0
 735 369 735 338 735 252 c 2
 735 61 l 2
 736 31 761 31 813 31 c 1
 813 0 l 1xbc
EndSplineSet
Substitution2: "'smcp' Lowercase to Small Capitals lookup 14 subtable" M.sc
Substitution2: "'cv02' Character Variants 02 lookup 0 subtable" m.end
EndChar

StartChar: n
Encoding: 110 110 79
Width: 556
GlyphClass: 2
Flags: HMW
HStem: 0 31<32 65.5> 400 31<32 67> 420 22<284.5 345.5>
VStem: 110 69<76 260> 388 69<76 252 61 309 61 337.5>
AnchorPoint: "topright" 511 430 basechar 0
AnchorPoint: "top" 276 505 basechar 0
AnchorPoint: "below" 288 -18 basechar 0
AnchorPoint: "overlap" 298 323 basechar 0
AnchorPoint: "hook" 433 13 basechar 0
LayerCount: 2
Fore
SplineSet
535 0 m 1xa8
 423 3 l 1
 310 0 l 1
 310 31 l 1
 377 31 388 31 388 76 c 2
 388 309 l 2
 388 366 377 420 314 420 c 0xa8
 250 420 179 364 179 260 c 2
 179 76 l 2
 179 31 190 31 257 31 c 1
 257 0 l 1
 145 3 l 1
 32 0 l 1
 32 31 l 1
 99 31 110 31 110 76 c 2
 110 344 l 2
 110 393 102 400 32 400 c 1
 32 431 l 1xd0
 173 442 l 1
 173 337 l 1
 201 399 248 442 321 442 c 0
 379 442 412 422 426 405 c 0
 457 369 457 338 457 252 c 2
 457 61 l 2
 458 31 483 31 535 31 c 1
 535 0 l 1xa8
EndSplineSet
Substitution2: "'smcp' Lowercase to Small Capitals lookup 14 subtable" N.sc
Substitution2: "'cv02' Character Variants 02 lookup 0 subtable" n.end
EndChar

StartChar: o
Encoding: 111 111 80
Width: 500
GlyphClass: 2
Flags: HMW
HStem: -11 25<228.5 275 228.5 309.5> 426 22<229 271>
VStem: 28 83<204 241.5 204 276.5> 388 83<204 241>
AnchorPoint: "topright" 461 430 basechar 0
AnchorPoint: "bottom" 250 -7 basechar 0
AnchorPoint: "top" 249 505 basechar 0
AnchorPoint: "below" 249 -32 basechar 0
AnchorPoint: "overlap" 247 323 basechar 0
LayerCount: 2
Fore
SplineSet
471 214 m 0
 471 87 370 -11 249 -11 c 0
 132 -11 28 85 28 214 c 0
 28 339 125 448 250 448 c 0
 371 448 471 342 471 214 c 0
388 222 m 0
 388 260 388 318 362 361 c 0
 336 404 293 426 249 426 c 0
 209 426 162 405 135 359 c 0
 111 315 111 261 111 222 c 0
 111 186 111 125 136 81 c 0
 163 35 207 14 250 14 c 0
 300 14 344 43 366 88 c 0
 388 132 388 186 388 222 c 0
EndSplineSet
Substitution2: "'smcp' Lowercase to Small Capitals lookup 14 subtable" O.sc
EndChar

StartChar: p
Encoding: 112 112 81
Width: 556
GlyphClass: 2
Flags: HMW
HStem: -194 31<28 61.5> -11 22<274 331 274 357.5> 400 31<28 63.5> 417 25<278.5 340.5>
VStem: 106 69<-118 50 50 59 104 114 114 337> 438 83<155.5 272.5>
AnchorPoint: "topright" 511 430 basechar 0
AnchorPoint: "top" 315 505 basechar 0
AnchorPoint: "below" 303 -220 basechar 0
AnchorPoint: "overlap" 297 323 basechar 0
AnchorPoint: "hook" 430 36 basechar 0
LayerCount: 2
Fore
SplineSet
521 216 m 0x10
 521 87 417 -11 298 -11 c 0
 222 -11 180 43 175 59 c 1
 175 50 l 1
 175 -118 l 2
 175 -163 186 -163 253 -163 c 1
 253 -194 l 1
 140 -191 l 1
 28 -194 l 1
 28 -163 l 1
 95 -163 106 -163 106 -118 c 2
 106 350 l 2
 106 394 99 400 28 400 c 1
 28 431 l 1xec
 172 442 l 1
 172 376 l 1
 192 398 234 442 312 442 c 0
 424 442 521 343 521 216 c 0x10
438 216 m 0
 438 329 377 417 304 417 c 0x14
 253 417 204 388 175 337 c 1
 175 114 l 2
 175 94 175 93 189 72 c 0
 216 31 254 11 294 11 c 0
 368 11 438 95 438 216 c 0
EndSplineSet
Substitution2: "'smcp' Lowercase to Small Capitals lookup 14 subtable" P.sc
EndChar

StartChar: q
Encoding: 113 113 82
Width: 528
GlyphClass: 2
Flags: HMW
HStem: -194 31<302 335.5> -11 22<214.5 274.5 214.5 282> 417 25<224 295 197 301>
VStem: 34 83<157.5 274.5 157.5 280> 380 69<-118 61 61 61>
AnchorPoint: "topright" 511 430 basechar 0
AnchorPoint: "top" 255 505 basechar 0
AnchorPoint: "below" 259 -212 basechar 0
AnchorPoint: "overlap" 247 323 basechar 0
LayerCount: 2
Fore
SplineSet
527 -194 m 1
 414 -191 l 1
 302 -194 l 1
 302 -163 l 1
 369 -163 380 -163 380 -118 c 2
 380 61 l 1
 358 32 317 -11 247 -11 c 0
 131 -11 34 90 34 215 c 0
 34 345 139 442 255 442 c 0
 335 442 376 379 389 351 c 1
 427 442 l 1
 449 442 l 1
 449 -118 l 2
 449 -163 460 -163 527 -163 c 1
 527 -194 l 1
383 136 m 2
 383 277 l 2
 383 330 341 417 261 417 c 0
 187 417 117 334 117 215 c 0
 117 100 178 11 251 11 c 0
 298 11 330 38 343 52 c 0
 365 76 383 104 383 136 c 2
EndSplineSet
Substitution2: "'smcp' Lowercase to Small Capitals lookup 14 subtable" Q.sc
EndChar

StartChar: r
Encoding: 114 114 83
Width: 392
GlyphClass: 2
Flags: HMW
HStem: 0 31<28 61.5> 400 31<28 63> 420 22<253.5 293.5>
VStem: 106 66<76 78 78 232> 278 86<366 393>
AnchorPoint: "topright" 391 430 basechar 0
AnchorPoint: "bottom" 142 7 basechar 0
AnchorPoint: "top" 205 505 basechar 0
AnchorPoint: "below" 141 -32 basechar 0
AnchorPoint: "overlap" 167 323 basechar 0
LayerCount: 2
Fore
SplineSet
364 381 m 0x20
 364 349 339 337 321 337 c 0
 299 337 278 352 278 380 c 0
 278 406 298 418 301 419 c 1
 299 420 297 420 290 420 c 0x28
 214 420 172 331 172 232 c 2
 172 78 l 2
 172 42 174 31 248 31 c 2
 269 31 l 1
 269 0 l 1
 229 3 182 3 142 3 c 2
 28 0 l 1
 28 31 l 1
 95 31 106 31 106 76 c 2
 106 344 l 2
 106 393 98 400 28 400 c 1
 28 431 l 1xd0
 167 442 l 1
 167 332 l 1
 181 375 217 442 290 442 c 0
 333 442 364 413 364 381 c 0x20
EndSplineSet
Substitution2: "'smcp' Lowercase to Small Capitals lookup 14 subtable" R.sc
Substitution2: "'cv02' Character Variants 02 lookup 0 subtable" r.end
EndChar

StartChar: s
Encoding: 115 115 84
Width: 394
GlyphClass: 2
Flags: HMW
HStem: -11 22<188.5 238 157 256.5> 13 19 429 19<150 200.5 132 248>
VStem: 33 48<324 353> 287 48 312 48<92 138>
AnchorPoint: "topright" 391 430 basechar 0
AnchorPoint: "bottom" 199 0 basechar 0
AnchorPoint: "top" 190 505 basechar 0
AnchorPoint: "below" 199 -24 basechar 0
AnchorPoint: "overlap" 185 323 basechar 0
AnchorPoint: "hook" 306 19 basechar 0
LayerCount: 2
Fore
SplineSet
360 128 m 0x38
 360 56 314 -11 199 -11 c 0
 178 -11 133 -10 89 32 c 1
 71 13 71 11 69 9 c 0
 50 -10 49 -11 44 -11 c 0
 33 -11 33 -4 33 13 c 2
 33 145 l 2
 33 163 33 170 46 170 c 0
 56 170 57 166 60 153 c 0
 79 68 115 11 199 11 c 0
 277 11 312 51 312 102 c 0xd4
 312 174 230 190 208 194 c 0
 136 208 108 214 76 240 c 0
 49 262 33 290 33 325 c 0
 33 381 71 448 193 448 c 0
 208 448 249 448 287 420 c 1
 291 423 301 432 304 436 c 0
 317 448 319 448 324 448 c 0
 335 448 335 441 335 424 c 2
 335 323 l 2
 335 304 335 299 322 299 c 1
 322 299 311 299 310 308 c 0
 308 339 303 429 193 429 c 0
 107 429 81 388 81 353 c 0
 81 295 148 282 204 271 c 0
 246 263 285 255 318 223 c 0
 330 211 360 181 360 128 c 0x38
EndSplineSet
Substitution2: "'hist' Historical Forms lookup 21 subtable" longs
Substitution2: "'smcp' Lowercase to Small Capitals lookup 14 subtable" S.sc
EndChar

StartChar: t
Encoding: 116 116 85
Width: 389
GlyphClass: 2
Flags: HMW
HStem: -11 25<215 258.5 206.5 268.5> 161 20G<307 332 332 332> 400 31<173 316 173 316> 595 20G<148 173 173 173>
VStem: 104 69<124 400> 148 25<615 615> 307 25<126 181>
AnchorPoint: "topright" 311 470 basechar 0
AnchorPoint: "bottom" 238 0 basechar 0
AnchorPoint: "top" 162 675 basechar 0
AnchorPoint: "below" 223 -24 basechar 0
AnchorPoint: "overlap" 147 323 basechar 0
LayerCount: 2
Fore
SplineSet
332 124 m 2xfa
 332 60 304 -11 233 -11 c 0
 197 -11 104 1 104 124 c 2
 104 400 l 1xaa
 19 400 l 1
 19 422 l 1
 117 426 147 533 148 615 c 1x34
 173 615 l 1
 173 431 l 1
 316 431 l 1
 316 400 l 1
 173 400 l 1
 173 122 l 2
 173 105 173 14 240 14 c 0
 277 14 307 52 307 126 c 2
 307 181 l 1
 332 181 l 1
 332 124 l 2xfa
EndSplineSet
Substitution2: "'smcp' Lowercase to Small Capitals lookup 14 subtable" T.sc
EndChar

StartChar: u
Encoding: 117 117 86
Width: 556
GlyphClass: 2
Flags: HMW
HStem: -11 22<225 290> 0 31<500 535> 79 31 400 31<32 71> 400 42
VStem: 110 69<158 308 308 352.5> 388 69<166 344 344 368.5>
AnchorPoint: "topright" 521 430 basechar 0
AnchorPoint: "bottom" 447 -4 basechar 0
AnchorPoint: "top" 265 505 basechar 0
AnchorPoint: "below" 281 -26 basechar 0
AnchorPoint: "overlap" 267 323 basechar 0
AnchorPoint: "hook" 457 -3 basechar 0
LayerCount: 2
Fore
SplineSet
535 0 m 1x4a
 391 -11 l 1
 391 79 l 1
 362 17 318 -11 262 -11 c 0
 110 -11 110 80 110 158 c 2
 110 308 l 2
 110 397 110 400 32 400 c 1
 32 431 l 1xb4
 179 442 l 1x0c
 179 110 l 2
 179 58 183 11 267 11 c 0
 340 11 388 79 388 166 c 2
 388 344 l 2
 388 393 380 400 310 400 c 1
 310 431 l 1xb6
 457 442 l 1
 457 87 l 2
 457 38 465 31 535 31 c 1
 535 0 l 1x4a
EndSplineSet
Substitution2: "'smcp' Lowercase to Small Capitals lookup 14 subtable" U.sc
EndChar

StartChar: v
Encoding: 118 118 87
Width: 528
GlyphClass: 2
Flags: HMW
HStem: -11 21G<257.5 270.5> 400 31<19 50.5>
VStem: 19 489<400 431 400 431>
AnchorPoint: "topright" 541 430 basechar 0
AnchorPoint: "top" 289 505 basechar 0
AnchorPoint: "below" 265 -41 basechar 0
AnchorPoint: "overlap" 277 323 basechar 0
LayerCount: 2
Fore
SplineSet
508 400 m 1
 442 399 425 356 416 333 c 2
 285 8 l 2
 281 -2 277 -11 264 -11 c 0
 251 -11 249 -6 243 8 c 2
 99 363 l 2
 86 394 82 400 19 400 c 1
 19 431 l 1
 49 429 89 428 116 428 c 2
 225 431 l 1
 225 400 l 1
 207 400 168 400 168 374 c 1
 168 374 168 370 174 357 c 2
 286 78 l 1
 388 333 l 2
 392 344 394 348 394 357 c 0
 394 376 383 399 346 400 c 1
 346 431 l 1
 346 431 433 428 433 428 c 2
 456 428 485 429 508 431 c 1
 508 400 l 1
EndSplineSet
Substitution2: "'smcp' Lowercase to Small Capitals lookup 14 subtable" V.sc
EndChar

StartChar: w
Encoding: 119 119 88
Width: 722
GlyphClass: 2
Flags: HMW
HStem: -11 21G<232.5 245.5 475.5 488.5> 354 31 400 31<18 43>
VStem: 18 685<400 431 400 431>
AnchorPoint: "topright" 741 430 basechar 0
AnchorPoint: "top" 375 505 basechar 0
AnchorPoint: "below" 367 -23 basechar 0
AnchorPoint: "overlap" 367 323 basechar 0
LayerCount: 2
Fore
SplineSet
703 400 m 1
 668 399 637 386 619 336 c 2
 502 8 l 2
 498 -2 495 -11 482 -11 c 0
 469 -11 466 -3 462 8 c 2
 360 292 l 1
 259 9 l 2
 254 -5 252 -11 239 -11 c 0
 226 -11 223 -3 218 11 c 2
 92 365 l 2
 80 397 68 400 18 400 c 1
 18 431 l 1
 111 428 l 1
 220 431 l 1
 220 400 l 1
 200 400 161 400 161 373 c 0
 161 369 161 367 166 355 c 2
 261 88 l 1
 347 330 l 1
 340 349 329 379 324 385 c 0
 314 398 298 400 261 400 c 1
 261 431 l 1
 291 429 320 428 350 428 c 2
 454 431 l 1
 454 400 l 1
 434 400 395 400 395 373 c 0
 395 368 396 366 400 354 c 2
 499 75 l 1
 590 331 l 2
 595 344 595 346 595 352 c 0
 595 381 573 399 537 400 c 1
 537 431 l 1
 537 431 630 428 630 428 c 2
 652 428 681 429 703 431 c 1
 703 400 l 1
EndSplineSet
Substitution2: "'smcp' Lowercase to Small Capitals lookup 14 subtable" W.sc
EndChar

StartChar: x
Encoding: 120 120 89
Width: 528
GlyphClass: 2
Flags: HMW
HStem: 0 31<12 22.5> 31 31 369 31 400 31<17 52>
VStem: 12 504<0 31 0 31>
AnchorPoint: "topright" 531 430 basechar 0
AnchorPoint: "bottom" 426 7 basechar 0
AnchorPoint: "top" 280 505 basechar 0
AnchorPoint: "below" 258 -18 basechar 0
AnchorPoint: "overlap" 261 229 basechar 0
AnchorPoint: "hook" 431 7 basechar 0
LayerCount: 2
Fore
SplineSet
516 0 m 1x88
 486 2 447 3 420 3 c 2
 312 0 l 1x88
 312 31 l 1
 339 32 348 47 348 56 c 0
 348 62 335 78 327 89 c 2
 251 189 l 1
 190 117 161 84 161 62 c 0x40
 161 47 168 34 190 31 c 1
 190 0 l 1
 190 0 95 3 95 3 c 2
 69 3 38 2 12 0 c 1
 12 31 l 1
 33 31 92 33 140 91 c 0
 187 148 187 150 234 210 c 1
 135 339 l 2
 88 399 87 400 17 400 c 1
 17 431 l 1
 44 429 91 428 112 428 c 2
 220 431 l 1x98
 220 400 l 1
 200 399 185 390 185 375 c 0
 185 369 185 367 194 357 c 2
 272 256 l 1
 334 334 l 2
 339 340 349 353 349 369 c 0x20
 349 385 341 398 320 400 c 1
 320 431 l 1
 333 430 386 428 416 428 c 0
 442 428 472 429 498 431 c 1
 498 400 l 1
 451 399 410 384 379 348 c 0
 355 322 317 273 287 235 c 1
 421 62 l 2x50
 444 33 462 31 516 31 c 1
 516 0 l 1x88
EndSplineSet
Substitution2: "'smcp' Lowercase to Small Capitals lookup 14 subtable" X.sc
EndChar

StartChar: y
Encoding: 121 121 90
Width: 528
GlyphClass: 2
Flags: HMW
HStem: -205 22<108.5 142.5> -165 84 -81 22 400 31<19 43>
VStem: 19 84<-131 -110 -131 -109>
AnchorPoint: "topright" 551 430 basechar 0
AnchorPoint: "top" 292 505 basechar 0
AnchorPoint: "below" 425 -82 basechar 0
AnchorPoint: "overlap" 280 323 basechar 0
LayerCount: 2
Fore
SplineSet
508 400 m 1xb8
 492 400 441 399 415 336 c 2
 239 -91 l 2
 215 -148 174 -205 111 -205 c 0
 61 -205 19 -169 19 -124 c 0
 19 -94 41 -81 61 -81 c 0
 84 -81 103 -97 103 -123 c 0
 103 -139 95 -161 64 -165 c 1xd8
 83 -183 106 -183 111 -183 c 0
 175 -183 203 -114 225 -59 c 2
 250 0 l 1
 100 365 l 2
 86 400 67 400 19 400 c 1
 19 431 l 1
 49 429 89 428 116 428 c 2
 225 431 l 1
 225 400 l 1
 206 400 169 400 169 374 c 0
 169 370 171 366 175 356 c 2
 286 87 l 1
 387 333 l 2
 392 345 393 347 393 357 c 0
 393 382 377 399 346 400 c 1
 346 431 l 1
 346 431 433 428 433 428 c 2
 456 428 485 429 508 431 c 1
 508 400 l 1xb8
EndSplineSet
Substitution2: "'smcp' Lowercase to Small Capitals lookup 14 subtable" Y.sc
EndChar

StartChar: z
Encoding: 122 122 91
Width: 444
GlyphClass: 2
Flags: HMW
HStem: 0 25<112 230 230 288> 409 22<147 202 202 316>
VStem: 28 373<7 187>
AnchorPoint: "topright" 451 430 basechar 0
AnchorPoint: "top" 235 505 basechar 0
AnchorPoint: "below" 221 -24 basechar 0
AnchorPoint: "overlap" 220 217 basechar 0
AnchorPoint: "hook" 350 11 basechar 0
LayerCount: 2
Fore
SplineSet
401 187 m 1
 384 0 l 1
 54 0 l 2
 35 0 28 0 28 14 c 0
 28 19 28 21 37 32 c 2
 316 409 l 1
 202 409 l 2
 92 409 73 372 67 270 c 1
 42 270 l 1
 53 431 l 1
 373 431 l 2
 391 431 399 431 399 418 c 0
 399 414 399 412 390 401 c 2
 112 25 l 1
 230 25 l 2
 346 25 367 69 376 187 c 1
 401 187 l 1
EndSplineSet
Substitution2: "'smcp' Lowercase to Small Capitals lookup 14 subtable" Z.sc
EndChar

StartChar: braceleft
Encoding: 123 123 92
Width: 500
GlyphClass: 2
Flags: MW
HStem: -250 21G<391.5 413> 237 24 730 20G<357 413>
VStem: 216 67<-83 56 444 563>
LayerCount: 2
Fore
SplineSet
427 -239 m 0
 427 -250 419 -250 407 -250 c 0
 376 -250 311 -242 268 -212 c 0
 216 -175 216 -141 216 -83 c 2
 216 115 l 2
 216 215 131 236 88 239 c 0
 78 240 72 240 72 250 c 0
 72 260 79 261 86 261 c 0
 149 265 176 292 190 306 c 0
 216 334 216 350 216 444 c 2
 216 627 l 2
 218 699 307 750 407 750 c 0
 419 750 427 750 427 739 c 0
 427 733 423 729 418 728 c 0
 348 724 325 700 307 682 c 0
 283 657 283 635 283 563 c 2
 283 383 l 2
 283 355 283 284 165 250 c 1
 204 239 268 213 281 147 c 0
 283 137 283 86 283 56 c 2
 283 -94 l 2
 283 -129 283 -131 286 -142 c 0
 295 -178 332 -223 411 -228 c 0
 421 -229 427 -229 427 -239 c 0
EndSplineSet
EndChar

StartChar: bar
Encoding: 124 124 93
Width: 278
GlyphClass: 2
Flags: MW
HStem: -250 21G<129 149> 730 20G<129 149>
VStem: 119 40<-217 717>
LayerCount: 2
Fore
SplineSet
159 -217 m 2
 159 -231 159 -250 139 -250 c 0
 119 -250 119 -231 119 -217 c 2
 119 717 l 2
 119 731 119 750 139 750 c 0
 159 750 159 731 159 717 c 2
 159 -217 l 2
EndSplineSet
EndChar

StartChar: braceright
Encoding: 125 125 94
Width: 500
GlyphClass: 2
Flags: MW
HStem: -250 21G<87 142> 239 21G<413 416.5> 730 20G<87 108>
VStem: 216 67<-63 56 -127 117 -127 131 444 583>
LayerCount: 2
Fore
SplineSet
427 250 m 0
 427 240 420 239 413 239 c 0
 350 235 323 208 309 194 c 0
 283 166 283 150 283 56 c 2
 283 -127 l 2
 281 -199 192 -250 92 -250 c 0
 82 -250 72 -250 72 -239 c 0
 72 -233 76 -229 81 -228 c 0
 151 -224 174 -200 192 -182 c 0
 216 -157 216 -135 216 -63 c 2
 216 117 l 2
 216 145 216 216 334 250 c 1
 295 261 231 287 218 353 c 0
 216 363 216 414 216 444 c 2
 216 594 l 2
 216 629 216 631 213 642 c 0
 204 678 167 723 88 728 c 0
 78 729 72 729 72 739 c 0
 72 750 82 750 92 750 c 0
 124 750 188 741 231 712 c 0
 283 675 283 641 283 583 c 2
 283 385 l 2
 283 285 368 264 411 261 c 0
 421 260 427 260 427 250 c 0
EndSplineSet
EndChar

StartChar: asciitilde
Encoding: 126 126 95
Width: 556
GlyphClass: 2
Flags: MW
HStem: 193 43<368 383.5> 211 43 246 43 264 43<171.5 187>
LayerCount: 2
Fore
SplineSet
555 290 m 1x90
 501 246 l 2x20
 484 232 464 221 444 211 c 0x40
 422 201 396 193 371 193 c 0
 331 193 300 210 271 227 c 0
 236 247 207 264 167 264 c 0
 116 264 63 234 14 193 c 1x90
 0 210 l 1
 54 254 l 2x40
 71 268 91 279 111 289 c 0x20
 133 299 159 307 184 307 c 0
 224 307 255 290 284 273 c 0
 319 253 348 236 388 236 c 0
 439 236 492 266 541 307 c 1
 555 290 l 1x90
EndSplineSet
EndChar

StartChar: exclamdown
Encoding: 161 161 97
Width: 278
GlyphClass: 3
Flags: MW
HStem: -216 21G<126 152> 293 20G<134 145> 394 106<124.5 153.5>
VStem: 86 106<-181.5 -165 432.5 461.5>
LayerCount: 2
Fore
SplineSet
192 447 m 0
 192 418 168 394 139 394 c 0
 110 394 86 418 86 447 c 0
 86 476 110 500 139 500 c 0
 168 500 192 476 192 447 c 0
192 -165 m 2
 192 -198 165 -216 139 -216 c 0
 113 -216 86 -198 86 -165 c 2
 125 291 l 2
 126 308 129 313 139 313 c 0
 151 313 152 305 153 290 c 2
 191 -154 l 1
 192 -165 l 2
EndSplineSet
Ligature2: "'liga' Standard Ligatures lookup 9 subtable" exclam quoteleft
Ligature2: "'liga' Standard Ligatures lookup 9 subtable" exclam grave
Ligature2: "'dlig' Discretionary Ligatures lookup 10 subtable" exclam quoteleft
Ligature2: "'dlig' Discretionary Ligatures lookup 10 subtable" exclam grave
EndChar

StartChar: cent
Encoding: 162 162 98
Width: 444
GlyphClass: 2
Flags: MW
HStem: -11 25<259 278> 294 92<358 358> 423 25<259 259>
VStem: 34 83<155.5 274.5> 229 30<-30 -11 -34 -10 -34 -10 18 421 421 421 448 461> 312 92<327 346.5> 359 30
LayerCount: 2
Fore
SplineSet
415 119 m 0xea
 415 109 385 -5 259 -11 c 1
 259 -30 l 2
 259 -38 253 -45 244 -45 c 0
 236 -45 229 -38 229 -30 c 2
 229 -10 l 1
 122 0 34 95 34 216 c 0
 34 333 116 435 229 447 c 1
 229 461 l 2
 229 469 236 476 244 476 c 0
 253 476 259 469 259 461 c 2
 259 448 l 1
 333 445 404 407 404 341 c 0
 404 311 384 294 358 294 c 0
 330 294 312 314 312 340 c 0xfc
 312 353 318 383 359 386 c 1
 329 417 279 422 259 423 c 1
 259 14 l 1
 297 14 360 27 389 119 c 0
 391 125 393 129 402 129 c 0
 405 129 415 129 415 119 c 0xea
229 18 m 1
 229 421 l 1
 179 410 117 359 117 218 c 0
 117 84 178 31 229 18 c 1
EndSplineSet
Substitution2: "'onum' Oldstyle Figures lookup 5 subtable" cent.oldstyle
Substitution2: "'aalt' Access All Alternates lookup 1 subtable" cent.oldstyle
EndChar

StartChar: sterling
Encoding: 163 163 99
Width: 750
GlyphClass: 2
Flags: MW
HStem: -35 39 -22 26<142 199.5 142 210.5> -22 39
VStem: 62 26<61 108.5 61 115.5> 263 70<418.5 485 418.5 495> 662 26<109.5 144>
CounterMasks: 1 e0
LayerCount: 2
Fore
SplineSet
688 144 m 1x3c
 688 56 659 -35 583 -35 c 0x9c
 497 -35 435 29 370 83 c 1
 358 7 258 -22 163 -22 c 0x5c
 106 -22 62 25 62 82 c 0
 62 149 133 187 206 187 c 0
 242 187 273 175 302 157 c 1
 297 214 283 270 274 327 c 1
 119 327 l 1
 119 357 l 1
 269 357 l 1
 266 381 263 406 263 431 c 0
 263 559 332 683 449 683 c 0
 538 683 613 617 613 531 c 0
 613 506 592 485 567 485 c 0
 542 485 521 506 521 531 c 0
 521 556 542 577 567 577 c 0
 571 577 575 576 578 576 c 1
 558 624 507 657 449 657 c 0
 356 657 333 539 333 431 c 0
 333 406 335 381 338 357 c 1
 494 357 l 1
 494 327 l 1
 342 327 l 1
 353 253 371 179 371 104 c 1
 423 61 475 17 542 17 c 0
 610 17 662 75 662 144 c 1
 688 144 l 1x3c
304 115 m 2
 303 132 l 1
 274 149 242 161 206 161 c 0
 147 161 88 135 88 82 c 0
 88 40 121 4 163 4 c 0x5c
 236 4 304 48 304 115 c 2
EndSplineSet
EndChar

StartChar: currency
Encoding: 164 164 100
Width: 778
GlyphClass: 2
Flags: MW
HStem: 54 40<365.5 412.5> 406 40<365.5 412.5 365.5 432> 446 40
VStem: 153 40 193 40<226.5 273.5> 544 40<226.5 273.5 226.5 293> 584 40
LayerCount: 2
Fore
SplineSet
624 15 m 0xb2
 610 1 597 14 587 24 c 2
 512 98 l 1
 479 71 436 54 389 54 c 0
 342 54 299 71 265 98 c 1
 191 24 l 2
 181 14 168 1 153 15 c 0
 139 29 153 42 163 52 c 2
 237 127 l 1
 210 160 193 203 193 250 c 0
 193 297 210 340 237 374 c 1
 163 448 l 2
 153 458 139 472 153 486 c 0
 168 500 181 487 191 477 c 2
 266 402 l 1
 299 429 342 446 389 446 c 0
 436 446 478 429 512 402 c 1
 586 476 l 2
 596 486 609 499 624 485 c 0
 638 471 624 458 614 448 c 2
 540 374 l 1
 568 340 584 297 584 250 c 0
 584 203 568 160 541 127 c 1
 615 52 l 2
 625 42 638 29 624 15 c 0xb2
544 250 m 0
 544 336 475 406 389 406 c 0
 303 406 233 336 233 250 c 0x4c
 233 164 303 94 389 94 c 0
 475 94 544 164 544 250 c 0
EndSplineSet
EndChar

StartChar: yen
Encoding: 165 165 101
Width: 750
GlyphClass: 2
Flags: MW
HStem: 0 31<228 252> 161 30<150 331 150 331 417 600> 309 30<150 290 150 309 150 290 458 600> 583 30 652 31<11 29 11 11>
VStem: 331 86<78 80 80 161 60.5 161 191 273> 439 86
LayerCount: 2
Fore
SplineSet
738 652 m 1
 706 652 647 648 610 587 c 2
 458 339 l 1
 600 339 l 1
 600 309 l 1
 439 309 l 1
 417 273 l 1
 417 191 l 1
 600 191 l 1
 600 161 l 1
 417 161 l 1
 417 80 l 2
 417 41 420 31 497 31 c 2
 520 31 l 1
 520 0 l 1
 484 3 413 3 374 3 c 0
 335 3 264 3 228 0 c 1
 228 31 l 1
 252 31 l 2
 329 31 331 42 331 78 c 2
 331 161 l 1
 150 161 l 1
 150 191 l 1
 331 191 l 1
 331 273 l 1
 309 309 l 1
 150 309 l 1
 150 339 l 1
 290 339 l 1
 121 615 l 2
 105 641 97 652 29 652 c 2
 11 652 l 1
 11 683 l 1
 11 683 141 680 141 680 c 2
 180 680 253 680 289 683 c 1
 289 652 l 1
 244 652 219 648 219 627 c 0
 219 622 219 620 226 610 c 2
 392 339 l 1
 422 339 l 1
 572 583 l 2
 576 589 582 602 582 613 c 0
 582 633 566 652 525 652 c 1
 525 683 l 1
 525 683 640 680 640 680 c 2
 667 680 707 681 738 683 c 1
 738 652 l 1
EndSplineSet
EndChar

StartChar: brokenbar
Encoding: 166 166 102
Width: 278
GlyphClass: 2
Flags: MW
HStem: -250 21G<129 149> 730 20G<129 149>
VStem: 119 40<-217 157 343 717>
LayerCount: 2
Fore
SplineSet
159 343 m 2
 159 334 149 328 139 328 c 0
 129 328 119 334 119 343 c 2
 119 717 l 2
 119 731 119 750 139 750 c 0
 159 750 159 731 159 717 c 2
 159 343 l 2
159 -217 m 2
 159 -231 159 -250 139 -250 c 0
 119 -250 119 -231 119 -217 c 2
 119 157 l 2
 119 166 129 172 139 172 c 0
 149 172 159 166 159 157 c 2
 159 -217 l 2
EndSplineSet
EndChar

StartChar: section
Encoding: 167 167 103
Width: 484
GlyphClass: 2
Flags: MW
HStem: -215 46<213.5 273.5 213.5 288.5> 669 46<210.5 270.5>
VStem: 37 78<281 323 281 331> 77 60<517.5 573 512 587> 94 92<-41.5 -16.5 -41.5 -16.5> 298 92<516.5 541.5> 347 60<-73 -17.5 -87 -12> 369 78<176.5 219>
LayerCount: 2
Fore
SplineSet
447 194 m 0x54
 447 143 411 105 366 77 c 1
 392 44 407 4 407 -39 c 0
 407 -135 335 -215 242 -215 c 0
 152 -215 94 -126 94 -29 c 0
 94 -4 115 17 140 17 c 0
 165 17 186 -4 186 -29 c 0x8a
 186 -54 165 -75 140 -75 c 0
 135 -75 130 -74 126 -73 c 1
 142 -127 185 -169 242 -169 c 0
 305 -169 347 -107 347 -39 c 0
 347 15 303 56 254 83 c 2
 165 133 l 2
 97 171 37 229 37 306 c 0xa2
 37 356 73 395 118 422 c 1
 92 456 77 496 77 539 c 0
 77 635 149 715 242 715 c 0
 332 715 390 626 390 529 c 0
 390 504 369 483 344 483 c 0
 319 483 298 504 298 529 c 0
 298 554 319 575 344 575 c 0
 349 575 354 574 358 573 c 1
 342 627 299 669 242 669 c 0
 179 669 137 607 137 539 c 0
 137 485 181 444 230 417 c 2
 319 367 l 2
 387 329 447 271 447 194 c 0x54
369 194 m 0
 369 244 329 281 285 306 c 2
 196 356 l 2
 174 368 154 383 137 400 c 1x11
 118 377 115 340 115 306 c 0
 115 256 155 219 199 194 c 2
 288 144 l 2
 310 131 330 116 347 99 c 1x22
 366 123 369 159 369 194 c 0
EndSplineSet
EndChar

StartChar: dieresis
Encoding: 168 168 104
Width: 500
GlyphClass: 2
Flags: MW
HStem: 557 95<147.5 175.5 146.5 176.5 325.5 353.5>
VStem: 113 97<593.5 616> 291 97<593.5 616>
AnchorPoint: "mkmk" 267 511 mark 0
AnchorPoint: "mkmk" 265 720 basemark 0
AnchorPoint: "top" 267 553 mark 0
LayerCount: 2
Fore
SplineSet
210 605 m 0
 210 582 192 557 161 557 c 0
 134 557 113 580 113 605 c 0
 113 627 131 652 162 652 c 0
 189 652 210 629 210 605 c 0
388 605 m 0
 388 582 370 557 339 557 c 0
 312 557 291 580 291 605 c 0
 291 627 309 652 340 652 c 0
 367 652 388 629 388 605 c 0
EndSplineSet
EndChar

StartChar: copyright
Encoding: 169 169 105
Width: 683
GlyphClass: 2
Flags: MW
HStem: 0 40<258.5 425 258.5 436> 495 40<447 475> 643 40<258.5 425>
VStem: 0 40<258.5 425 258.5 436> 643 40<258.5 425>
LayerCount: 2
Fore
SplineSet
683 342 m 0
 683 153 530 0 342 0 c 0
 153 0 0 153 0 342 c 0
 0 530 153 683 342 683 c 0
 530 683 683 530 683 342 c 0
643 342 m 0
 643 508 508 643 342 643 c 0
 175 643 40 508 40 342 c 0
 40 175 175 40 342 40 c 0
 508 40 643 175 643 342 c 0
489 282 m 0
 489 218 435 141 346 141 c 0
 243 141 154 228 154 342 c 0
 154 454 243 542 346 542 c 0
 398 542 427 514 447 495 c 1
 475 535 l 2
 479 542 481 542 483 542 c 0
 489 542 489 538 489 529 c 2
 489 398 l 2
 489 387 489 385 481 385 c 0
 473 385 473 387 472 394 c 0
 461 475 412 525 352 525 c 0
 318 525 211 506 211 341 c 0
 211 177 319 159 352 159 c 0
 412 159 471 204 476 282 c 0
 476 288 476 291 482 291 c 0
 489 291 489 287 489 282 c 0
EndSplineSet
EndChar

StartChar: ordfeminine
Encoding: 170 170 106
Width: 449
GlyphClass: 2
Flags: W
LayerCount: 2
Fore
SplineSet
414 454 m 2
 414 397 363 388 345 388 c 0
 306 388 283 417 280 445 c 1
 264 412 225 384 170 384 c 0
 117 384 35 402 35 458 c 0
 35 489 56 525 119 549 c 0
 172 570 231 572 274 574 c 1
 274 600 l 2
 274 663 226 690 185 690 c 0
 158 690 117 682 94 658 c 1
 133 657 137 634 137 626 c 0
 137 607 122 593 98 593 c 0
 76 593 60 605 60 626 c 0
 60 672 118 705 186 705 c 0
 227 705 269 694 302 667 c 0
 332 641 332 614 332 584 c 2
 332 444 l 2
 332 441 335 409 363 409 c 0
 372 409 393 413 393 454 c 2
 393 493 l 1
 414 493 l 1
 414 454 l 2
399 344 m 0
 399 338 392 333 384 333 c 2
 65 333 l 2
 57 333 50 338 50 344 c 0
 50 349 57 354 65 354 c 2
 384 354 l 2
 392 354 399 349 399 344 c 0
274 490 m 2
 274 560 l 1
 135 556 100 497 100 459 c 0
 100 424 134 399 176 399 c 0
 213 399 274 423 274 490 c 2
EndSplineSet
EndChar

StartChar: guillemotleft
Encoding: 171 171 107
Width: 556
GlyphClass: 2
Flags: MW
HStem: 0 21G<263 265 265 267 430 432 432 434> 463 20G<265 267 267 270 432 434 434 437>
LayerCount: 2
Fore
SplineSet
277 10 m 2
 277 4 273 0 267 0 c 2
 265 0 l 2
 261 0 257 3 256 7 c 0
 226 92 178 170 114 235 c 0
 112 236 111 239 111 242 c 0
 111 244 112 247 114 249 c 0
 178 313 226 391 256 477 c 0
 257 481 261 483 265 483 c 2
 267 483 l 2
 273 483 277 479 277 473 c 2
 277 471 l 1
 258 390 226 313 183 242 c 1
 226 171 258 93 277 12 c 1
 277 10 l 2
444 10 m 2
 444 4 440 0 434 0 c 2
 432 0 l 2
 428 0 424 3 423 7 c 0
 393 92 345 170 281 235 c 0
 279 236 278 239 278 242 c 0
 278 244 279 247 281 249 c 0
 345 313 393 391 423 477 c 0
 424 481 428 483 432 483 c 2
 434 483 l 2
 440 483 444 479 444 473 c 2
 444 471 l 1
 425 390 393 313 350 242 c 1
 393 171 425 93 444 12 c 1
 444 10 l 2
EndSplineSet
Substitution2: "'cv04' Character Variants 04 in Greek lookup 24-1" guillemotleft.gr
Substitution2: "'cv03' Character Variants 03 in Cyrillic lookup 23-1" guillemotleft.cyr
EndChar

StartChar: logicalnot
Encoding: 172 172 108
Width: 778
GlyphClass: 2
Flags: MW
HStem: 327 40<70.5 701 76 681>
VStem: 681 40<153 327 327 327>
LayerCount: 2
Fore
SplineSet
721 153 m 2
 721 142 712 133 701 133 c 0
 690 133 681 142 681 153 c 2
 681 327 l 1
 76 327 l 2
 65 327 56 336 56 347 c 0
 56 358 65 367 76 367 c 2
 701 367 l 2
 712 367 721 358 721 347 c 2
 721 153 l 2
EndSplineSet
EndChar

StartChar: uni00AD
Encoding: 173 173 109
Width: 333
GlyphClass: 2
Flags: MW
HStem: 187 58<11 276 11 276>
VStem: 11 265<187 245 187 245>
LayerCount: 2
Fore
SplineSet
276 187 m 1
 11 187 l 1
 11 245 l 1
 276 245 l 1
 276 187 l 1
EndSplineSet
EndChar

StartChar: registered
Encoding: 174 174 110
Width: 683
GlyphClass: 2
Flags: MW
HStem: 0 40<258.5 425 258.5 436> 177 40 209 40 283 40 643 40<258.5 425>
VStem: 0 40<258.5 425 258.5 436> 221 48<203 342 354 493 493 497> 385 40 404 48<231.5 283> 643 40<258.5 425>
LayerCount: 2
Fore
SplineSet
683 342 m 0xcc40
 683 153 530 0 342 0 c 0
 153 0 0 153 0 342 c 0
 0 530 153 683 342 683 c 0
 530 683 683 530 683 342 c 0xcc40
643 342 m 0
 643 508 508 643 342 643 c 0
 175 643 40 508 40 342 c 0
 40 175 175 40 342 40 c 0
 508 40 643 175 643 342 c 0
549 208 m 0
 549 193 539 147 496 147 c 0
 480 147 449 151 427 171 c 0
 404 192 404 214 404 249 c 0x2280
 404 286 404 303 383 323 c 0
 364 342 341 342 332 342 c 2
 269 342 l 1
 269 203 l 2
 269 183 270 177 312 177 c 2
 326 177 l 1
 326 160 l 1
 326 160 245 161 245 161 c 1
 245 161 165 160 165 160 c 1
 165 177 l 1
 178 177 l 2
 220 177 221 183 221 203 c 2
 221 493 l 2
 221 513 220 519 178 519 c 2
 165 519 l 1
 165 536 l 1
 338 536 l 2
 419 536 481 490 481 437 c 0
 481 394 438 360 385 347 c 1x53
 415 336 442 318 452 283 c 1
 459 239 l 2
 467 188 472 160 498 160 c 0
 512 160 532 170 535 209 c 0x3080
 535 212 535 217 541 217 c 0
 549 217 549 211 549 208 c 0
425 437 m 0
 425 517 363 519 313 519 c 0
 302 519 286 519 281 518 c 0
 269 516 269 509 269 497 c 2
 269 354 l 1
 330 354 l 2
 411 354 425 399 425 437 c 0
EndSplineSet
EndChar

StartChar: macron
Encoding: 175 175 111
Width: 500
GlyphClass: 2
Flags: MW
HStem: 589 31<70 431 70 431>
AnchorPoint: "mkmk" 262 694 basemark 0
AnchorPoint: "mkmk" 271 517 mark 0
AnchorPoint: "top" 271 515 mark 0
LayerCount: 2
Fore
SplineSet
431 589 m 1
 70 589 l 1
 70 620 l 1
 431 620 l 1
 431 589 l 1
EndSplineSet
EndChar

StartChar: degree
Encoding: 176 176 112
Width: 375
GlyphClass: 2
Flags: MW
HStem: 406 40<160.5 215 160.5 226> 643 40<160.5 215>
VStem: 49 40<517 571.5 517 582.5> 286 40<517 571.5>
LayerCount: 2
Fore
SplineSet
326 544 m 0
 326 468 264 406 188 406 c 0
 111 406 49 468 49 544 c 0
 49 621 111 683 188 683 c 0
 264 683 326 621 326 544 c 0
286 544 m 0
 286 599 242 643 188 643 c 0
 133 643 89 599 89 544 c 0
 89 490 133 446 188 446 c 0
 242 446 286 490 286 544 c 0
EndSplineSet
EndChar

StartChar: plusminus
Encoding: 177 177 113
Width: 778
GlyphClass: 2
Flags: MW
HStem: 0 40<82 369 89 369 409 688> 313 40<82 369 89 369 409 688> 646 20G<379 399>
VStem: 369 40<40 313 40 313 353 633>
LayerCount: 2
Fore
SplineSet
721 20 m 0
 721 0 702 0 688 0 c 2
 89 0 l 2
 75 0 56 0 56 20 c 0
 56 40 75 40 89 40 c 2
 369 40 l 1
 369 313 l 1
 89 313 l 2
 75 313 56 313 56 333 c 0
 56 353 75 353 89 353 c 2
 369 353 l 1
 369 633 l 2
 369 647 369 666 389 666 c 0
 409 666 409 647 409 633 c 2
 409 353 l 1
 688 353 l 2
 702 353 721 353 721 333 c 0
 721 313 702 313 688 313 c 2
 409 313 l 1
 409 40 l 1
 688 40 l 2
 702 40 721 40 721 20 c 0
EndSplineSet
EndChar

StartChar: two.superior
Encoding: 178 178 114
Width: 359
GlyphClass: 2
Flags: W
LayerCount: 2
Fore
SplineSet
323 410 m 1
 303 306 l 1
 36 306 l 1
 36 320 36 321 44 328 c 2
 182 456 l 2
 222 494 258 541 258 589 c 0
 258 638 227 687 161 687 c 0
 120 687 81 665 64 626 c 1
 73 626 l 2
 99 626 112 611 112 595 c 0
 112 570 86 563 74 563 c 0
 72 563 36 563 36 597 c 0
 36 650 89 705 171 705 c 0
 258 705 323 657 323 589 c 0
 323 529 280 497 168 414 c 1
 91 352 l 1
 221 352 l 2
 237 352 284 352 289 357 c 0
 297 366 302 392 305 410 c 1
 323 410 l 1
EndSplineSet
EndChar

StartChar: three.superior
Encoding: 179 179 115
Width: 359
GlyphClass: 2
Flags: W
LayerCount: 2
Fore
SplineSet
329 408 m 0
 329 347 264 293 176 293 c 0
 97 293 30 332 30 387 c 0
 30 413 53 422 71 422 c 0
 91 422 111 410 111 388 c 0
 111 365 89 352 63 355 c 1
 89 320 143 309 174 309 c 0
 205 309 255 327 255 408 c 0
 255 467 228 508 169 508 c 2
 138 508 l 2
 125 508 120 508 120 515 c 0
 120 521 125 521 131 522 c 0
 136 522 153 523 159 524 c 0
 177 524 202 526 223 555 c 0
 242 581 243 616 243 623 c 0
 243 677 204 690 174 690 c 0
 148 690 101 683 78 653 c 1
 89 653 123 653 123 623 c 0
 123 606 109 593 86 593 c 0
 66 593 50 604 50 624 c 0
 50 669 104 705 177 705 c 0
 246 705 310 672 310 623 c 0
 310 575 268 533 209 517 c 1
 284 504 329 458 329 408 c 0
EndSplineSet
EndChar

StartChar: acute
Encoding: 180 180 116
Width: 500
GlyphClass: 2
Flags: MW
HStem: 510 21G<205 205> 678 20G<330.5 347>
LayerCount: 2
Fore
SplineSet
374 662 m 0
 374 650 366 639 357 632 c 2
 205 510 l 1
 188 528 l 1
 308 681 l 2
 312 687 323 698 338 698 c 0
 356 698 374 680 374 662 c 0
EndSplineSet
EndChar

StartChar: uni00B5
Encoding: 181 181 117
Width: 556
GlyphClass: 2
Flags: MW
HStem: -194 31<32 66.5> -11 22<242 288.5> 399 42
VStem: 110 70<-116 2 85 111 111 341 341 366.5> 386 70<167 341 341 366.5>
LayerCount: 2
Fore
SplineSet
534 0 m 1
 389 -11 l 1
 389 75 l 1
 388 75 l 1
 360 16 316 -11 261 -11 c 0
 223 -11 195 -4 180 2 c 1
 180 -116 l 2
 180 -163 189 -163 258 -163 c 1
 258 -194 l 1
 145 -191 l 1
 32 -194 l 1
 32 -163 l 1
 101 -163 110 -163 110 -116 c 2
 110 341 l 2
 110 392 103 399 32 399 c 1
 32 430 l 1
 180 441 l 1
 180 111 l 2
 180 59 183 11 266 11 c 0
 340 11 386 79 386 167 c 2
 386 341 l 2
 386 392 379 399 308 399 c 1
 308 430 l 1
 456 441 l 1
 456 89 l 2
 456 38 463 31 534 31 c 1
 534 0 l 1
EndSplineSet
EndChar

StartChar: paragraph
Encoding: 182 182 118
Width: 611
GlyphClass: 2
Flags: MW
HStem: -194 21G<359 379 469 489> 654 40<389 459 389 389 499 549 499 499>
VStem: 349 40<-161 230 230 230> 459 40<-161 654>
LayerCount: 2
Fore
SplineSet
582 674 m 0
 582 654 563 654 549 654 c 2
 499 654 l 1
 499 -161 l 2
 499 -175 499 -194 479 -194 c 0
 459 -194 459 -175 459 -161 c 2
 459 654 l 1
 389 654 l 1
 389 -161 l 2
 389 -175 389 -194 369 -194 c 0
 349 -194 349 -175 349 -161 c 2
 349 230 l 1
 221 235 56 306 56 463 c 0
 56 589 166 694 306 694 c 2
 549 694 l 2
 563 694 582 694 582 674 c 0
EndSplineSet
EndChar

StartChar: periodcentered
Encoding: 183 183 119
Width: 778
GlyphClass: 2
Flags: MW
HStem: 289 106<374.5 403.5>
VStem: 336 106<327.5 356.5>
AnchorPoint: "topright" 294 342 basechar 0
LayerCount: 2
Fore
SplineSet
442 342 m 0
 442 313 418 289 389 289 c 0
 360 289 336 313 336 342 c 0
 336 371 360 395 389 395 c 0
 418 395 442 371 442 342 c 0
EndSplineSet
EndChar

StartChar: cedilla
Encoding: 184 184 120
Width: 444
GlyphClass: 2
Flags: MW
HStem: -200 26<89 102 102 115 89 102> -92 26
VStem: 196 52<-66 5 -66 5 -66 5> 272 84<-153.5 -117>
AnchorPoint: "bottom" 236 4 mark 0
LayerCount: 2
Fore
SplineSet
356 -133 m 0
 356 -200 223 -200 115 -200 c 2
 89 -200 l 1
 89 -174 l 1
 102 -174 l 2
 177 -174 272 -174 272 -133 c 0
 272 -101 233 -92 196 -92 c 1
 196 5 l 1
 248 5 l 1
 248 -66 l 1
 302 -66 356 -86 356 -133 c 0
EndSplineSet
EndChar

StartChar: one.superior
Encoding: 185 185 121
Width: 366
GlyphClass: 2
Flags: MW
HStem: 306 18<68 91> 648 19<64 71> 690 15<195 212>
LayerCount: 2
Fore
SplineSet
302 306 m 1
 276 308 214 308 185 308 c 0
 156 308 94 308 68 306 c 1
 68 324 l 1
 91 324 l 2
 156 324 158 332 158 353 c 2
 158 664 l 1
 121 648 78 648 64 648 c 1
 64 667 l 1
 87 667 150 667 195 705 c 1
 212 705 212 704 212 690 c 2
 212 353 l 2
 212 331 214 324 279 324 c 2
 302 324 l 1
 302 306 l 1
EndSplineSet
EndChar

StartChar: ordmasculine
Encoding: 186 186 122
Width: 419
GlyphClass: 2
Flags: W
LayerCount: 2
Fore
SplineSet
396 542 m 0
 396 453 311 384 209 384 c 0
 111 384 24 451 24 542 c 0
 24 629 105 705 210 705 c 0
 312 705 396 631 396 542 c 0
381 344 m 0
 381 338 374 333 366 333 c 2
 54 333 l 2
 45 333 39 338 39 344 c 0
 39 349 45 354 54 354 c 2
 366 354 l 2
 374 354 381 349 381 344 c 0
326 547 m 0
 326 574 326 614 304 644 c 0
 282 675 246 690 209 690 c 0
 176 690 136 675 113 643 c 0
 93 612 93 574 93 547 c 0
 93 522 93 479 114 448 c 0
 137 416 174 402 210 402 c 0
 252 402 289 422 307 453 c 0
 326 484 326 522 326 547 c 0
EndSplineSet
EndChar

StartChar: guillemotright
Encoding: 187 187 123
Width: 556
GlyphClass: 2
Flags: MW
HStem: 0 21G<119 122 122 124 286 289 289 291> 463 20G<122 124 124 126 289 291 291 293>
LayerCount: 2
Fore
SplineSet
445 242 m 0
 445 239 443 236 442 235 c 0
 378 170 330 92 300 7 c 0
 299 3 295 0 291 0 c 2
 289 0 l 2
 283 0 279 4 279 10 c 2
 279 12 l 1
 297 93 329 171 373 242 c 1
 329 313 297 390 279 471 c 1
 279 473 l 2
 279 479 283 483 289 483 c 2
 291 483 l 2
 295 483 299 481 300 477 c 0
 330 391 378 313 442 249 c 0
 443 247 445 244 445 242 c 0
278 242 m 0
 278 239 276 236 275 235 c 0
 211 170 163 92 133 7 c 0
 132 3 128 0 124 0 c 2
 122 0 l 2
 116 0 112 4 112 10 c 2
 112 12 l 1
 130 93 162 171 206 242 c 1
 162 313 130 390 112 471 c 1
 112 473 l 2
 112 479 116 483 122 483 c 2
 124 483 l 2
 128 483 132 481 133 477 c 0
 163 391 211 313 275 249 c 0
 276 247 278 244 278 242 c 0
EndSplineSet
Substitution2: "'cv04' Character Variants 04 in Greek lookup 24-1" guillemotright.gr
Substitution2: "'cv03' Character Variants 03 in Cyrillic lookup 23-1" guillemotright.cyr
EndChar

StartChar: onequarter
Encoding: 188 188 124
Width: 825
GlyphClass: 3
Flags: MW
HStem: 0 19<564 579> 2 17 2 18 99 19<462 634 442 442 689 761> 306 18<68 91> 324 17 391 15<674 689> 648 15 648 19<64 71> 664 19 690 15<195 212>
VStem: 638 51<118 341 341 341>
LayerCount: 2
Fore
SplineSet
302 306 m 1x04a0
 276 308 214 308 185 308 c 0x04a0
 156 308 94 308 68 306 c 1x5a10
 68 324 l 1
 91 324 l 2
 156 324 158 332 158 353 c 2
 158 664 l 1x0440
 121 648 78 648 64 648 c 1
 64 667 l 1
 87 667 150 667 195 705 c 1
 212 705 212 704 212 690 c 2
 212 353 l 2
 212 331 214 324 279 324 c 2
 302 324 l 1
 302 306 l 1x04a0
761 99 m 1
 689 99 l 1
 689 47 l 2
 689 25 690 19 744 19 c 2
 759 19 l 1
 759 0 l 1
 729 2 691 2 661 2 c 0x9050
 631 2 593 2 564 0 c 1x80
 564 19 l 1
 579 19 l 2
 632 19 634 25 634 47 c 2
 634 99 l 1
 442 99 l 1
 442 118 l 1
 663 399 l 2
 669 406 671 406 677 406 c 0
 689 406 689 403 689 391 c 2
 689 118 l 1
 761 118 l 1
 761 99 l 1
674 663 m 0
 674 659 673 656 671 653 c 2
 271 9 l 2
 267 4 261 0 254 0 c 0x9510
 243 0 234 9 234 20 c 0x20
 234 24 235 27 237 31 c 2
 637 674 l 2
 640 680 647 683 654 683 c 0
 665 683 674 674 674 663 c 0
638 118 m 1
 638 341 l 1
 462 118 l 1
 638 118 l 1
EndSplineSet
Ligature2: "'frac' Diagonal Fractions lookup 4 subtable" one fraction four
Ligature2: "'frac' Diagonal Fractions lookup 4 subtable" one slash four
EndChar

StartChar: onehalf
Encoding: 189 189 125
Width: 825
GlyphClass: 3
Flags: MW
HStem: 31 15 289 19 291 15 306 18<68 91> 381 19<578 632> 648 15 648 19<64 71> 664 19 690 15<195 212>
VStem: 229 73 474 75<277 297 277 317.5> 620 75
LayerCount: 2
Fore
SplineSet
302 306 m 1x12c0
 276 308 214 308 185 308 c 0x12c0
 156 308 94 308 68 306 c 1
 68 324 l 1
 91 324 l 2
 156 324 158 332 158 353 c 2
 158 664 l 1x11
 121 648 78 648 64 648 c 1
 64 667 l 1
 87 667 150 667 195 705 c 1
 212 705 212 704 212 690 c 2
 212 353 l 2
 212 331 214 324 279 324 c 2
 302 324 l 1
 302 306 l 1x12c0
761 104 m 1
 741 0 l 1
 474 0 l 1
 474 14 474 16 482 22 c 2
 620 151 l 2
 659 188 695 235 695 283 c 0
 695 332 665 381 599 381 c 0
 557 381 518 359 502 320 c 1
 511 320 l 2
 536 320 549 305 549 289 c 0xcd70
 549 265 524 257 512 257 c 0
 510 257 474 257 474 291 c 0x2020
 474 344 527 400 608 400 c 0
 696 400 761 352 761 283 c 0
 761 223 718 191 605 108 c 1
 529 46 l 1
 659 46 l 2
 675 46 722 46 727 51 c 0
 734 60 739 86 743 104 c 1
 761 104 l 1
632 663 m 0
 632 659 631 656 629 653 c 2
 229 9 l 2
 226 4 220 0 213 0 c 0
 201 0 193 9 193 20 c 0
 193 24 194 27 196 31 c 2
 595 674 l 2
 599 680 605 683 612 683 c 0
 624 683 632 674 632 663 c 0
EndSplineSet
Ligature2: "'frac' Diagonal Fractions lookup 4 subtable" one fraction two
Ligature2: "'frac' Diagonal Fractions lookup 4 subtable" one slash two
EndChar

StartChar: threequarters
Encoding: 190 190 126
Width: 825
GlyphClass: 3
Flags: MW
HStem: 0 19<564 579> 2 17 2 18 31 16 99 19<462 634 442 442 689 761> 293 16<188.5 219.5 188.5 250> 387 19 388 18 391 17 406 16 508 16<189 198 189 199> 674 16 690 15<191.5 219>
VStem: 80 73<614.5 638 614.5 646.5> 94 74 117 72 153 51 161 73 199 72 285 74<377.5 433 377.5 437.5> 564 73 564 74 671 73 689 72<36 99 47 99 99 118 99 391>
LayerCount: 2
Fore
SplineSet
359 408 m 0x000c
 359 347 294 293 206 293 c 0
 127 293 60 332 60 387 c 0x06
 60 413 84 422 101 422 c 0x0040
 122 422 141 410 141 388 c 0
 141 365 119 352 94 355 c 1x0102
 119 320 173 309 204 309 c 0x040080
 235 309 285 327 285 408 c 0
 285 467 258 508 199 508 c 2
 168 508 l 2x00a230
 156 508 150 508 150 515 c 0
 150 521 156 521 161 522 c 0x000040
 166 522 184 523 189 524 c 0x0021
 207 524 232 526 253 555 c 0
 272 581 274 616 274 623 c 0
 274 677 234 690 204 690 c 0x000880
 179 690 131 683 109 653 c 1
 120 653 153 653 153 623 c 0x0004
 153 606 139 593 117 593 c 0x0001
 96 593 80 604 80 624 c 0
 80 669 135 705 207 705 c 0
 276 705 340 672 340 623 c 0
 340 575 298 533 239 517 c 1
 314 504 359 458 359 408 c 0x000c
761 99 m 1
 689 99 l 1
 689 47 l 2x381049
 689 25 690 19 744 19 c 2
 759 19 l 1
 759 0 l 1
 729 2 691 2 661 2 c 0x800002
 631 2 593 2 564 0 c 1x800008
 564 19 l 1
 579 19 l 2
 632 19 634 25 634 47 c 2
 634 99 l 1
 442 99 l 1
 442 118 l 1
 663 399 l 2
 669 406 671 406 677 406 c 0x590008
 689 406 689 403 689 391 c 2
 689 118 l 1
 761 118 l 1
 761 99 l 1
674 663 m 0
 674 659 673 656 671 653 c 2
 271 9 l 2
 267 4 261 0 254 0 c 0x880026
 243 0 234 9 234 20 c 0
 234 24 235 27 237 31 c 2
 637 674 l 2
 640 680 647 683 654 683 c 0
 665 683 674 674 674 663 c 0
638 118 m 1
 638 341 l 1
 462 118 l 1
 638 118 l 1
EndSplineSet
Ligature2: "'frac' Diagonal Fractions lookup 4 subtable" three fraction four
Ligature2: "'frac' Diagonal Fractions lookup 4 subtable" three slash four
EndChar

StartChar: questiondown
Encoding: 191 191 127
Width: 472
GlyphClass: 3
Flags: MW
HStem: -205 22<182 249.5 182 275> -183 106 -115 91 -70 106 293 20G<216 223.5> 394 106<207.5 236.5>
VStem: 56 83<-98.5 -46.5 -101.5 -39> 139 83 169 106<432.5 461.5> 323 92<-82 -57>
LayerCount: 2
Fore
SplineSet
415 -72 m 0x20
 415 -152 328 -205 222 -205 c 0x8540
 88 -205 56 -127 56 -70 c 0x12
 56 -8 89 20 107 36 c 0
 210 124 210 232 210 273 c 2
 210 289 l 2
 210 307 210 313 222 313 c 0
 225 313 234 313 235 301 c 2
 235 277 l 2
 235 201 228 109 165 20 c 0
 150 -1 139 -16 139 -77 c 0x59
 139 -126 139 -183 225 -183 c 0
 274 -183 348 -166 378 -115 c 1xa0
 342 -119 323 -94 323 -70 c 0x1040
 323 -44 341 -24 369 -24 c 0
 392 -24 415 -38 415 -72 c 0x20
275 447 m 0
 275 418 251 394 222 394 c 0x05
 193 394 169 418 169 447 c 0x0080
 169 476 193 500 222 500 c 0
 251 500 275 476 275 447 c 0
EndSplineSet
Ligature2: "'liga' Standard Ligatures lookup 9 subtable" question quoteleft
Ligature2: "'liga' Standard Ligatures lookup 9 subtable" question grave
Ligature2: "'dlig' Discretionary Ligatures lookup 10 subtable" question quoteleft
Ligature2: "'dlig' Discretionary Ligatures lookup 10 subtable" question grave
EndChar

StartChar: AE
Encoding: 198 198 134
Width: 903
GlyphClass: 2
Flags: MW
HStem: 0 31<32 67 339 372 548 643 643 727> 313 31<266 416 266 416 255 416 499 584> 652 31<258 303 258 818 524.5 548 548 643>
VStem: 175 83 416 83<76 313 344 604 604 612> 687 25<196 238 419 461> 821 25<458 458> 849 25<258 258>
AnchorPoint: "top" 569 749 basechar 0
AnchorPoint: "below" 582 -25 basechar 0
LayerCount: 2
Fore
SplineSet
874 258 m 1
 832 0 l 1
 339 0 l 1
 339 31 l 1
 405 31 416 31 416 76 c 2
 416 313 l 1
 255 313 l 1
 180 103 l 2
 175 90 175 89 175 81 c 0
 175 56 199 32 249 31 c 1
 249 0 l 1
 249 0 134 3 134 3 c 2
 94 3 54 1 32 0 c 1
 32 31 l 1
 102 31 131 59 145 98 c 2
 343 651 l 1
 330 651 316 652 303 652 c 2
 258 652 l 1
 258 683 l 1
 818 683 l 1
 846 458 l 1
 821 458 l 1
 805 594 785 652 643 652 c 2
 548 652 l 2
 501 652 499 645 499 612 c 2
 499 344 l 1
 584 344 l 2
 678 344 687 377 687 461 c 1
 712 461 l 1
 712 196 l 1
 687 196 l 1
 687 280 678 313 584 313 c 2
 499 313 l 1
 499 71 l 2
 499 38 501 31 548 31 c 2
 643 31 l 2
 811 31 824 110 849 258 c 1
 874 258 l 1
416 344 m 1
 416 604 l 2
 416 620 416 647 375 648 c 1
 266 344 l 1
 416 344 l 1
EndSplineSet
Position2: "'cpsp' Capital Spacing lookup 0 subtable" dx=7 dy=0 dh=14 dv=0
EndChar

StartChar: Eth
Encoding: 208 208 144
Width: 764
GlyphClass: 2
Flags: HMW
HStem: 0 31<35 59 59 97.5 273 374 374 401 35 59> 327 30<35 138 35 138 224 382> 652 31<35 59 35 401 249.5 273 273 373>
VStem: 138 86<78 327 357 605 605 612> 273 100<652 652> 607 100<280.5 375>
AnchorPoint: "topright" 751 430 basechar 0
AnchorPoint: "top" 339 749 basechar 0
AnchorPoint: "below" 330 -20 basechar 0
LayerCount: 2
Fore
SplineSet
707 336 m 0
 707 148 569 0 401 0 c 2
 35 0 l 1
 35 31 l 1
 59 31 l 2
 136 31 138 42 138 78 c 2
 138 327 l 1
 35 327 l 1
 35 357 l 1
 138 357 l 1
 138 605 l 2
 138 641 136 652 59 652 c 2
 35 652 l 1
 35 683 l 1
 401 683 l 2
 572 683 707 526 707 336 c 0
607 336 m 0
 607 414 598 500 555 559 c 0
 504 630 435 652 373 652 c 2
 273 652 l 2
 226 652 224 645 224 612 c 2
 224 357 l 1
 382 357 l 1
 382 327 l 1
 224 327 l 1
 224 71 l 2
 224 38 226 31 273 31 c 2
 374 31 l 2
 475 31 532 89 552 116 c 0
 588 165 607 225 607 336 c 0
EndSplineSet
Position2: "'cpsp' Capital Spacing lookup 0 subtable" dx=7 dy=0 dh=14 dv=0
EndChar

StartChar: multiply
Encoding: 215 215 151
Width: 778
GlyphClass: 2
Flags: W
LayerCount: 2
Fore
SplineSet
624 15 m 0
 610 1 597 14 587 24 c 2
 389 222 l 1
 191 24 l 2
 181 14 168 1 153 15 c 0
 139 29 153 42 163 52 c 2
 361 250 l 1
 163 448 l 2
 153 458 139 472 153 486 c 0
 168 500 181 487 191 477 c 2
 389 279 l 1
 586 476 l 2
 596 486 609 499 624 485 c 0
 638 471 624 458 614 448 c 2
 417 250 l 1
 615 52 l 2
 625 42 638 29 624 15 c 0
EndSplineSet
EndChar

StartChar: Oslash
Encoding: 216 216 152
Width: 778
GlyphClass: 2
Flags: MW
HStem: -56 21G<132 132> -22 22<358 425 358 479> 683 22<353 434> 719 20G<644 644>
VStem: 56 89<275 367 275 442> 576 89<642 725> 632 89<313.5 371>
AnchorPoint: "bottom" 387 -14 basechar 0
AnchorPoint: "top" 391 749 basechar 0
AnchorPoint: "below" 388 -63 basechar 0
LayerCount: 2
Fore
SplineSet
721 339 m 0xfc
 721 137 570 -22 388 -22 c 0
 300 -22 241 11 200 40 c 1
 132 -56 l 1
 112 -42 l 1
 120 -31 l 1
 180 58 l 1
 136 95 56 190 56 339 c 0
 56 545 209 705 388 705 c 0
 482 705 545 662 569 647 c 0
 574 642 576 642 576 642 c 1
 644 739 l 1
 665 725 l 1
 596 624 l 1
 671 554 721 463 721 339 c 0xfc
554 607 m 1
 535 627 480 683 388 683 c 0
 318 683 244 647 197 572 c 0
 148 494 145 395 145 339 c 0
 145 211 171 146 206 97 c 1
 554 607 l 1
632 339 m 0
 632 403 627 510 570 586 c 1
 223 76 l 1
 266 27 327 0 389 0 c 0
 461 0 530 38 574 100 c 0
 630 181 632 288 632 339 c 0
EndSplineSet
Position2: "'cpsp' Capital Spacing lookup 0 subtable" dx=7 dy=0 dh=14 dv=0
EndChar

StartChar: Thorn
Encoding: 222 222 158
Width: 625
GlyphClass: 2
Flags: MW
HStem: 0 31<36 49> 178 31<222 328 328 361 222 328> 522 31<222 333 222 351> 652 31<36 50.5>
VStem: 139 83<80 178 209 522 553 603> 469 100<331 376>
LayerCount: 2
Fore
SplineSet
569 365 m 0
 569 268 483 178 361 178 c 2
 222 178 l 1
 222 80 l 2
 222 56 222 39 250 34 c 0
 271 31 296 31 325 31 c 1
 325 0 l 1
 180 3 l 1
 36 0 l 1
 36 31 l 1
 62 31 88 31 107 34 c 0
 138 38 139 51 139 80 c 2
 139 603 l 2
 139 627 139 644 111 649 c 0
 90 652 65 652 36 652 c 1
 36 683 l 1
 181 680 l 1
 325 683 l 1
 325 652 l 1
 299 652 273 652 254 649 c 0
 223 645 222 632 222 603 c 2
 222 553 l 1
 351 553 l 2
 499 553 569 450 569 365 c 0
469 366 m 0
 469 386 465 434 433 476 c 0
 397 522 356 522 333 522 c 2
 222 522 l 1
 222 209 l 1
 328 209 l 2
 425 209 469 296 469 366 c 0
EndSplineSet
Position2: "'cpsp' Capital Spacing lookup 0 subtable" dx=7 dy=0 dh=14 dv=0
EndChar

StartChar: germandbls
Encoding: 223 223 159
Width: 500
GlyphClass: 2
Flags: MW
HStem: -11 22<288.5 312 288.5 339> 0 31<28 61.5> 31 71 102 71 400 31<28 106 28 106> 409 22 683 22<262 292.5>
VStem: 106 66<76 400 400 400 431 556 556 558 0 606> 172 72 244 66
CounterMasks: 1 01c0
LayerCount: 2
Fore
SplineSet
471 174 m 0x2bc0
 471 62 382 -11 296 -11 c 0
 238 -11 201 25 201 65 c 0
 201 90 220 102 237 102 c 0
 257 102 273 88 273 66 c 0
 273 42 254 32 243 30 c 1
 261 13 284 11 293 11 c 0
 331 11 396 44 396 173 c 0
 396 277 356 399 237 409 c 0x95c0
 228 410 228 420 228 420 c 1
 228 430 235 430 244 431 c 0
 333 439 368 500 368 564 c 0
 368 652 313 683 272 683 c 0
 252 683 172 672 172 558 c 2
 172 0 l 1
 154 3 137 3 126 3 c 2
 28 0 l 1x4bc0
 28 31 l 1
 95 31 106 31 106 76 c 2
 106 400 l 1
 28 400 l 1
 28 431 l 1
 106 431 l 1
 106 556 l 2
 106 656 195 705 272 705 c 0
 371 705 443 638 443 563 c 0
 443 505 399 444 310 419 c 1
 439 366 471 246 471 174 c 0x2bc0
EndSplineSet
Substitution2: "'smcp' Lowercase to Small Capitals lookup 14 subtable" Germandbls.sc
EndChar

StartChar: ae
Encoding: 230 230 166
Width: 722
GlyphClass: 2
Flags: MW
HStem: -11 22<185.5 244.5> 111 21 132 22 229 21<326 326> 231 21<396 627 396 668 395 627> 288 93 426 22<202 245.5 507 572.5>
VStem: 45 77<68.5 119 68.5 140> 163 57 338 57<122.5 133.5> 627 66<252 252>
AnchorPoint: "top" 370 505 basechar 0
AnchorPoint: "below" 369 -19 basechar 0
LayerCount: 2
Fore
SplineSet
693 119 m 0x4ee0
 693 100 651 -11 538 -11 c 0
 508 -11 430 -3 371 78 c 1
 347 29 285 -11 204 -11 c 0
 137 -11 45 13 45 92 c 0
 45 188 164 250 326 250 c 1x9120
 326 298 l 2
 326 385 271 426 220 426 c 0
 184 426 137 412 112 380 c 1
 158 379 163 346 163 334 c 0
 163 308 145 288 117 288 c 0
 91 288 71 305 71 335 c 0
 71 402 142 448 222 448 c 0
 286 448 346 419 375 371 c 1
 426 432 482 448 526 448 c 0
 635 448 693 363 693 252 c 0
 693 231 690 231 668 231 c 2
 395 231 l 1
 395 14 532 14 542 14 c 0
 604 14 650 61 665 111 c 0
 670 127 671 131 680 131 c 0
 685 131 693 129 693 119 c 0x4ee0
627 252 m 1
 625 291 620 426 525 426 c 0
 489 426 406 398 396 252 c 1x8b20
 627 252 l 1
338 132 m 0
 338 135 338 143 335 154 c 0
 326 185 326 205 326 229 c 1x3040
 164 223 122 146 122 92 c 0
 122 45 162 11 209 11 c 0
 281 11 338 68 338 132 c 0
EndSplineSet
Substitution2: "'smcp' Lowercase to Small Capitals lookup 14 subtable" AE.sc
EndChar

StartChar: eth
Encoding: 240 240 176
Width: 500
GlyphClass: 2
Flags: MW
HStem: -11 25<229 259.5 229 285> 425 22<233 274 190 286.5>
VStem: 28 84<203 244.5 203 279.5> 387 84<212.5 263 212.5 274.5>
LayerCount: 2
Fore
SplineSet
471 238 m 0
 471 187 471 118 402 50 c 0
 374 23 320 -11 250 -11 c 0
 128 -11 28 88 28 213 c 0
 28 346 133 447 247 447 c 0
 301 447 342 413 368 374 c 1
 343 463 290 539 219 595 c 1
 133 545 l 1
 118 572 l 1
 191 614 l 1
 155 638 115 657 72 669 c 1
 80 695 l 1
 133 683 185 664 233 638 c 1
 324 691 l 1
 340 664 l 1
 264 620 l 1
 324 582 376 530 413 467 c 0
 471 367 471 288 471 238 c 0
387 214 m 0
 387 335 324 425 249 425 c 0
 217 425 175 410 145 367 c 0
 115 322 112 267 112 222 c 0
 112 184 114 125 140 81 c 0
 167 36 208 14 250 14 c 0
 269 14 387 21 387 214 c 0
EndSplineSet
Substitution2: "'ss05' Style Set 5 lookup 23 IPA alts-1" eth.ipa
Substitution2: "'smcp' Lowercase to Small Capitals lookup 14 subtable" Eth.sc
EndChar

StartChar: divide
Encoding: 247 247 183
Width: 778
GlyphClass: 2
Flags: MW
HStem: 40 106<374.5 403.5> 230 40<89 90 90 687> 354 106<374.5 403.5>
VStem: 336 106<78.5 107.5 392.5 421.5>
CounterMasks: 1 e0
LayerCount: 2
Fore
SplineSet
721 250 m 0
 721 230 702 230 687 230 c 2
 90 230 l 2
 75 230 56 230 56 250 c 0
 56 270 75 270 89 270 c 2
 688 270 l 2
 702 270 721 270 721 250 c 0
442 407 m 0
 442 378 418 354 389 354 c 0
 360 354 336 378 336 407 c 0
 336 436 360 460 389 460 c 0
 418 460 442 436 442 407 c 0
442 93 m 0
 442 64 418 40 389 40 c 0
 360 40 336 64 336 93 c 0
 336 122 360 146 389 146 c 0
 418 146 442 122 442 93 c 0
EndSplineSet
EndChar

StartChar: oslash
Encoding: 248 248 184
Width: 500
GlyphClass: 2
Flags: MW
HStem: -102 22<67 79> -11 22<237.5 269.5 237.5 308.5> 426 22<231 269> 514 20G<420 420>
VStem: 35 69<186 235 186 277.5> 60 69 395 69<197.5 234.5>
AnchorPoint: "bottom" 267 -7 basechar 0
AnchorPoint: "top" 266 552 basechar 0
AnchorPoint: "below" 266 -32 basechar 0
LayerCount: 2
Fore
SplineSet
464 213 m 0x38
 464 89 368 -11 249 -11 c 0
 207 -11 170 3 147 16 c 1
 79 -102 l 1
 60 -90 l 1
 67 -80 l 1
 129 28 l 1xc6
 75 66 35 133 35 213 c 0
 35 342 131 448 250 448 c 0
 293 448 331 433 354 418 c 1
 420 534 l 1
 439 522 l 1
 372 406 l 1
 410 378 464 311 464 213 c 0x38
338 392 m 1
 320 408 289 426 249 426 c 0
 213 426 163 409 133 357 c 0
 106 312 104 256 104 214 c 0x6a
 104 158 109 101 146 59 c 1
 338 392 l 1
395 214 m 0
 395 255 393 328 354 374 c 1
 163 42 l 1
 191 18 225 11 250 11 c 0
 289 11 337 29 366 75 c 0
 395 121 395 181 395 214 c 0
EndSplineSet
Substitution2: "'smcp' Lowercase to Small Capitals lookup 14 subtable" Oslash.sc
EndChar

StartChar: thorn
Encoding: 254 254 190
Width: 556
GlyphClass: 2
Flags: MW
HStem: -194 31<28 61.5> -11 22<274 331 274 357.5> 417 25<278.5 340.5> 652 31<28 63>
VStem: 106 69<-118 50 50 59 104 114 114 337> 438 83<155.5 272.5>
AnchorPoint: "top" 150 715 basechar 0
AnchorPoint: "below" 352 -229 basechar 0
LayerCount: 2
Fore
SplineSet
521 216 m 0
 521 87 417 -11 298 -11 c 0
 222 -11 180 43 175 59 c 1
 175 50 l 1
 175 -118 l 2
 175 -163 186 -163 253 -163 c 1
 253 -194 l 1
 140 -191 l 1
 28 -194 l 1
 28 -163 l 1
 95 -163 106 -163 106 -118 c 2
 106 596 l 2
 106 645 98 652 28 652 c 1
 28 683 l 1
 172 694 l 1
 172 376 l 1
 192 398 234 442 312 442 c 0
 424 442 521 343 521 216 c 0
438 216 m 0
 438 329 377 417 304 417 c 0
 253 417 204 388 175 337 c 1
 175 114 l 2
 175 94 175 93 189 72 c 0
 216 31 254 11 294 11 c 0
 368 11 438 95 438 216 c 0
EndSplineSet
Substitution2: "'smcp' Lowercase to Small Capitals lookup 14 subtable" Thorn.sc
EndChar

StartChar: Dcroat
Encoding: 272 272 208
Width: 764
GlyphClass: 2
Flags: MW
HStem: 0 31<35 59 59 97.5 273 374 374 401 35 59> 327 30<35 138 35 138 224 382> 652 31<35 59 35 401 249.5 273 273 373>
VStem: 138 86<78 327 357 605 605 612> 273 100<652 652> 607 100<280.5 375>
AnchorPoint: "top" 375 731 basechar 0
AnchorPoint: "below" 396 -27 basechar 0
LayerCount: 2
Fore
SplineSet
707 336 m 0
 707 148 569 0 401 0 c 2
 35 0 l 1
 35 31 l 1
 59 31 l 2
 136 31 138 42 138 78 c 2
 138 327 l 1
 35 327 l 1
 35 357 l 1
 138 357 l 1
 138 605 l 2
 138 641 136 652 59 652 c 2
 35 652 l 1
 35 683 l 1
 401 683 l 2
 572 683 707 526 707 336 c 0
607 336 m 0
 607 414 598 500 555 559 c 0
 504 630 435 652 373 652 c 2
 273 652 l 2
 226 652 224 645 224 612 c 2
 224 357 l 1
 382 357 l 1
 382 327 l 1
 224 327 l 1
 224 71 l 2
 224 38 226 31 273 31 c 2
 374 31 l 2
 475 31 532 89 552 116 c 0
 588 165 607 225 607 336 c 0
EndSplineSet
Position2: "'cpsp' Capital Spacing lookup 0 subtable" dx=7 dy=0 dh=14 dv=0
EndChar

StartChar: dcroat
Encoding: 273 273 209
Width: 556
GlyphClass: 2
Flags: HMW
HStem: -11 22<228.5 272.5 228.5 278> 0 31<492 527> 87 31 420 22<234 278.5> 533 30<222 383 222 383 449 527> 652 31<305 340> 652 42
VStem: 34 83<193.5 232.5 193.5 279.5> 222 83 383 66<380 533 563 596 596 620.5>
AnchorPoint: "top" 418 715 basechar 0
LayerCount: 2
Fore
SplineSet
527 0 m 1x6a40
 380 -11 l 1
 380 55 l 1
 355 23 310 -11 246 -11 c 0
 132 -11 34 88 34 215 c 0
 34 344 139 442 257 442 c 0
 311 442 354 416 383 380 c 1
 383 533 l 1
 222 533 l 1
 222 563 l 1
 383 563 l 1
 383 596 l 2
 383 645 375 652 305 652 c 1
 305 683 l 1x9dc0
 449 694 l 1
 449 563 l 1
 527 563 l 1
 527 533 l 1
 449 533 l 1
 449 87 l 2
 449 38 457 31 527 31 c 1
 527 0 l 1x6a40
380 118 m 2x40
 380 323 l 2
 380 341 380 343 369 360 c 0
 338 405 296 420 261 420 c 0
 207 420 169 387 148 356 c 0
 119 311 117 251 117 214 c 0
 117 173 120 116 146 75 c 0
 170 37 206 11 251 11 c 0xb1
 294 11 339 33 369 81 c 0
 380 98 380 100 380 118 c 2x40
EndSplineSet
Substitution2: "'smcp' Lowercase to Small Capitals lookup 14 subtable" Eth.sc
EndChar

StartChar: gcommaaccent
Encoding: 291 291 227
Width: 500
GlyphClass: 2
Flags: MW
HStem: -206 23<199.5 299 199.5 308> 7 58<162 264.5> 110 23 149 23<212.5 242 178.5 268.5> 419 23<202 233 175.5 265.5> 430 23
VStem: 159 75<66 66> 234 75 309 75<282.5 307.5>
AnchorPoint: "topright" 521 430 basechar 0
AnchorPoint: "top" 227 505 basechar 0
AnchorPoint: "overlap" 221 274 basechar 0
LayerCount: 2
Fore
SplineSet
485 404 m 0x0780
 485 381 466 374 456 374 c 0
 440 374 427 386 427 403 c 0
 427 415 432 426 443 430 c 1x1780
 440 431 433 431 433 431 c 2
 415 431 379 426 343 392 c 1
 368 369 384 332 384 295 c 0
 384 218 315 149 222 149 c 0
 203 149 162 152 123 180 c 1
 106 160 106 137 106 133 c 0
 106 101 127 70 159 66 c 0
 166 65 209 65 234 65 c 0
 295 65 353 65 406 37 c 0
 457 9 471 -42 471 -77 c 0
 471 -155 367 -206 249 -206 c 0
 127 -206 28 -151 28 -79 c 0
 28 -39 60 4 120 21 c 1
 89 41 76 79 76 110 c 0
 76 145 94 178 107 193 c 1
 82 214 60 252 60 296 c 0
 60 373 129 442 222 442 c 0xfb80
 244 442 286 439 328 406 c 1
 370 447 414 453 434 453 c 0
 473 453 485 421 485 404 c 0x0780
309 296 m 0
 309 319 309 419 222 419 c 0xcb80
 182 419 159 391 151 379 c 0
 136 354 135 322 135 295 c 0
 135 272 135 172 222 172 c 0
 262 172 285 200 293 212 c 0
 308 237 309 269 309 296 c 0
419 -79 m 0
 419 7 307 7 221 7 c 2
 162 7 l 2
 118 4 80 -33 80 -79 c 0
 80 -132 149 -183 250 -183 c 0
 348 -183 419 -133 419 -79 c 0
EndSplineSet
EndChar

StartChar: Hbar
Encoding: 294 294 230
Width: 750
GlyphClass: 2
Flags: MW
HStem: 0 31<33 57> 340 31<225 524 225 524> 498 30<33 136 33 136 225 524 613 716> 652 31<33 57 33 33>
VStem: 136 89<78 340 371 498 528 605> 524 89<78 340 340 340 371 498 528 605>
AnchorPoint: "top" 379 707 basechar 0
AnchorPoint: "below" 378 -22 basechar 0
LayerCount: 2
Fore
SplineSet
716 0 m 1
 681 3 606 3 568 3 c 0
 530 3 456 3 421 0 c 1
 421 31 l 1
 445 31 l 2
 522 31 524 42 524 78 c 2
 524 340 l 1
 225 340 l 1
 225 78 l 2
 225 42 227 31 304 31 c 2
 328 31 l 1
 328 0 l 1
 293 3 218 3 180 3 c 0
 142 3 68 3 33 0 c 1
 33 31 l 1
 57 31 l 2
 134 31 136 42 136 78 c 2
 136 498 l 1
 33 498 l 1
 33 528 l 1
 136 528 l 1
 136 605 l 2
 136 641 134 652 57 652 c 2
 33 652 l 1
 33 683 l 1
 68 680 143 680 181 680 c 0
 219 680 293 680 328 683 c 1
 328 652 l 1
 304 652 l 2
 227 652 225 641 225 605 c 2
 225 528 l 1
 524 528 l 1
 524 605 l 2
 524 641 522 652 445 652 c 2
 421 652 l 1
 421 683 l 1
 456 680 531 680 569 680 c 0
 607 680 681 680 716 683 c 1
 716 652 l 1
 692 652 l 2
 615 652 613 641 613 605 c 2
 613 528 l 1
 716 528 l 1
 716 498 l 1
 613 498 l 1
 613 78 l 2
 613 42 615 31 692 31 c 2
 716 31 l 1
 716 0 l 1
524 371 m 1
 524 498 l 1
 225 498 l 1
 225 371 l 1
 524 371 l 1
EndSplineSet
Position2: "'cpsp' Capital Spacing lookup 0 subtable" dx=7 dy=0 dh=14 dv=0
EndChar

StartChar: hbar
Encoding: 295 295 231
Width: 556
GlyphClass: 2
Flags: MW
HStem: 0 31<32 65.5> 31 30 420 22<282 345.5> 533 30<32 110 32 110 176 278> 652 31<32 67> 652 42
VStem: 110 69<76 260> 388 69<76 252 61 309 61 337.5>
AnchorPoint: "bottom" 428 4 basechar 0
AnchorPoint: "top" 146 765 basechar 0
AnchorPoint: "below" 288 -20 basechar 0
LayerCount: 2
Fore
SplineSet
535 0 m 1x75
 423 3 l 1
 310 0 l 1
 310 31 l 1
 377 31 388 31 388 76 c 2
 388 309 l 2
 388 366 377 420 314 420 c 0
 250 420 179 364 179 260 c 2
 179 76 l 2
 179 31 190 31 257 31 c 1
 257 0 l 1
 145 3 l 1
 32 0 l 1xa3
 32 31 l 1
 99 31 110 31 110 76 c 2
 110 533 l 1
 32 533 l 1
 32 563 l 1
 110 563 l 1
 110 596 l 2
 110 645 102 652 32 652 c 1
 32 683 l 1x5a
 176 694 l 1
 176 563 l 1
 278 563 l 1
 278 533 l 1
 176 533 l 1
 176 346 l 1
 177 346 l 1
 193 382 237 442 321 442 c 0
 379 442 412 422 426 405 c 0
 457 369 457 338 457 252 c 2
 457 61 l 2
 458 31 483 31 535 31 c 1
 535 0 l 1x75
EndSplineSet
EndChar

StartChar: dotlessi
Encoding: 305 305 241
Width: 278
GlyphClass: 2
Flags: HMW
HStem: 0 31<33 66.5> 400 31<37 69.5> 400 42
VStem: 111 66<76 345 345 369.5>
AnchorPoint: "topright" 261 430 basechar 0
AnchorPoint: "topleft" 82 505 basechar 0
AnchorPoint: "top" 142 505 basechar 0
AnchorPoint: "below" 147 -23 basechar 0
LayerCount: 2
Fore
SplineSet
247 0 m 1xb0
 213 1 178 3 143 3 c 2
 33 0 l 1
 33 31 l 1
 100 31 111 31 111 76 c 2
 111 345 l 2
 111 394 102 400 37 400 c 1
 37 431 l 1xd0
 177 442 l 1
 177 75 l 2
 177 36 181 31 247 31 c 1
 247 0 l 1xb0
EndSplineSet
Substitution2: "'smcp' Lowercase to Small Capitals lookup 14 subtable" I.sc
EndChar

StartChar: I_J
Encoding: 306 306 242
Width: 839
GlyphClass: 3
Flags: MW
HStem: -22 22<521 550.5> 0 31<28 54> 0 112 58 112<414 436 411 440> 148 22 652 31<28 54 28 28>
VStem: 136 89<78 605> 333 89 366 112<101 132 101 134> 414 112 627 86<150 167 167 604 604 611>
AnchorPoint: "top" 417 705 basechar 0
AnchorPoint: "below" 420 -24 basechar 0
LayerCount: 2
Fore
SplineSet
333 0 m 1x4f20
 298 3 219 3 180 3 c 0
 142 3 63 3 28 0 c 1
 28 31 l 1
 54 31 l 2
 133 31 136 42 136 78 c 2
 136 605 l 2
 136 641 133 652 54 652 c 2
 28 652 l 1
 28 683 l 1
 63 680 142 680 181 680 c 0
 219 680 298 680 333 683 c 1
 333 652 l 1
 307 652 l 2
 228 652 225 641 225 605 c 2
 225 78 l 2
 225 42 228 31 307 31 c 2
 333 31 l 1
 333 0 l 1x4f20
790 652 m 1
 727 652 713 652 713 611 c 2
 713 167 l 2
 713 133 713 131 712 123 c 0
 701 48 628 -22 526 -22 c 0x8460
 437 -22 366 38 366 112 c 0x2080
 366 156 400 170 422 170 c 0x11
 450 170 478 150 478 114 c 0x0080
 478 88 466 58 414 58 c 1x1040
 450 0 518 0 524 0 c 0
 577 0 627 56 627 148 c 2
 627 604 l 2
 627 639 627 652 529 652 c 2
 493 652 l 1
 493 683 l 1
 531 680 619 680 661 680 c 2
 790 683 l 1
 790 652 l 1
EndSplineSet
LCarets2: 1 0
Ligature2: "'liga' Standard Ligatures lookup 9 subtable" I J
Position2: "'cpsp' Capital Spacing lookup 0 subtable" dx=7 dy=0 dh=14 dv=0
EndChar

StartChar: i_j
Encoding: 307 307 243
Width: 556
GlyphClass: 3
Flags: MW
HStem: -205 22<318.5 353 318.5 360.5> 0 31<33 66.5> 400 31<37 69.5> 551 106<113 144 112 145 392 423>
VStem: 75 107<591.5 616.5> 111 66<76 345 345 369.5> 210 92<-138.5 -112 -138.5 -112> 354 107<591.5 616.5> 394 66<-52 -50 -50 344 344 368.5>
AnchorPoint: "bottom" 144 7 basechar 0
AnchorPoint: "top" 272 715 basechar 0
AnchorPoint: "below" 262 -252 basechar 0
LayerCount: 2
Fore
SplineSet
182 604 m 0xfa80
 182 579 162 551 128 551 c 0
 98 551 75 577 75 604 c 0
 75 629 95 657 129 657 c 0
 159 657 182 631 182 604 c 0xfa80
460 -50 m 2
 460 -141 398 -205 323 -205 c 0
 266 -205 210 -177 210 -125 c 0
 210 -99 228 -79 256 -79 c 0
 284 -79 302 -99 302 -125 c 0
 302 -152 282 -166 267 -170 c 1
 293 -183 316 -183 321 -183 c 0
 385 -183 394 -97 394 -52 c 2
 394 344 l 2
 394 393 385 400 308 400 c 1
 308 431 l 1
 460 442 l 1
 460 -50 l 2
247 0 m 1
 213 1 178 3 143 3 c 2
 33 0 l 1
 33 31 l 1
 100 31 111 31 111 76 c 2
 111 345 l 2
 111 394 102 400 37 400 c 1
 37 431 l 1
 177 442 l 1
 177 75 l 2x75
 177 36 181 31 247 31 c 1
 247 0 l 1
461 604 m 0
 461 579 441 551 407 551 c 0
 377 551 354 577 354 604 c 0
 354 629 374 657 408 657 c 0
 438 657 461 631 461 604 c 0
EndSplineSet
LCarets2: 1 0
Substitution2: "'smcp' Lowercase to Small Capitals lookup 14 subtable" IJ.sc
Ligature2: "'liga' Standard Ligatures lookup 9 subtable" i j
EndChar

StartChar: kgreenlandic
Encoding: 312 312 248
Width: 531
GlyphClass: 2
Flags: MW
HStem: 0 23<25 56> 205 25<170 192> 408 22<25 56 381.5 401>
VStem: 103 67<69 205 230 362> 388 87<350 378>
AnchorPoint: "top" 302 505 basechar 0
LayerCount: 2
Fore
SplineSet
25 0 m 1
 25 23 l 1
 87 23 103 27 103 69 c 2
 103 362 l 2
 103 404 87 408 25 408 c 1
 25 430 l 1
 58 429 111 428 136 428 c 0
 162 428 215 429 248 430 c 1
 248 408 l 1
 186 408 170 404 170 362 c 2
 170 230 l 1
 192 230 l 2
 239 230 293 359 323 394 c 0
 343 417 360 430 393 430 c 0
 443 430 475 403 475 364 c 0
 475 331 449 319 432 319 c 0
 410 319 388 337 388 363 c 0
 388 393 416 404 418 404 c 1
 417 405 408 408 394 408 c 0
 369 408 355 384 334 352 c 0
 301 301 277 251 277 251 c 1
 442 37 418 23 477 23 c 2
 512 23 l 1
 512 0 l 1
 487 2 463 3 438 3 c 0
 433 3 411 0 406 0 c 0
 383 0 381 10 352 46 c 0
 330 73 320 94 239 204 c 1
 170 205 l 1
 170 69 l 2
 170 27 186 23 248 23 c 1
 248 0 l 1
 215 1 163 3 137 3 c 0
 112 3 58 1 25 0 c 1
EndSplineSet
EndChar

StartChar: Lslash
Encoding: 321 321 257
Width: 625
GlyphClass: 2
Flags: MW
HStem: 0 31<33 57 57 95.5 274 356 356 444 33 57> 652 31<33 57 33 33>
VStem: 47 89<270 270> 136 89<78 299 299 299 341 369 411 604> 185 89
AnchorPoint: "top" 192 749 basechar 0
AnchorPoint: "below" 329 -23 basechar 0
LayerCount: 2
Fore
SplineSet
582 258 m 1x88
 554 0 l 1
 33 0 l 1
 33 31 l 1
 57 31 l 2
 134 31 136 42 136 78 c 2
 136 299 l 1
 69 245 l 1
 47 270 l 1
 136 341 l 1
 136 605 l 2
 136 641 134 652 57 652 c 2
 33 652 l 1
 33 683 l 1
 68 680 146 680 185 680 c 0
 226 680 317 680 353 683 c 1
 353 652 l 1
 320 652 l 2
 225 652 225 638 225 604 c 2
 225 411 l 1
 384 537 l 1
 404 511 l 1
 225 369 l 1
 225 71 l 2x50
 225 38 227 31 274 31 c 2
 356 31 l 2
 532 31 546 156 557 258 c 1
 582 258 l 1x88
EndSplineSet
Position2: "'cpsp' Capital Spacing lookup 0 subtable" dx=7 dy=0 dh=14 dv=0
EndChar

StartChar: lslash
Encoding: 322 322 258
Width: 336
GlyphClass: 2
Flags: MW
HStem: 0 31<61 94.5> 652 31<61 96> 652 42
VStem: 139 66<76 310 310 310 342 358 392 596 596 620.5>
AnchorPoint: "top" 182 745 basechar 0
AnchorPoint: "below" 182 -19 basechar 0
LayerCount: 2
Fore
SplineSet
286 419 m 1x30
 205 358 l 1
 205 76 l 2
 205 31 216 31 283 31 c 1
 283 0 l 1
 172 3 l 1
 61 0 l 1
 61 31 l 1
 128 31 139 31 139 76 c 2
 139 310 l 1
 64 254 l 1
 48 274 l 1
 139 342 l 1
 139 596 l 2
 139 645 131 652 61 652 c 1
 61 683 l 1xd0
 205 694 l 1
 205 392 l 1
 270 440 l 1
 286 419 l 1x30
EndSplineSet
Substitution2: "'smcp' Lowercase to Small Capitals lookup 14 subtable" Lslash.sc
EndChar

StartChar: napostrophe
Encoding: 329 329 265
Width: 601
GlyphClass: 2
Flags: HMW
HStem: 0 31<78 111.5> 400 31<78 113> 420 22<330.5 391.5> 631 105<52.5 80>
VStem: 111 23<634 652> 156 69<76 260> 434 69<76 276 61 309 61 337.5>
AnchorPoint: "top" 332 715 basechar 0
AnchorPoint: "below" 334 -24 basechar 0
LayerCount: 2
Fore
SplineSet
15 683 m 0x9e
 15 709 32 736 68 736 c 0
 105 736 134 700 134 651 c 0
 134 561 58 503 42 503 c 0
 39 503 31 505 31 513 c 0
 31 524 48 525 74 555 c 0
 97 582 111 616 111 652 c 1
 105 646 93 631 67 631 c 0
 38 631 15 652 15 683 c 0x9e
78 0 m 1
 78 31 l 1
 145 31 156 31 156 76 c 2
 156 344 l 2
 156 393 148 400 78 400 c 1
 78 431 l 1xde
 219 442 l 1
 219 337 l 1
 247 399 294 442 367 442 c 0
 497 442 503 358 503 276 c 2
 503 61 l 2
 504 31 529 31 581 31 c 1
 581 0 l 1
 547 1 495 3 469 3 c 0
 442 3 391 1 356 0 c 1
 356 31 l 1
 423 31 434 31 434 76 c 2
 434 309 l 2
 434 366 423 420 360 420 c 0xbe
 296 420 225 364 225 260 c 2
 225 76 l 2
 225 31 236 31 303 31 c 1
 303 0 l 1
 269 1 217 3 191 3 c 0
 164 3 113 1 78 0 c 1
EndSplineSet
EndChar

StartChar: Eng
Encoding: 330 330 266
Width: 750
GlyphClass: 2
Flags: MW
HStem: -22 92<487.5 512.5 487.5 577.5> 0 31<28 54> 652 31<28 54 28 28> 679 26<375 484.5>
VStem: 136 89<78 571 615 623> 611 102<277.5 424.5>
AnchorPoint: "top" 439 749 basechar 0
AnchorPoint: "below" 405 -24 basechar 0
LayerCount: 2
Fore
SplineSet
713 342 m 0x18
 713 163 655 -22 500 -22 c 0
 475 -22 454 -1 454 24 c 0
 454 49 475 70 500 70 c 0
 525 70 546 49 546 24 c 2
 546 17 l 1
 611 63 611 213 611 342 c 0
 611 507 556 679 413 679 c 0x94
 333 679 263 636 225 571 c 1
 225 78 l 2
 225 42 228 31 307 31 c 2
 333 31 l 1
 333 0 l 1
 298 3 219 3 180 3 c 0
 142 3 63 3 28 0 c 1
 28 31 l 1
 54 31 l 2
 133 31 136 42 136 78 c 2
 136 605 l 2
 136 641 133 652 54 652 c 2
 28 652 l 1
 28 683 l 1
 63 680 142 680 181 680 c 0
 196 680 210 681 225 683 c 1x68
 225 615 l 1
 270 670 337 705 413 705 c 0
 591 705 713 532 713 342 c 0x18
EndSplineSet
Position2: "'cpsp' Capital Spacing lookup 0 subtable" dx=7 dy=0 dh=14 dv=0
EndChar

StartChar: eng
Encoding: 331 331 267
Width: 506
GlyphClass: 2
Flags: MW
HStem: -216 70<296 315 296 365> 0 31<32 65.5> 400 31<32 67> 420 22<284.5 345.5>
VStem: 110 69<76 260> 271 69 388 69<69 252>
AnchorPoint: "top" 332 505 basechar 0
AnchorPoint: "below" 327 -254 basechar 0
LayerCount: 2
Fore
SplineSet
457 69 m 2x12
 457 -69 424 -216 306 -216 c 0
 286 -216 271 -201 271 -181 c 0
 271 -162 286 -146 306 -146 c 0
 324 -146 339 -161 340 -179 c 1
 388 -144 388 -29 388 69 c 2
 388 309 l 2
 388 366 377 420 314 420 c 0x96
 250 420 179 364 179 260 c 2
 179 76 l 2
 179 31 190 31 257 31 c 1
 257 0 l 1
 145 3 l 1
 32 0 l 1
 32 31 l 1
 99 31 110 31 110 76 c 2
 110 344 l 2
 110 393 102 400 32 400 c 1
 32 431 l 1x68
 173 442 l 1
 173 337 l 1
 201 399 248 442 321 442 c 0
 379 442 412 422 426 405 c 0
 457 369 457 338 457 252 c 2
 457 69 l 2x12
EndSplineSet
Substitution2: "'ss05' Style Set 5 lookup 23 IPA alts-1" eng.ipa
Substitution2: "'smcp' Lowercase to Small Capitals lookup 14 subtable" Eng.sc
EndChar

StartChar: OE
Encoding: 338 338 274
Width: 1014
GlyphClass: 2
Flags: MW
HStem: -22 22<339.5 412.5> 0 31<639 749 749 834.5> 339 31<590 698 590 698> 652 31<615.5 639 639 751> 683 22<341 405.5 314 448>
VStem: 70 100<255 444.5> 514 76<277.5 339 370 395> 812 25<222 265 444 487> 932 25<458 458> 960 25<258 258>
AnchorPoint: "top" 589 749 basechar 0
AnchorPoint: "below" 583 -24 basechar 0
LayerCount: 2
Fore
SplineSet
985 258 m 1x73c0
 943 0 l 1
 556 0 l 2
 540 0 527 0 479 -11 c 0
 442 -19 425 -22 400 -22 c 0
 228 -22 70 130 70 339 c 0
 70 550 228 705 400 705 c 0xae40
 411 705 428 705 470 695 c 0
 525 683 539 683 556 683 c 2
 929 683 l 1
 957 458 l 1
 932 458 l 1
 916 593 894 652 751 652 c 2
 639 652 l 2
 592 652 590 645 590 612 c 2
 590 370 l 1
 698 370 l 2
 798 370 812 401 812 487 c 1
 837 487 l 1
 837 222 l 1
 812 222 l 1
 812 308 798 339 698 339 c 2
 590 339 l 1
 590 71 l 2
 590 38 592 31 639 31 c 2
 749 31 l 2
 920 31 935 109 960 258 c 1
 985 258 l 1x73c0
514 341 m 0
 514 449 514 534 509 578 c 0
 503 635 492 683 404 683 c 0
 278 683 170 544 170 354 c 0
 170 156 275 0 404 0 c 0
 488 0 503 43 510 109 c 0
 514 155 514 214 514 341 c 0
EndSplineSet
Position2: "'cpsp' Capital Spacing lookup 0 subtable" dx=7 dy=0 dh=14 dv=0
EndChar

StartChar: oe
Encoding: 339 339 275
Width: 778
GlyphClass: 2
Flags: MW
HStem: -11 22<231 258 231 281> -11 25<593 629 593 650.5> 231 21<452 683 452 724 451 683> 426 22<229.5 251 563 628.5>
VStem: 28 77<154 284> 382 69<127.5 231 122.5 320.5> 683 66<252 252>
AnchorPoint: "top" 442 505 basechar 0
AnchorPoint: "below" 444 -25 basechar 0
LayerCount: 2
Fore
SplineSet
749 119 m 0x7e
 749 100 707 -11 594 -11 c 0
 533 -11 461 20 417 93 c 1
 384 37 321 -11 241 -11 c 0
 126 -11 28 89 28 219 c 0
 28 349 127 448 241 448 c 0
 317 448 380 404 416 347 c 1
 456 414 519 448 582 448 c 0
 691 448 749 363 749 252 c 0
 749 231 746 231 724 231 c 2
 451 231 l 1
 451 14 588 14 598 14 c 0
 660 14 706 61 721 111 c 0
 726 127 727 131 736 131 c 0
 741 131 749 129 749 119 c 0x7e
683 252 m 1
 681 291 676 426 581 426 c 0
 545 426 462 398 452 252 c 1
 683 252 l 1
382 223 m 0
 382 418 260 426 242 426 c 0
 217 426 105 416 105 223 c 0
 105 20 220 11 242 11 c 0x9c
 274 11 382 32 382 223 c 0
EndSplineSet
Substitution2: "'smcp' Lowercase to Small Capitals lookup 14 subtable" OE.sc
EndChar

StartChar: Tbar
Encoding: 358 358 294
Width: 722
GlyphClass: 2
Flags: MW
HStem: 0 31<171 211> 334 32<199 316 213 316 213 316 405 512 512 515> 646 31<165.5 278 443 555.5>
VStem: 36 25<452 452> 316 89<79 334 366 606> 660 25<452 452>
CounterMasks: 1 1c
AnchorPoint: "bottom" 382 6 basechar 0
AnchorPoint: "top" 379 749 basechar 0
AnchorPoint: "below" 384 -24 basechar 0
LayerCount: 2
Fore
SplineSet
36 452 m 1
 55 677 l 1
 666 677 l 1
 685 452 l 1
 660 452 l 1
 646 613 631 646 480 646 c 0
 406 646 405 645 405 606 c 2
 405 366 l 1
 512 366 l 2
 527 366 541 365 541 350 c 0
 541 336 528 334 515 334 c 2
 405 334 l 1
 405 79 l 2
 405 45 405 31 510 31 c 2
 550 31 l 1
 550 0 l 1
 509 3 406 3 360 3 c 0
 314 3 212 3 171 0 c 1
 171 31 l 1
 211 31 l 2
 316 31 316 45 316 79 c 2
 316 334 l 1
 206 334 l 2
 192 334 181 336 181 350 c 0
 181 364 193 366 213 366 c 2
 316 366 l 1
 316 606 l 2
 316 644 315 646 241 646 c 0
 90 646 75 613 61 452 c 1
 36 452 l 1
EndSplineSet
EndChar

StartChar: tbar
Encoding: 359 359 295
Width: 388
GlyphClass: 2
Flags: MW
HStem: -11 25<215 258.5 206.5 268.5> 268 32<37 104 51 104 51 104 173 287 287 290> 400 22<19 104 19 19> 400 31<173 316 173 316>
VStem: 104 69<124 268 300 400> 148 25<615 615> 307 25<126 181>
AnchorPoint: "bottom" 245 0 basechar 0
AnchorPoint: "top" 172 675 basechar 0
AnchorPoint: "below" 210 -24 basechar 0
LayerCount: 2
Fore
SplineSet
19 284 m 0xda
 19 298 31 300 51 300 c 2
 104 300 l 1
 104 400 l 1
 19 400 l 1
 19 422 l 1xea
 117 426 147 533 148 615 c 1
 173 615 l 1
 173 431 l 1xd6
 316 431 l 1
 316 400 l 1
 173 400 l 1
 173 300 l 1
 287 300 l 2
 302 300 316 299 316 284 c 0
 316 270 303 268 290 268 c 2
 173 268 l 1
 173 122 l 2
 173 105 173 14 240 14 c 0
 277 14 307 52 307 126 c 2
 307 181 l 1
 332 181 l 1
 332 124 l 2
 332 60 304 -11 233 -11 c 0
 197 -11 104 1 104 124 c 2
 104 268 l 1
 44 268 l 2
 30 268 19 270 19 284 c 0xda
EndSplineSet
EndChar

StartChar: longs
Encoding: 383 383 319
Width: 306
GlyphClass: 2
Flags: MW
HStem: 0 31<34 67.5> 400 31<33 112 33 112> 683 22<245 267>
VStem: 112 66<76 78 78 400 400 400 431 546 546 547> 270 87<623 646.5>
AnchorPoint: "top" 239 751 basechar 0
AnchorPoint: "below" 151 -24 basechar 0
LayerCount: 2
Fore
SplineSet
357 635 m 0
 357 611 342 591 313 591 c 0
 286 591 270 611 270 634 c 0
 270 659 288 672 300 676 c 1
 285 683 267 683 267 683 c 1
 223 683 178 635 178 547 c 2
 178 78 l 2
 178 42 180 31 254 31 c 2
 275 31 l 1
 275 0 l 1
 235 3 188 3 148 3 c 2
 34 0 l 1
 34 31 l 1
 101 31 112 31 112 76 c 2
 112 400 l 1
 33 400 l 1
 33 431 l 1
 112 431 l 1
 112 546 l 2
 112 652 197 705 267 705 c 0
 320 705 357 672 357 635 c 0
EndSplineSet
EndChar

StartChar: uni0180
Encoding: 384 384 320
Width: 556
GlyphClass: 2
Flags: MW
HStem: -11 23<263.5 317.5 263.5 355> 0 21G<105 130 105 105> 418 23<280.5 322> 532 31<27 37 37 105 172 287> 653 31<27 34> 675 20G<172 172>
VStem: 105 67<435 532 435 532 435 532 563 590 590 605> 438 84<189.5 247>
AnchorPoint: "top" 136 745 basechar 0
AnchorPoint: "below" 307 -41 basechar 0
LayerCount: 2
Fore
SplineSet
6 548 m 0x73
 6 560 16 563 27 563 c 2
 105 563 l 1
 105 590 l 2
 105 620 107 644 70 650 c 0
 56 652 41 653 27 653 c 1
 27 684 l 1x7b
 172 695 l 1
 172 563 l 1
 287 563 l 2
 300 563 313 561 313 547 c 0
 313 533 300 532 287 532 c 2
 172 532 l 1
 172 435 l 1
 173 377 l 1
 206 416 252 441 309 441 c 0
 420 441 522 346 522 216 c 0
 522 82 411 -11 299 -11 c 0xb7
 220 -11 181 43 167 62 c 1
 130 0 l 1
 105 0 l 1
 105 532 l 1
 37 532 l 2
 17 532 6 533 6 548 c 0x73
175 116 m 2
 175 65 232 12 295 12 c 0xb3
 340 12 381 37 406 75 c 0
 433 115 438 166 438 213 c 0
 438 281 430 326 404 363 c 0
 376 402 340 418 304 418 c 0
 256 418 209 390 184 352 c 0
 174 337 175 332 175 317 c 2
 175 116 l 2
EndSplineSet
EndChar

StartChar: uni0181
Encoding: 385 385 321
Width: 818
GlyphClass: 2
Flags: MW
HStem: 0 31<147 171 171 209.5 382 507 507 539 147 171> 344 22<333 478 478 521 333 478> 530 92<67 67> 652 31<175 209.5 358.5 382 382 506>
VStem: 21 92<564 582.5 562.5 609.5> 250 83<78 344 366 605 605 612> 638 97<482 540.5> 662 100<148.5 217.5>
AnchorPoint: "top" 479 749 basechar 0
AnchorPoint: "below" 484 -19 basechar 0
LayerCount: 2
Fore
SplineSet
21 578 m 0xfd
 21 641 92 683 175 683 c 2
 513 683 l 2
 643 683 735 601 735 514 c 0xfe
 735 440 666 376 569 357 c 1
 680 345 762 270 762 183 c 0
 762 89 672 0 539 0 c 2
 147 0 l 1
 147 31 l 1
 171 31 l 2
 248 31 250 42 250 78 c 2
 250 605 l 2
 250 641 248 652 171 652 c 0
 98 652 76 630 66 622 c 1
 106 618 113 590 113 575 c 0
 113 550 92 530 67 530 c 0
 40 530 21 550 21 578 c 0xfd
333 71 m 2
 333 38 335 31 382 31 c 2
 507 31 l 2
 610 31 662 113 662 184 c 0xfd
 662 251 620 344 521 344 c 2
 333 344 l 1
 333 71 l 2
333 366 m 1
 478 366 l 2
 589 366 638 450 638 514 c 0xfe
 638 567 603 652 506 652 c 2
 382 652 l 2
 335 652 333 645 333 612 c 2
 333 366 l 1
EndSplineSet
EndChar

StartChar: uni0182
Encoding: 386 386 322
Width: 683
GlyphClass: 2
Flags: MW
HStem: 0 31<35 59 35 59 59 97.5 273 362 362 388> 341 26<227 362 224 396> 652 31<35 59 35 525 267.5 306 306 388>
VStem: 138 86<78 341> 514 25<513 513> 521 103<161.5 209.5>
AnchorPoint: "top" 349 749 basechar 0
AnchorPoint: "below" 354 -19 basechar 0
LayerCount: 2
Fore
SplineSet
35 0 m 1xf4
 35 31 l 1
 59 31 l 2
 136 31 138 42 138 78 c 2
 138 605 l 2
 138 641 136 652 59 652 c 2
 35 652 l 1
 35 683 l 1
 525 683 l 1
 539 513 l 1
 514 513 l 1xf8
 505 614 499 652 388 652 c 2
 306 652 l 2
 229 652 227 641 227 605 c 2
 227 367 l 1
 396 367 l 2
 516 367 624 286 624 186 c 0
 624 88 525 0 388 0 c 2
 35 0 l 1xf4
224 71 m 2
 224 38 226 31 273 31 c 2
 362 31 l 2
 521 31 521 137 521 186 c 0xf4
 521 233 521 341 362 341 c 2
 224 341 l 1
 224 71 l 2
EndSplineSet
EndChar

StartChar: uni0183
Encoding: 387 387 323
Width: 514
GlyphClass: 2
Flags: MW
HStem: -11 22<230.5 280 230.5 316.5> 0 21G<65 65 65 90> 420 22<251 285.5> 652 31<171.5 210 210 310>
VStem: 65 66<377 605 377 683> 397 83<198.5 237.5> 436 25<513 513>
AnchorPoint: "top" 266 715 basechar 0
AnchorPoint: "below" 287 -41 basechar 0
LayerCount: 2
Fore
SplineSet
65 0 m 1x7c
 65 683 l 1
 447 683 l 1
 461 513 l 1
 436 513 l 1x7a
 427 614 421 652 310 652 c 2
 210 652 l 2
 133 652 131 641 131 605 c 2
 131 377 l 1
 147 395 190 442 268 442 c 0
 382 442 480 343 480 216 c 0
 480 87 376 -11 257 -11 c 0xbc
 183 -11 141 39 126 62 c 1
 90 0 l 1
 65 0 l 1x7c
134 114 m 2
 134 96 134 93 148 72 c 0
 172 35 208 11 253 11 c 0
 307 11 345 44 366 75 c 0
 395 120 397 180 397 217 c 0xbc
 397 258 394 315 368 356 c 0
 344 394 308 420 263 420 c 0
 239 420 184 412 145 356 c 0
 134 340 134 339 134 320 c 2
 134 114 l 2
EndSplineSet
EndChar

StartChar: uni0184
Encoding: 388 388 324
Width: 682
GlyphClass: 2
Flags: MW
HStem: 0 31<35 59 35 59 59 97.5 273 362 362 388> 341 26<227 362> 663 20G<227 227>
VStem: 138 86<78 341> 521 103<161.5 209.5>
AnchorPoint: "top" 194 749 basechar 0
AnchorPoint: "below" 354 -19 basechar 0
LayerCount: 2
Fore
SplineSet
35 0 m 1
 35 31 l 1
 59 31 l 2
 136 31 138 42 138 78 c 2
 138 367 l 1
 35 505 l 1
 227 683 l 1
 227 367 l 1
 396 367 l 2
 516 367 624 286 624 186 c 0
 624 88 525 0 388 0 c 2
 35 0 l 1
224 71 m 2
 224 38 226 31 273 31 c 2
 362 31 l 2
 521 31 521 137 521 186 c 0
 521 233 521 341 362 341 c 2
 224 341 l 1
 224 71 l 2
EndSplineSet
EndChar

StartChar: uni0185
Encoding: 389 389 325
Width: 556
GlyphClass: 2
Flags: MW
HStem: -11 22<272.5 322 272.5 358.5> 0 21G<107 132 107 107> 420 22<293 327.5> 663 20G<173 173>
VStem: 107 69<105 114 114 320> 439 83<198.5 237.5>
AnchorPoint: "top" 152 739 basechar 0
AnchorPoint: "below" 317 -29 basechar 0
LayerCount: 2
Fore
SplineSet
28 505 m 1x7c
 173 683 l 1
 173 377 l 1
 189 395 232 442 310 442 c 0
 424 442 522 343 522 216 c 0
 522 87 418 -11 299 -11 c 0xbc
 225 -11 183 39 168 62 c 1
 132 0 l 1
 107 0 l 1
 107 370 l 1
 28 505 l 1x7c
176 114 m 2
 176 96 176 93 190 72 c 0
 214 35 250 11 295 11 c 0
 349 11 387 44 408 75 c 0
 437 120 439 180 439 217 c 0
 439 258 436 315 410 356 c 0
 386 394 350 420 305 420 c 0
 281 420 226 412 187 356 c 0
 176 340 176 339 176 320 c 2
 176 114 l 2
EndSplineSet
EndChar

StartChar: uni0186
Encoding: 390 390 326
Width: 722
GlyphClass: 2
Flags: MW
HStem: -21 30<306.5 356 247.5 401> 434 21G<65.5 66 66 69> 676 30<314 316.5>
VStem: 56 2 57 26 564 103<229 368>
AnchorPoint: "bottom" 338 -9 basechar 0
AnchorPoint: "top" 339 749 basechar 0
AnchorPoint: "below" 338 -39 basechar 0
AnchorPoint: "Anchor-4" 316 705 basechar 0
LayerCount: 2
Fore
SplineSet
56 8 m 2xf4
 56 244 l 2
 56 248 57 251 58 255 c 0xf4
 58 259 63 265 72 265 c 0
 94 265 85 235 102 184 c 0
 125 115 185 9 310 9 c 0
 402 9 564 78 564 333 c 0
 564 403 555 514 493 586 c 0
 419 672 328 676 305 676 c 0
 196 676 96 594 83 464 c 0
 81 453 84 434 69 434 c 2
 66 434 l 2
 65 434 64 435 63 435 c 0
 62 435 57 441 57 445 c 0
 56 449 57 452 57 456 c 0xec
 57 568 160 706 314 706 c 2
 319 706 l 2
 498 706 667 554 667 344 c 0
 667 114 479 -21 323 -21 c 0
 290 -21 210 -20 134 65 c 1
 108 26 80 -19 66 -19 c 0
 60 -19 56 -11 56 8 c 2xf4
EndSplineSet
EndChar

StartChar: uni0187
Encoding: 391 391 327
Width: 756
GlyphClass: 2
Flags: MW
HStem: -22 31<385.5 470.5 385.5 485.5> 674 31<384.5 452 310.5 469.5> 846 23<727.5 747.5>
VStem: 56 103<238.5 444> 633 32 640 25<234 234> 737 92<784 810.5>
AnchorPoint: "bottom" 428 -9 basechar 0
AnchorPoint: "top" 429 799 basechar 0
AnchorPoint: "below" 428 -39 basechar 0
LayerCount: 2
Fore
SplineSet
56 342 m 0xf6
 56 546 217 705 404 705 c 0
 500 705 551 655 588 619 c 1
 638 694 639 695 640 696 c 0
 641 839 703 869 745 869 c 0
 788 869 829 839 829 798 c 0
 829 770 808 752 783 752 c 0
 758 752 737 770 737 797 c 0
 737 824 756 836 769 842 c 1
 761 844 752 846 743 846 c 0
 712 846 665 823 665 681 c 2xf6
 665 444 l 2
 665 423 665 420 649 420 c 0
 635 420 635 423 633 437 c 0xfa
 612 583 524 674 415 674 c 0
 354 674 159 640 159 341 c 0
 159 43 355 9 416 9 c 0
 525 9 632 91 640 234 c 0
 641 244 641 250 652 250 c 0
 665 250 665 243 665 233 c 0
 665 117 567 -22 404 -22 c 0
 218 -22 56 135 56 342 c 0xf6
EndSplineSet
EndChar

StartChar: uni0188
Encoding: 392 392 328
Width: 500
GlyphClass: 2
Flags: MW
ItalicCorrection: 83
HStem: -11 26<230.5 279.5 230.5 307.5> 294 92<359 359> 421 26<224.5 285.5> 624 23<467.5 487.5>
VStem: 33 84<149 275.5> 313 92<349.5 353 349.5 353> 380 25<402 459> 386 28 477 92<562 588.5>
AnchorPoint: "bottom" 240 -2 basechar 0
AnchorPoint: "top" 266 505 basechar 0
AnchorPoint: "below" 262 -32 basechar 0
LayerCount: 2
Fore
SplineSet
33 216 m 0xf980
 33 335 121 447 252 447 c 0
 329 447 366 414 380 402 c 1
 380 470 l 2
 380 617 443 647 485 647 c 0
 528 647 569 616 569 576 c 0
 569 548 548 530 523 530 c 0
 498 530 477 548 477 575 c 0
 477 602 496 614 509 620 c 1
 500 622 492 624 483 624 c 0
 452 624 405 602 405 459 c 2xfa80
 405 353 l 2
 405 346 405 338 404 331 c 0
 401 313 384 294 359 294 c 0
 335 294 313 313 313 340 c 0xfc80
 313 366 330 382 360 386 c 1
 350 394 317 421 254 421 c 0
 195 421 117 377 117 216 c 0
 117 63 202 15 259 15 c 0
 300 15 359 34 386 108 c 0
 389 115 391 123 397 127 c 0
 407 132 416 126 414 113 c 0
 409 82 365 -11 250 -11 c 0
 137 -11 33 82 33 216 c 0xf980
EndSplineSet
EndChar

StartChar: uni0189
Encoding: 393 393 329
Width: 763
GlyphClass: 2
Flags: MW
HStem: 0 31<35 59 35 59 59 97.5 273 374 374 401> 652 31<35 59 35 401 249.5 273 273 373>
VStem: 138 86<78 307 307 307 347 378 418 605 605 612> 607 100<280.5 375>
AnchorPoint: "top" 349 749 basechar 0
AnchorPoint: "below" 396 -27 basechar 0
LayerCount: 2
Fore
SplineSet
35 0 m 1
 35 31 l 1
 59 31 l 2
 136 31 138 42 138 78 c 2
 138 307 l 1
 70 251 l 1
 50 275 l 1
 138 347 l 1
 138 605 l 2
 138 641 136 652 59 652 c 2
 35 652 l 1
 35 683 l 1
 401 683 l 2
 572 683 707 526 707 336 c 0
 707 148 569 0 401 0 c 2
 35 0 l 1
224 71 m 2
 224 38 226 31 273 31 c 2
 374 31 l 2
 475 31 532 89 552 116 c 0
 588 165 607 225 607 336 c 0
 607 414 598 500 555 559 c 0
 504 630 435 652 373 652 c 2
 273 652 l 2
 226 652 224 645 224 612 c 2
 224 418 l 1
 292 474 l 1
 312 450 l 1
 224 378 l 1
 224 71 l 2
EndSplineSet
EndChar

StartChar: uni018A
Encoding: 394 394 330
Width: 874
GlyphClass: 2
Flags: MW
HStem: 0 31<146 170 170 208.5 384 485 485 512 146 170> 530 92<67 67> 652 31<175 208.5 360.5 384 384 484>
VStem: 21 92<564 582.5 562.5 609.5> 249 86<78 605 605 612> 718 100<280.5 375>
AnchorPoint: "top" 449 749 basechar 0
AnchorPoint: "below" 466 -27 basechar 0
LayerCount: 2
Fore
SplineSet
21 578 m 0
 21 641 92 683 175 683 c 2
 512 683 l 2
 683 683 818 526 818 336 c 0
 818 148 680 0 512 0 c 2
 146 0 l 1
 146 31 l 1
 170 31 l 2
 247 31 249 42 249 78 c 2
 249 605 l 2
 249 641 247 652 170 652 c 0
 97 652 76 630 66 622 c 1
 106 618 113 590 113 575 c 0
 113 550 92 530 67 530 c 0
 40 530 21 550 21 578 c 0
335 71 m 2
 335 38 337 31 384 31 c 2
 485 31 l 2
 586 31 643 89 663 116 c 0
 699 165 718 225 718 336 c 0
 718 414 709 500 666 559 c 0
 615 630 546 652 484 652 c 2
 384 652 l 2
 337 652 335 645 335 612 c 2
 335 71 l 2
EndSplineSet
EndChar

StartChar: uni018B
Encoding: 395 395 331
Width: 668
GlyphClass: 2
Flags: MW
HStem: 0 31<209.5 393 304 393 393 416.5 607 631> 341 26<270 304 304 439 270 442> 652 31<222.5 278 278 360 568.5 607 607 631>
VStem: 42 103<161.5 209.5 161.5 236> 127 25<513 513> 442 86<71 78 78 341 341 341>
AnchorPoint: "top" 348 724 basechar 0
AnchorPoint: "below" 356 -27 basechar 0
LayerCount: 2
Fore
SplineSet
42 186 m 0xf4
 42 286 150 367 270 367 c 2
 439 367 l 1
 439 605 l 2
 439 641 437 652 360 652 c 2
 278 652 l 2
 167 652 161 614 152 513 c 1
 127 513 l 1xec
 141 683 l 1
 631 683 l 1
 631 652 l 1
 607 652 l 2
 530 652 528 641 528 605 c 2
 528 78 l 2
 528 42 530 31 607 31 c 2
 631 31 l 1
 631 0 l 1
 278 0 l 2
 141 0 42 88 42 186 c 0xf4
145 186 m 0xf4
 145 137 145 31 304 31 c 2
 393 31 l 2
 440 31 442 38 442 71 c 2
 442 341 l 1
 304 341 l 2
 145 341 145 233 145 186 c 0xf4
EndSplineSet
EndChar

StartChar: uni018C
Encoding: 396 396 332
Width: 555
GlyphClass: 2
Flags: MW
HStem: -11 22<228.5 272.5 228.5 278> 0 31<492 527> 420 22<234 278.5> 652 31<148.5 204 204 304>
VStem: 34 83<193.5 232.5 193.5 279.5> 53 25<513 513> 380 69<-11 87 55 87 118 323 323 332>
AnchorPoint: "top" 263 720 basechar 0
AnchorPoint: "below" 263 -34 basechar 0
LayerCount: 2
Fore
SplineSet
34 215 m 0xba
 34 344 139 442 257 442 c 0
 311 442 354 416 383 380 c 1
 383 606 l 2
 381 645 371 652 304 652 c 2
 204 652 l 2
 93 652 87 614 78 513 c 1
 53 513 l 1
 67 683 l 1
 449 683 l 1
 449 87 l 2
 449 38 457 31 527 31 c 1
 527 0 l 1x76
 380 -11 l 1
 380 55 l 1
 355 23 310 -11 246 -11 c 0
 132 -11 34 88 34 215 c 0xba
117 214 m 0xba
 117 173 120 116 146 75 c 0
 170 37 206 11 251 11 c 0
 294 11 339 33 369 81 c 0
 380 98 380 100 380 118 c 2
 380 323 l 2
 380 341 380 343 369 360 c 0
 338 405 296 420 261 420 c 0
 207 420 169 387 148 356 c 0
 119 311 117 251 117 214 c 0xba
EndSplineSet
EndChar

StartChar: uni018D
Encoding: 397 397 333
Width: 495
GlyphClass: 2
Flags: MW
HStem: -120 36<357.5 389> 522 26<210.5 296.5>
VStem: 58 70<299 395> 372 75<269.5 353> 417 23<-39.5 -6>
AnchorPoint: "top" 265 590 basechar 0
AnchorPoint: "below" 279 -151 basechar 0
LayerCount: 2
Fore
SplineSet
58 335 m 0xe8
 58 455 144 548 249 548 c 0
 363 548 447 441 447 315 c 0xf0
 447 224 402 136 327 101 c 0
 318 97 309 94 300 90 c 1
 351 56 440 31 440 -37 c 0
 440 -65 423 -120 355 -120 c 0
 280 -120 98 -63 98 -7 c 0
 98 4 106 22 132 22 c 0
 187 22 217 -41 246 -56 c 0
 299 -84 344 -84 371 -84 c 0
 410 -84 417 -47 417 -32 c 0
 417 20 265 69 200 105 c 0
 128 145 58 224 58 335 c 0xe8
128 369 m 0
 128 229 257 113 276 113 c 0
 295 113 372 150 372 308 c 0
 372 398 347 522 246 522 c 0
 175 522 128 452 128 369 c 0
EndSplineSet
EndChar

StartChar: Ereversed
Encoding: 398 398 334
Width: 681
GlyphClass: 2
Flags: MW
HStem: 0 31<278 411 411 434.5 628 652> 338 31<321.5 460 370 460> 455 31 649 31<205.5 282 282 411 589.5 628 628 652>
VStem: 33 25<258 258> 61 25<455 455> 237 25<221 263.5 443 486> 460 89<71 78 78 338 338 338 369 602>
AnchorPoint: "bottom" 432 2 basechar 0
AnchorPoint: "top" 368 749 basechar 0
AnchorPoint: "below" 382 -22 basechar 0
LayerCount: 2
Fore
SplineSet
652 0 m 1
 75 0 l 1
 33 258 l 1
 58 258 l 1
 83 104 106 31 278 31 c 2
 411 31 l 2
 458 31 460 38 460 71 c 2
 460 338 l 1
 370 338 l 2
 273 338 262 306 262 221 c 1
 237 221 l 1
 237 486 l 1
 262 486 l 1
 262 400 273 369 370 369 c 2
 460 369 l 1
 460 609 l 2
 460 642 458 649 411 649 c 2
 282 649 l 2
 129 649 102 594 86 455 c 1
 61 455 l 1
 89 680 l 1
 652 680 l 1
 652 649 l 1
 628 649 l 2
 551 649 549 638 549 602 c 2
 549 78 l 2
 549 42 551 31 628 31 c 2
 652 31 l 1
 652 0 l 1
EndSplineSet
Position2: "'cpsp' Capital Spacing lookup 0 subtable" dx=7 dy=0 dh=14 dv=0
EndChar

StartChar: uni018F
Encoding: 399 399 335
Width: 676
GlyphClass: 2
Flags: MW
HStem: -22 25<283 364.5 283 407.5> 314 25<122 122 122 530> 674 31<266.5 320>
VStem: 27 95<314 314 314 327.5> 55 29 530 103<314 314 339 364>
AnchorPoint: "top" 326 742 basechar 0
AnchorPoint: "below" 342 -58 basechar 0
AnchorPoint: "Anchor-4" 310 705 basechar 0
AnchorPoint: "Anchor-3" 321 0 basechar 0
LayerCount: 2
Fore
SplineSet
27 318 m 0xf4
 27 337 37 339 53 339 c 2
 530 339 l 1
 530 389 533 581 389 655 c 0
 360 670 332 674 308 674 c 0
 201 674 108 594 88 484 c 0
 87 479 86 474 84 470 c 0
 82 466 75 462 68 462 c 0
 61 462 55 466 55 481 c 2
 55 680 l 2xec
 55 690 55 704 66 704 c 0
 76 704 98 678 132 633 c 1
 173 668 223 705 310 705 c 0
 480 705 633 552 633 339 c 0
 633 138 494 -22 321 -22 c 0
 111 -22 27 146 27 318 c 0xf4
122 314 m 1xf4
 124 60 243 3 323 3 c 0
 406 3 527 76 530 314 c 1
 122 314 l 1xf4
EndSplineSet
EndChar

StartChar: uni0190
Encoding: 400 400 336
Width: 611
GlyphClass: 2
Flags: MW
HStem: -22 31<258.5 363.5 258.5 387> 344 23<317.5 391 330 391 391 392> 481 92<514 534 510.5 534.5> 674 32<285.5 351>
VStem: 41 95<133 214.5> 69 92<491.5 560.5 491.5 573.5> 482 92<515 533> 553 26
AnchorPoint: "bottom" 324 -11 basechar 0
AnchorPoint: "top" 352 749 basechar 0
AnchorPoint: "below" 327 -54 basechar 0
AnchorPoint: "Anchor-4" 333 705 basechar 0
AnchorPoint: "Anchor-3" 307 0 basechar 0
LayerCount: 2
Fore
SplineSet
41 175 m 0xf9
 41 254 110 323 209 350 c 2
 235 357 l 1
 145 378 69 442 69 521 c 0
 69 626 192 706 333 706 c 0
 474 706 574 625 574 532 c 0
 574 489 541 481 528 481 c 0
 500 481 482 503 482 527 c 0
 482 539 487 573 534 573 c 1
 488 669 365 674 337 674 c 0
 234 674 161 601 161 520 c 0xf6
 161 463 203 367 330 367 c 2
 391 367 l 2
 400 367 413 366 414 356 c 0
 414 347 408 344 392 344 c 2
 328 344 l 2
 307 344 287 344 267 339 c 0
 205 324 136 265 136 176 c 0
 136 90 206 9 311 9 c 0
 416 9 541 60 553 168 c 0
 554 176 554 187 560 190 c 0
 569 195 579 189 579 175 c 0
 579 73 467 -22 307 -22 c 0
 145 -22 41 78 41 175 c 0xf9
EndSplineSet
EndChar

StartChar: uni0191
Encoding: 401 401 337
Width: 652
GlyphClass: 2
Flags: MW
HStem: -205 23<66 100.5> 325 31<225 311 225 311> 649 31<33 57 33 582 250.5 274 274 394>
VStem: -29 91<-134 -111 -134 -111> 136 89<7 325 356 602 602 609> 417 25<208 250.5 431 473>
AnchorPoint: "top" 369 749 basechar 0
AnchorPoint: "below" 389 -196 basechar 0
LayerCount: 2
Fore
SplineSet
-29 -126 m 0
 -29 -96 -6 -79 16 -79 c 0
 40 -79 62 -97 62 -125 c 0
 62 -143 53 -163 26 -170 c 1
 43 -179 59 -182 73 -182 c 0
 133 -182 136 -90 136 7 c 2
 136 602 l 2
 136 638 134 649 57 649 c 2
 33 649 l 1
 33 680 l 1
 582 680 l 1
 610 455 l 1
 585 455 l 1
 569 593 544 649 394 649 c 2
 274 649 l 2
 227 649 225 642 225 609 c 2
 225 356 l 1
 311 356 l 2
 407 356 417 389 417 473 c 1
 442 473 l 1
 442 208 l 1
 417 208 l 1
 417 293 407 325 311 325 c 2
 225 325 l 1
 225 7 l 2
 222 -178 126 -205 75 -205 c 0
 25 -205 -29 -177 -29 -126 c 0
EndSplineSet
EndChar

StartChar: florin
Encoding: 402 402 338
Width: 306
GlyphClass: 2
Flags: MW
HStem: 0 31<34 67.5> 400 31<33 112 33 112 178 292 178 178> 591 84 683 22<245 268.5>
VStem: 112 66<76 78 78 400> 270 87<623 646.5>
AnchorPoint: "top" 278 751 basechar 0
AnchorPoint: "below" 166 -29 basechar 0
LayerCount: 2
Fore
SplineSet
357 635 m 0
 357 611 342 591 313 591 c 0
 286 591 270 611 270 634 c 0
 270 659 288 672 300 676 c 1
 285 683 270 683 267 683 c 0
 223 683 175 635 175 547 c 2
 175 431 l 1
 292 431 l 1
 292 400 l 1
 178 400 l 1
 178 78 l 2
 178 42 180 31 254 31 c 2
 275 31 l 1
 275 0 l 1
 235 3 188 3 148 3 c 2
 34 0 l 1
 34 31 l 1
 101 31 112 31 112 76 c 2
 112 400 l 1
 33 400 l 1
 33 431 l 1
 112 431 l 1
 112 546 l 2
 112 652 197 705 267 705 c 0
 320 705 357 672 357 635 c 0
EndSplineSet
EndChar

StartChar: uni0193
Encoding: 403 403 339
Width: 784
GlyphClass: 2
Flags: MW
HStem: -22 31<389.5 436 389.5 442.5> 1 21G<651.5 661.5> 242 31<452 484 452 452> 674 31<386 453.5 311 469.5> 846 23<728 747.5>
VStem: 56 103<239.5 444.5> 577 89<130 194 194 198> 634 32 737 92<784 810.5>
AnchorPoint: "top" 429 799 basechar 0
AnchorPoint: "below" 432 -50 basechar 0
LayerCount: 2
Fore
SplineSet
56 342 m 0xbd80
 56 547 218 705 404 705 c 0
 503 705 557 651 589 619 c 1
 639 694 640 695 640 696 c 0
 641 839 703 869 745 869 c 0
 788 869 829 839 829 798 c 0
 829 770 808 752 783 752 c 0
 758 752 737 770 737 797 c 0
 737 824 756 836 769 842 c 1
 761 844 752 846 743 846 c 0
 713 846 669 825 665 697 c 0
 666 693 666 688 666 681 c 2
 666 444 l 2
 666 423 666 420 650 420 c 0
 636 420 636 423 634 437 c 0xbd80
 613 584 523 674 416 674 c 0
 356 674 159 641 159 342 c 0
 159 44 357 9 422 9 c 0
 450 9 577 18 577 130 c 2
 577 194 l 2
 577 231 574 242 484 242 c 2
 452 242 l 1
 452 273 l 1
 488 270 573 270 613 270 c 0
 643 270 698 272 735 273 c 1
 735 242 l 1
 670 242 666 237 666 198 c 2xbe80
 666 24 l 2
 666 9 666 1 657 1 c 0x7d80
 646 1 606 41 593 63 c 1
 559 4 479 -22 406 -22 c 0
 216 -22 56 137 56 342 c 0xbd80
EndSplineSet
EndChar

StartChar: uni0194
Encoding: 404 404 340
Width: 751
GlyphClass: 2
Flags: MW
HStem: -217 29<364.5 402 364.5 424> 652 31<19 51.5>
VStem: 280 29<-122 -72.5 -123 -68.5> 441 77<-110 -83.5>
AnchorPoint: "top" 422 747 basechar 0
AnchorPoint: "below" 410 -265 basechar 0
LayerCount: 2
Fore
SplineSet
19 652 m 1
 19 683 l 1
 55 682 98 680 146 680 c 0
 184 680 253 680 289 683 c 1
 289 652 l 1
 264 652 207 652 207 623 c 0
 207 621 207 619 213 605 c 2
 404 172 l 1
 587 582 l 2
 589 588 592 594 592 602 c 0
 592 625 571 651 519 652 c 1
 519 683 l 1
 545 682 603 680 633 680 c 0
 659 680 699 681 730 683 c 1
 730 652 l 1
 662 651 637 621 621 585 c 2
 425 131 l 1
 477 50 518 -4 518 -72 c 0
 518 -148 462 -217 386 -217 c 0
 322 -217 280 -159 280 -85 c 0
 280 -52 284 -7 346 79 c 1
 117 614 l 2
 103 652 84 652 19 652 c 1
309 -88 m 0
 309 -158 347 -188 382 -188 c 0
 422 -188 441 -153 441 -111 c 0
 441 -56 401 -7 370 45 c 1
 315 -23 309 -57 309 -88 c 0
EndSplineSet
EndChar

StartChar: uni0195
Encoding: 405 405 341
Width: 767
GlyphClass: 2
Flags: MW
HStem: -11 23<553.5 613> 0 31<31 41> 418 23<287.5 350> 653 31<31 45 31 31> 675 20G<176 176>
VStem: 109 67<346 596 596 621.5> 387 70<275 289 258 293 258 317.5> 707 25<200 287 287 295 170.5 311.5>
AnchorPoint: "top" 149 733 basechar 0
AnchorPoint: "below" 399 -24 basechar 0
LayerCount: 2
Fore
SplineSet
31 0 m 1x67
 31 31 l 1
 41 31 l 2
 97 31 108 38 109 71 c 2
 109 596 l 2
 109 647 94 651 45 653 c 2
 31 653 l 1
 31 684 l 1x77
 176 695 l 1
 176 346 l 1
 191 379 234 441 321 441 c 0
 455 441 457 344 457 289 c 2
 457 258 l 2
 459 60 529 12 578 12 c 0
 664 12 707 131 707 269 c 0
 707 354 632 355 632 399 c 0
 632 423 652 441 674 441 c 0
 724 441 732 366 732 295 c 2
 732 287 l 2
 732 54 650 -11 576 -11 c 0xaf
 500 -11 387 42 387 275 c 2
 387 293 l 2
 387 342 387 418 313 418 c 0
 262 418 179 377 179 252 c 2
 179 76 l 2
 179 38 185 31 249 31 c 2
 256 31 l 1
 256 0 l 1
 217 2 179 3 140 3 c 2
 136 3 l 2
 122 3 89 3 31 0 c 1x67
EndSplineSet
EndChar

StartChar: uni0196
Encoding: 406 406 342
Width: 417
GlyphClass: 2
Flags: MW
HStem: -25 31<285 295 295 306 285 317> 652 31<33 68> 674 20G<200 200>
VStem: 111 89<185 596 596 620.5> 360 30<60.5 93>
AnchorPoint: "top" 164 741 basechar 0
AnchorPoint: "below" 302 -66 basechar 0
LayerCount: 2
Fore
SplineSet
33 652 m 1xd8
 33 683 l 1xd8
 200 694 l 1xb8
 200 181 l 2
 200 17 258 6 285 6 c 2
 295 6 l 2
 317 6 360 28 360 93 c 1
 390 94 l 1
 390 13 341 -25 293 -25 c 0
 177 -25 111 44 111 185 c 2
 111 596 l 2
 111 645 103 652 33 652 c 1xd8
EndSplineSet
EndChar

StartChar: uni0197
Encoding: 407 407 343
Width: 361
GlyphClass: 2
Flags: MW
HStem: 0 31<28 54> 326 32<28 136 28 136 225 333> 652 31<28 54 28 28>
VStem: 136 89<78 326 358 605>
AnchorPoint: "bottom" 237 5 basechar 0
AnchorPoint: "top" 192 749 basechar 0
AnchorPoint: "below" 192 -24 basechar 0
LayerCount: 2
Fore
SplineSet
28 0 m 1
 28 31 l 1
 54 31 l 2
 133 31 136 42 136 78 c 2
 136 326 l 1
 28 326 l 1
 28 358 l 1
 136 358 l 1
 136 605 l 2
 136 641 133 652 54 652 c 2
 28 652 l 1
 28 683 l 1
 63 680 142 680 181 680 c 0
 219 680 298 680 333 683 c 1
 333 652 l 1
 307 652 l 2
 228 652 225 641 225 605 c 2
 225 358 l 1
 333 358 l 1
 333 326 l 1
 225 326 l 1
 225 78 l 2
 225 42 228 31 307 31 c 2
 333 31 l 1
 333 0 l 1
 298 3 219 3 180 3 c 0
 142 3 63 3 28 0 c 1
EndSplineSet
EndChar

StartChar: uni0198
Encoding: 408 408 344
Width: 765
GlyphClass: 2
Flags: MW
HStem: 0 31<33 57> 652 31<33 57 33 33> 668 22<676.5 690>
VStem: 136 89<78 253 287 605> 677 87<610 638>
AnchorPoint: "top" 449 749 basechar 0
AnchorPoint: "below" 431 -20 basechar 0
LayerCount: 2
Fore
SplineSet
33 0 m 1xb8
 33 31 l 1
 57 31 l 2
 134 31 136 42 136 78 c 2
 136 605 l 2
 136 641 134 652 57 652 c 2
 33 652 l 1
 33 683 l 1
 68 680 143 680 181 680 c 0
 219 680 293 680 328 683 c 1
 328 652 l 1
 304 652 l 2xd8
 227 652 225 641 225 605 c 2
 225 287 l 1
 620 663 l 2
 641 683 657 690 682 690 c 0
 732 690 764 663 764 624 c 0
 764 591 738 579 721 579 c 0
 699 579 677 597 677 623 c 0
 677 653 705 664 707 664 c 1
 706 665 697 668 683 668 c 0
 670 668 660 665 650 658 c 2
 400 419 l 1
 631 79 l 2
 661 35 682 31 736 31 c 1
 736 0 l 1
 694 2 656 3 621 3 c 0
 583 3 513 3 478 0 c 1
 478 31 l 1
 498 31 537 31 537 61 c 0
 537 73 528 86 522 95 c 2
 341 363 l 1
 225 253 l 1
 225 78 l 2
 225 42 227 31 304 31 c 2
 328 31 l 1
 328 0 l 1
 293 3 218 3 180 3 c 0
 142 3 68 3 33 0 c 1xb8
EndSplineSet
EndChar

StartChar: uni0199
Encoding: 409 409 345
Width: 528
GlyphClass: 2
Flags: MW
HStem: 0 31<27 34> 400 30<306 306> 683 22<279.5 329>
VStem: 105 67<215 499 499 505 215 515.5> 350 91<596 613>
AnchorPoint: "top" 319 749 basechar 0
AnchorPoint: "below" 301 -20 basechar 0
LayerCount: 2
Fore
SplineSet
27 0 m 1
 27 31 l 1
 34 31 l 2
 95 31 105 36 105 75 c 2
 105 499 l 2
 105 532 104 607 181 666 c 0
 216 692 258 705 301 705 c 0
 376 705 441 667 441 609 c 0
 441 583 426 561 395 561 c 0
 371 561 350 579 350 607 c 0
 350 619 355 649 394 653 c 1
 387 658 357 683 301 683 c 0
 243 683 172 634 172 505 c 2
 172 215 l 1
 333 354 334 351 334 375 c 0
 334 380 332 395 306 400 c 1
 306 430 l 1
 444 428 l 1
 488 430 l 1
 488 400 l 1
 409 396 356 340 280 275 c 1
 294 254 410 89 426 70 c 0
 458 31 477 31 511 31 c 1
 511 0 l 1
 482 2 452 3 422 3 c 0
 386 3 351 2 315 0 c 1
 315 31 l 1
 331 32 349 35 349 54 c 0
 349 71 347 73 232 234 c 1
 177 183 170 187 169 163 c 2
 169 98 l 2
 169 37 169 31 243 31 c 2
 247 31 l 1
 247 0 l 1
 209 2 172 3 134 3 c 0
 123 3 91 3 27 0 c 1
EndSplineSet
EndChar

StartChar: uni019A
Encoding: 410 410 346
Width: 389
GlyphClass: 2
Flags: MW
HStem: 0 31<82 89> 338 31<68.5 160 81 160 81 160 227 284> 653 31<82 114.5> 675 20G<227 227>
VStem: 160 67<72 338 72 338 369 589 589 619>
AnchorPoint: "top" 206 738 basechar 0
AnchorPoint: "below" 208 -22 basechar 0
LayerCount: 2
Fore
SplineSet
50 353 m 0xd8
 50 367 62 369 81 369 c 2
 160 369 l 1
 160 589 l 2
 160 649 147 653 82 653 c 1
 82 684 l 1xe8
 227 695 l 1
 227 369 l 1
 306 369 l 2
 326 369 337 367 337 353 c 0
 337 339 326 337 305 337 c 0
 299 337 292 338 284 338 c 2
 227 338 l 1
 227 72 l 2
 228 36 240 31 298 31 c 2
 305 31 l 1
 305 0 l 1
 267 2 228 3 190 3 c 0
 168 3 136 3 82 0 c 1
 82 31 l 1
 89 31 l 2
 147 31 159 35 160 72 c 2
 160 338 l 1
 75 338 l 2
 62 338 50 339 50 353 c 0xd8
EndSplineSet
EndChar

StartChar: uni019b
Encoding: 411 411 347
Width: 528
GlyphClass: 2
Flags: MW
HStem: -11 21G<427 443 443 467> 672 22
VStem: 47 73<20 20 20 28.5>
AnchorPoint: "top" 261 720 basechar 0
AnchorPoint: "below" 273 -25 basechar 0
LayerCount: 2
Fore
SplineSet
5 683 m 0
 5 693 17 694 24 694 c 2
 28 694 l 1
 126 690 149 646 163 620 c 2
 240 468 l 1
 329 514 357 530 370 530 c 0
 377 530 379 526 383 518 c 0
 387 511 390 504 391 496 c 0
 390 485 374 478 344 463 c 2
 264 423 l 1
 288 375 l 1
 450 60 l 2
 478 7 487 11 487 -1 c 0
 487 -9 478 -11 467 -11 c 2
 443 -11 l 2
 411 -11 398 7 373 55 c 2
 256 284 l 1
 120 20 l 2
 114 8 105 -12 82 -12 c 0
 65 -12 47 4 47 22 c 0
 47 35 58 49 62 55 c 2
 215 280 l 2
 223 292 231 303 240 315 c 1
 202 390 l 1
 85 330 83 328 74 328 c 0
 61 328 50 354 50 363 c 0
 51 373 48 369 178 436 c 1
 64 659 70 658 17 672 c 0
 12 673 5 677 5 683 c 0
EndSplineSet
EndChar

StartChar: uni019C
Encoding: 412 412 348
Width: 1056
GlyphClass: 2
Flags: MW
HStem: -23 33<265.5 349 265.5 352.5 630.5 703.5> 0 31<1022 1037> 652 31<20 20 20 34>
VStem: 122 89<133.5 260> 482 90<170.5 176 133.5 248> 844 90<73 73 73 115 73 115>
AnchorPoint: "top" 558 725 basechar 0
AnchorPoint: "below" 594 -37 basechar 0
LayerCount: 2
Fore
SplineSet
20 652 m 1xbc
 20 683 l 1
 71 681 123 680 174 680 c 0
 231 680 273 682 315 683 c 1
 315 652 l 1
 299 652 l 2
 226 652 213 645 212 610 c 2
 211 176 l 2
 211 91 224 10 307 10 c 0
 391 10 482 93 482 248 c 2
 483 609 l 2
 482 645 470 652 395 652 c 2
 381 652 l 1
 381 683 l 1
 432 681 484 680 535 680 c 0
 592 680 634 682 676 683 c 1
 676 652 l 1
 660 652 l 2
 587 652 574 645 573 610 c 2
 572 176 l 2
 572 91 587 10 668 10 c 0xbc
 751 10 844 93 844 248 c 2
 845 609 l 2
 844 645 831 652 756 652 c 2
 742 652 l 1
 742 683 l 1
 793 681 845 680 896 680 c 0
 953 680 995 682 1037 683 c 1
 1037 652 l 1
 1021 652 l 2
 948 652 936 645 935 610 c 2
 934 73 l 2
 935 37 949 31 1022 31 c 2
 1037 31 l 1
 1037 0 l 1
 984 2 935 3 905 3 c 0
 877 3 854 1 844 0 c 1x7c
 844 115 l 1
 806 34 747 -23 660 -23 c 0
 601 -23 505 -6 486 123 c 1
 464 66 407 -23 298 -23 c 0
 222 -23 179 7 160 33 c 0
 122 87 122 133 122 260 c 2
 123 609 l 2
 122 645 109 652 34 652 c 2
 20 652 l 1xbc
EndSplineSet
EndChar

StartChar: uni019D
Encoding: 413 413 349
Width: 750
GlyphClass: 2
Flags: MW
HStem: -205 23<60 92> 0 21G<595.5 606> 652 31<33 62 33 203>
VStem: -29 91<-134 -111 -134 -111> 136 28<10 625> 585 28<151 578>
AnchorPoint: "top" 391 748 basechar 0
AnchorPoint: "below" 405 -162 basechar 0
LayerCount: 2
Fore
SplineSet
-29 -126 m 0
 -29 -96 -6 -79 16 -79 c 0
 40 -79 62 -97 62 -125 c 0
 62 -143 53 -163 26 -170 c 1
 43 -179 53 -182 67 -182 c 0
 128 -182 136 -88 136 10 c 2
 136 627 l 2
 136 648 137 652 62 652 c 2
 33 652 l 1
 33 683 l 1
 203 683 l 2
 222 683 223 682 232 670 c 2
 585 151 l 1
 585 578 l 2
 585 605 585 652 482 652 c 1
 482 683 l 1
 517 682 566 680 599 680 c 0
 632 680 681 682 716 683 c 1
 716 652 l 1
 613 652 613 605 613 578 c 2
 613 26 l 2
 613 7 613 0 599 0 c 0
 592 0 591 1 582 13 c 2
 174 613 l 2
 170 619 169 620 164 625 c 1
 164 10 l 2
 164 -180 115 -205 69 -205 c 0
 19 -205 -29 -177 -29 -126 c 0
EndSplineSet
EndChar

StartChar: uni019E
Encoding: 414 414 350
Width: 528
GlyphClass: 2
Flags: MW
HStem: -195 31<309 317> 0 31<31 41> 400 30<31 66> 418 23<292 335>
VStem: 109 70<74 253> 386 70<-112 293>
AnchorPoint: "top" 312 501 basechar 0
AnchorPoint: "below" 299 -227 basechar 0
LayerCount: 2
Fore
SplineSet
31 0 m 1xdc
 31 31 l 1
 41 31 l 2
 99 31 109 38 109 74 c 2
 109 333 l 2
 109 394 101 400 31 400 c 1
 31 430 l 1xec
 173 441 l 1
 173 381 l 1
 174 340 l 1
 190 378 233 441 321 441 c 0
 455 441 456 341 456 293 c 2
 456 -121 l 2
 456 -159 471 -164 530 -164 c 2
 534 -164 l 1
 534 -195 l 1
 495 -193 457 -192 418 -192 c 2
 414 -192 l 2
 400 -192 367 -192 309 -195 c 1
 309 -164 l 1
 317 -164 l 2
 373 -164 387 -159 387 -123 c 0
 387 -119 386 -115 386 -112 c 2
 386 312 l 2
 386 390 357 418 313 418 c 0
 271 418 179 385 179 253 c 2
 179 73 l 2
 179 36 192 31 249 31 c 2
 256 31 l 1
 256 0 l 1
 219 2 182 3 145 3 c 0
 107 3 69 2 31 0 c 1xdc
EndSplineSet
EndChar

StartChar: uni019F
Encoding: 415 415 351
Width: 777
GlyphClass: 2
Flags: MW
HStem: -22 26<343 433 343 479> 321 40<159 618 159 617> 680 25<347 431>
VStem: 56 103<321 321 321 361 321 442> 617 104<321 321>
AnchorPoint: "top" 411 750 basechar 0
AnchorPoint: "below" 408 -53 basechar 0
LayerCount: 2
Fore
SplineSet
56 339 m 0
 56 545 209 705 388 705 c 0
 570 705 721 543 721 339 c 0
 721 137 570 -22 388 -22 c 0
 210 -22 56 134 56 339 c 0
159 321 m 1
 170 84 297 4 389 4 c 0
 477 4 606 81 617 321 c 1
 159 321 l 1
159 361 m 1
 618 361 l 1
 615 610 474 680 388 680 c 0
 306 680 162 613 159 361 c 1
EndSplineSet
EndChar

StartChar: Ohorn
Encoding: 416 416 352
Width: 778
GlyphClass: 2
Flags: MW
HStem: -22 26<353 422.5 353 432.5> 680 109
VStem: 55 103<311.5 386.5> 617 103<311.5 386.5 291.5 396>
AnchorPoint: "top" 389 774 basechar 0
AnchorPoint: "below" 389 -52 basechar 0
LayerCount: 2
Fore
SplineSet
720 339 m 0
 720 244 687 153 623 84 c 0
 562 18 477 -22 388 -22 c 0
 298 -22 214 18 153 84 c 0
 89 153 55 244 55 339 c 0
 55 434 89 527 153 598 c 0
 213 665 298 705 388 705 c 0
 455 705 520 682 574 643 c 1
 597 648 616 664 627 685 c 1
 623 684 619 683 614 683 c 0
 579 683 561 710 561 736 c 0
 561 762 579 789 614 789 c 0
 645 789 667 759 667 726 c 0
 667 678 639 635 598 623 c 1
 606 615 615 607 623 598 c 0
 687 527 720 434 720 339 c 0
617 355 m 0
 617 437 603 520 556 586 c 0
 517 642 456 680 388 680 c 0
 320 680 259 642 219 586 c 0
 172 520 158 437 158 355 c 0
 158 268 171 178 219 105 c 0
 258 47 318 4 388 4 c 0
 457 4 518 47 556 105 c 0
 604 178 617 268 617 355 c 0
EndSplineSet
Position2: "'cpsp' Capital Spacing lookup 0 subtable" dx=7 dy=0 dh=14 dv=0
EndChar

StartChar: ohorn
Encoding: 417 417 353
Width: 500
GlyphClass: 2
Flags: MW
HStem: -11 25<227.5 270.5 227.5 278.5> 425 111
VStem: 28 83<197.5 243> 383 87 387 83<197.5 241 182.5 249> 405 83
AnchorPoint: "bottom" 250 -7 basechar 0
AnchorPoint: "top" 250 505 basechar 0
AnchorPoint: "below" 251 -32 basechar 0
LayerCount: 2
Fore
SplineSet
488 473 m 0xf0
 488 423 458 378 414 369 c 1
 451 325 470 270 470 212 c 0x08
 470 153 447 96 405 54 c 0x04
 364 13 308 -11 249 -11 c 0
 190 -11 134 13 92 54 c 0
 51 96 28 153 28 212 c 0
 28 274 50 334 92 378 c 0
 133 422 190 447 249 447 c 0
 303 447 355 426 394 390 c 1
 418 395 438 411 449 432 c 1
 445 431 440 430 436 430 c 0
 400 430 383 457 383 483 c 0
 383 510 400 536 436 536 c 0
 467 536 488 506 488 473 c 0xf0
387 224 m 0
 387 274 385 327 356 368 c 0
 332 404 292 425 249 425 c 0
 206 425 166 404 142 368 c 0
 113 327 111 274 111 224 c 0
 111 171 112 116 142 72 c 0
 165 36 206 14 249 14 c 0
 292 14 333 36 356 72 c 0
 385 116 387 171 387 224 c 0
EndSplineSet
EndChar

StartChar: uni01A2
Encoding: 418 418 354
Width: 852
GlyphClass: 2
Flags: MW
HStem: -200 31<575 601> -22 26<340 424.5 340 425.5> 621 14 680 25<345.5 411.5>
VStem: 55 103<236.5 442> 511 89<73 547 58 614 58 614> 683 89<-122 605 605 610.5>
AnchorPoint: "top" 478 799 basechar 0
AnchorPoint: "below" 456 -235 basechar 0
LayerCount: 2
Fore
SplineSet
55 339 m 0
 55 545 208 705 387 705 c 0
 460 705 527 635 597 635 c 0
 685 635 735 706 772 706 c 1
 772 -122 l 2
 772 -158 775 -169 854 -169 c 2
 880 -169 l 1
 880 -200 l 1
 845 -197 766 -197 727 -197 c 0
 689 -197 610 -197 575 -200 c 1
 575 -169 l 1
 601 -169 l 2
 680 -169 683 -158 683 -122 c 2
 683 605 l 2
 683 616 677 621 669 621 c 0
 654 621 632 607 622 597 c 0
 602 577 600 547 600 547 c 1
 600 58 l 1
 543 10 464 -22 387 -22 c 0
 209 -22 55 134 55 339 c 0
158 353 m 0
 158 92 292 4 388 4 c 0
 461 4 491 48 511 73 c 1
 511 614 l 1
 475 660 436 680 387 680 c 0
 304 680 158 612 158 353 c 0
EndSplineSet
EndChar

StartChar: uni01A3
Encoding: 419 419 355
Width: 611
GlyphClass: 2
Flags: MW
HStem: -199 31<397 430.5> -13 24<238 292.5 238 297> 389 26 427 21<241.5 284>
VStem: 38 83<153.5 285.5> 348 66<48 337 39 385 39 385> 475 66<-123 384 384 384>
AnchorPoint: "top" 278 502 basechar 0
AnchorPoint: "below" 294 -229 basechar 0
LayerCount: 2
Fore
SplineSet
38 219 m 0
 38 352 153 448 268 448 c 0
 315 448 359 415 404 415 c 0
 461 415 517 448 541 448 c 1
 541 -123 l 2
 541 -168 552 -168 619 -168 c 1
 619 -199 l 1
 582 -198 533 -196 508 -196 c 0
 483 -196 430 -198 397 -199 c 1
 397 -168 l 1
 464 -168 475 -168 475 -123 c 2
 475 384 l 2
 474 388 472 389 468 389 c 0
 456 389 414 368 414 337 c 2
 414 39 l 1
 378 8 326 -13 268 -13 c 0
 154 -13 38 88 38 219 c 0
121 228 m 0
 121 61 207 11 269 11 c 0
 316 11 335 32 348 48 c 1
 348 385 l 1
 325 415 300 427 268 427 c 0
 215 427 121 395 121 228 c 0
EndSplineSet
EndChar

StartChar: uni01A4
Encoding: 420 420 356
Width: 791
GlyphClass: 2
Flags: MW
HStem: 0 31<146 170> 316 26<338 473 473 507 338 338> 530 92<67 67> 652 31<175 208.5 360.5 384 384 473>
VStem: 21 92<564 582.5 562.5 609.5> 249 86<342 342 342 605 605 612> 632 103<473.5 521.5>
AnchorPoint: "top" 449 731 basechar 0
AnchorPoint: "below" 308 -29 basechar 0
LayerCount: 2
Fore
SplineSet
21 578 m 0
 21 641 92 683 175 683 c 2
 499 683 l 2
 636 683 735 595 735 497 c 0
 735 397 627 316 507 316 c 2
 338 316 l 1
 338 78 l 2
 338 42 340 31 417 31 c 2
 441 31 l 1
 441 0 l 1
 406 3 331 3 293 3 c 0
 255 3 181 3 146 0 c 1
 146 31 l 1
 170 31 l 2
 247 31 249 42 249 78 c 2
 249 605 l 2
 249 641 247 652 170 652 c 0
 104 652 76 630 66 622 c 1
 106 618 113 590 113 575 c 0
 113 550 92 530 67 530 c 0
 40 530 21 550 21 578 c 0
335 342 m 1
 473 342 l 2
 632 342 632 450 632 497 c 0
 632 546 632 652 473 652 c 2
 384 652 l 2
 337 652 335 645 335 612 c 2
 335 342 l 1
EndSplineSet
EndChar

StartChar: uni01A5
Encoding: 421 421 357
Width: 528
GlyphClass: 2
Flags: MW
HStem: -195 31<0 6> -11 23<235.5 289.5 235.5 328> 418 23<273.5 295> 683 23<273 359>
VStem: 78 70<-125 -109 -109 51 90.5 116 116 317> 404 92<594 627> 411 83<188.5 246>
AnchorPoint: "top" 278 781 basechar 0
AnchorPoint: "below" 298 -258 basechar 0
LayerCount: 2
Fore
SplineSet
0 -164 m 1xfa
 6 -164 l 2
 61 -164 77 -160 78 -125 c 2
 78 508 l 2
 78 643 205 706 321 706 c 0
 397 706 496 686 496 608 c 0
 496 578 472 561 449 561 c 0
 425 561 404 581 404 607 c 0xfc
 404 647 443 652 447 653 c 1
 428 664 397 683 321 683 c 0
 225 683 145 614 145 509 c 2
 145 377 l 1
 198 440 265 441 282 441 c 0
 392 441 494 347 494 216 c 0
 494 81 384 -11 272 -11 c 0
 197 -11 160 36 148 51 c 1
 148 -109 l 2
 148 -156 151 -164 218 -164 c 2
 225 -164 l 1
 225 -195 l 1
 186 -193 148 -192 109 -192 c 2
 105 -192 l 2
 91 -192 58 -192 0 -195 c 1
 0 -164 l 1xfa
148 116 m 2
 148 65 204 12 267 12 c 0
 312 12 354 37 379 75 c 0
 406 115 411 165 411 212 c 0xfa
 411 280 403 326 377 363 c 0
 349 402 313 418 277 418 c 0
 229 418 182 390 157 352 c 0
 147 337 148 332 148 317 c 2
 148 116 l 2
EndSplineSet
EndChar

StartChar: uni01A6
Encoding: 422 422 358
Width: 722
GlyphClass: 2
Flags: MW
HStem: -177 22<622 653.5 604 676> 0 31<35 59> 331 22<224 335 335 339 224 335> 580 32<304 426.5> 652 31<35 59 35 35>
VStem: 138 86<78 331 353 540> 470 87 507 103<438.5 520.5 434 523.5> 707 25<4.29497e+09 4.29497e+09>
AnchorPoint: "top" 383 747 basechar 0
AnchorPoint: "below" 363 -141 basechar 0
LayerCount: 2
Fore
SplineSet
35 0 m 1xfe80
 35 31 l 1
 59 31 l 2
 136 31 138 42 138 78 c 2
 138 605 l 2
 138 641 136 652 59 652 c 2
 35 652 l 1
 35 683 l 1
 70 680 145 680 183 680 c 0
 221 680 295 680 330 683 c 1
 330 652 l 1
 306 652 l 2
 234 652 227 642 227 611 c 1
 329 612 341 612 354 612 c 0
 499 612 610 568 610 473 c 0xfd80
 610 395 532 364 435 340 c 1
 490 321 557 267 557 186 c 1
 573 -49 567 -155 641 -155 c 0
 666 -155 701 -137 707 -66 c 0
 708 -59 708 -50 719 -50 c 0
 732 -50 732 -61 732 -67 c 0
 732 -95 715 -177 637 -177 c 0
 607 -177 552 -172 511 -135 c 0
 470 -98 470 -2 470 63 c 0
 470 130 470 261 432 297 c 0
 397 331 355 331 339 331 c 2
 224 331 l 1
 224 78 l 2
 224 42 226 31 303 31 c 2
 327 31 l 1
 327 0 l 1
 291 3 220 3 181 3 c 0
 142 3 71 3 35 0 c 1xfe80
224 353 m 1
 335 353 l 2
 483 353 507 404 507 473 c 0
 507 574 421 580 339 580 c 2
 304 580 l 2
 226 580 224 580 224 540 c 2
 224 353 l 1
EndSplineSet
EndChar

StartChar: uni01A7
Encoding: 423 423 359
Width: 555
GlyphClass: 2
Flags: MW
HStem: -22 30<213 300.5 213 311.5> 677 29<266.5 305 266.5 348>
VStem: 57 65<138 167.5 116 234> 85 24<463 692> 436 65<536.5 552.5> 475 26<197 199.5>
AnchorPoint: "bottom" 270 -14 basechar 0
AnchorPoint: "top" 312 749 basechar 0
AnchorPoint: "below" 288 -53 basechar 0
LayerCount: 2
Fore
SplineSet
57 186 m 0xe4
 57 282 115 350 176 377 c 0
 220 398 333 409 376 437 c 0
 432 473 436 527 436 546 c 0
 436 608 391 677 305 677 c 0
 126 677 115 491 109 465 c 0
 109 461 99 457 98 457 c 0
 97 457 94 458 93 458 c 0
 86 461 85 468 85 475 c 2
 85 692 l 2
 86 699 90 704 96 704 c 0
 106 704 109 697 146 635 c 1
 177 671 228 706 305 706 c 1
 332 704 l 1
 446 688 501 592 501 513 c 0xd8
 501 414 435 350 371 329 c 0
 321 313 237 298 206 285 c 0
 134 255 122 184 122 151 c 0
 122 81 173 8 253 8 c 0
 348 8 451 55 472 173 c 1
 475 197 l 2
 475 202 475 207 476 212 c 0
 476 220 483 226 489 226 c 0
 495 226 501 221 501 207 c 2
 501 -8 l 2
 499 -16 495 -21 490 -21 c 0
 477 -21 451 25 439 48 c 1
 417 28 366 -22 257 -22 c 0
 122 -22 57 90 57 186 c 0xe4
EndSplineSet
EndChar

StartChar: uni01A8
Encoding: 424 424 360
Width: 394
GlyphClass: 2
Flags: MW
HStem: -11 23<152 202 152 224> 426 21<184 192 184 200 184 211>
VStem: 34 48<82.5 142 82.5 167.5> 58 26<315 424> 312 48<313.5 348.5 309 379> 340 21
AnchorPoint: "bottom" 199 -5 basechar 0
AnchorPoint: "top" 213 482 basechar 0
AnchorPoint: "below" 210 -46 basechar 0
LayerCount: 2
Fore
SplineSet
34 127 m 0xe4
 34 208 99 248 147 262 c 0
 180 272 312 276 312 351 c 0
 312 407 251 426 211 426 c 2
 200 426 l 2
 88 426 84 325 84 320 c 0
 84 310 82 299 70 299 c 0
 62 299 58 310 58 324 c 2
 58 424 l 2
 58 440 63 446 69 446 c 0
 78 446 93 432 106 419 c 1
 145 445 177 447 191 447 c 0
 193 447 195 446 196 446 c 0
 333 446 360 373 360 324 c 0xd8
 360 294 345 221 224 200 c 0
 184 193 82 184 82 100 c 0
 82 65 102 12 202 12 c 1
 331 21 326 158 340 165 c 0
 343 167 346 168 348 168 c 0
 355 168 361 160 361 151 c 2
 361 11 l 2
 361 -2 357 -10 350 -10 c 0
 341 -10 330 2 305 33 c 1
 279 8 253 -11 195 -11 c 0
 100 -11 34 38 34 127 c 0xe4
EndSplineSet
EndChar

StartChar: uni01A9
Encoding: 425 425 361
Width: 722
GlyphClass: 2
Flags: MW
HStem: 0 42<120 359 359 455.5> 652 31<169 379 169 169>
AnchorPoint: "top" 396 714 basechar 0
AnchorPoint: "below" 386 -23 basechar 0
LayerCount: 2
Fore
SplineSet
56 667 m 0
 56 682 67 683 78 683 c 2
 638 683 l 1
 666 458 l 1
 640 458 l 1
 618 630 560 652 379 652 c 2
 169 652 l 1
 365 368 l 2
 374 355 379 348 379 342 c 0
 379 335 373 328 362 315 c 2
 120 42 l 1
 359 42 l 2
 552 42 617 55 640 237 c 1
 666 237 l 1
 638 0 l 1
 77 0 l 2
 69 0 57 2 57 12 c 0
 57 19 64 26 69 32 c 2
 305 298 l 1
 295 311 286 325 277 339 c 2
 66 644 l 2
 61 651 56 659 56 667 c 0
EndSplineSet
EndChar

StartChar: uni01AA
Encoding: 426 426 362
Width: 332
GlyphClass: 2
Flags: MW
HStem: -205 23<238 269 238 288> 503 22<67.5 93 67.5 96.5> 682 23<67.5 109.5>
VStem: -1 26<586 622.5 586 630> 132 67<-43 515 515 515> 268 91<-138.5 -112.5 -146 -111>
AnchorPoint: "top" 101 776 basechar 0
AnchorPoint: "below" 261 -258 basechar 0
LayerCount: 2
Fore
SplineSet
-1 604 m 0
 -1 656 34 705 88 705 c 0
 154 705 199 639 199 546 c 2
 199 -47 l 2
 199 -137 216 -182 260 -182 c 0
 278 -182 292 -176 304 -170 c 1
 285 -164 268 -152 268 -125 c 0
 268 -97 291 -79 314 -79 c 0
 339 -79 359 -99 359 -126 c 0
 359 -166 318 -205 258 -205 c 0
 207 -205 132 -168 132 -43 c 2
 132 515 l 1
 120 508 105 503 88 503 c 0
 35 503 -1 552 -1 604 c 0
25 604 m 0
 25 568 47 525 88 525 c 0
 98 525 132 530 132 563 c 2
 132 576 l 2
 131 609 132 682 87 682 c 0
 48 682 25 641 25 604 c 0
EndSplineSet
EndChar

StartChar: uni01AB
Encoding: 427 427 363
Width: 417
GlyphClass: 2
Flags: MW
HStem: -205 23<220.5 250> -11 26<233.5 241.5> 400 22<18 18 18 103> 400 30<173 316 173 316>
VStem: 103 70<128 129 129 400> 126 91<-139 -113> 148 25<615 615> 307 26<-43 29 29 29 110 138 138 181>
AnchorPoint: "top" 171 666 basechar 0
AnchorPoint: "below" 241 -256 basechar 0
LayerCount: 2
Fore
SplineSet
18 400 m 1xe9
 18 422 l 1xe9
 121 428 147 539 148 615 c 1
 173 615 l 1
 173 430 l 1xd3
 316 430 l 1
 316 400 l 1
 173 400 l 1
 173 129 l 2xd9
 173 88 177 49 205 27 c 0
 215 19 227 15 240 15 c 0
 280 15 304 59 307 110 c 0
 308 119 307 129 307 138 c 2
 307 181 l 1
 333 181 l 1
 333 -47 l 2
 333 -167 274 -205 226 -205 c 0
 172 -205 126 -170 126 -126 c 0
 126 -100 144 -79 171 -79 c 0
 194 -79 217 -97 217 -125 c 0xd5
 217 -153 199 -164 180 -171 c 1
 197 -179 214 -182 227 -182 c 0
 285 -182 307 -116 307 -43 c 2
 307 29 l 1
 282 -8 250 -11 233 -11 c 0
 175 -11 103 17 103 128 c 2
 103 400 l 1
 18 400 l 1xe9
EndSplineSet
EndChar

StartChar: uni01AC
Encoding: 428 428 364
Width: 722
GlyphClass: 2
Flags: MW
HStem: 0 31<171 211> 524 92<67 67> 646 31<134.5 666 175 241 443 555.5>
VStem: 21 92<558 576.5 556.5 603.5> 316 89<79 606> 660 25<452 452>
AnchorPoint: "bottom" 382 6 basechar 0
AnchorPoint: "top" 386 709 basechar 0
AnchorPoint: "below" 384 -24 basechar 0
LayerCount: 2
Fore
SplineSet
21 572 m 0
 21 635 92 677 175 677 c 2
 666 677 l 1
 685 452 l 1
 660 452 l 1
 646 613 631 646 480 646 c 0
 406 646 405 645 405 606 c 2
 405 79 l 2
 405 45 405 31 510 31 c 2
 550 31 l 1
 550 0 l 1
 509 3 406 3 360 3 c 0
 314 3 212 3 171 0 c 1
 171 31 l 1
 211 31 l 2
 316 31 316 45 316 79 c 2
 316 606 l 2
 316 644 315 646 241 646 c 2
 171 646 l 2
 98 646 76 624 66 616 c 1
 106 612 113 584 113 569 c 0
 113 544 92 524 67 524 c 0
 40 524 21 544 21 572 c 0
EndSplineSet
EndChar

StartChar: uni01AD
Encoding: 429 429 365
Width: 417
GlyphClass: 2
Flags: MW
HStem: -11 26<233.5 260 233.5 269> 400 30<18 106 18 103 173 316> 613 23<214 257.5>
VStem: 103 70<128 129 129 400> 268 92<546.5 572.5> 307 26<110 130 130 138 138 181>
AnchorPoint: "bottom" 248 -1 basechar 0
AnchorPoint: "top" 263 676 basechar 0
AnchorPoint: "below" 248 -40 basechar 0
LayerCount: 2
Fore
SplineSet
18 400 m 1xf4
 18 430 l 1
 106 430 l 1
 106 466 l 2
 106 504 109 527 126 560 c 0
 138 582 174 636 247 636 c 0
 310 636 360 606 360 560 c 0
 360 527 334 513 315 513 c 0
 288 513 268 534 268 559 c 0xf8
 268 586 287 596 300 603 c 1
 282 609 265 613 250 613 c 0
 178 613 173 519 173 466 c 2
 173 430 l 1
 316 430 l 1
 316 400 l 1
 173 400 l 1
 173 129 l 2
 173 88 177 49 205 27 c 0
 215 19 227 15 240 15 c 0
 280 15 304 59 307 110 c 0
 308 119 307 129 307 138 c 2
 307 181 l 1
 333 181 l 1
 333 130 l 2
 333 58 305 -11 233 -11 c 0
 189 -11 103 7 103 128 c 2
 103 400 l 1
 18 400 l 1xf4
EndSplineSet
EndChar

StartChar: uni01AE
Encoding: 430 430 366
Width: 722
GlyphClass: 2
Flags: MW
HStem: -205 23<440.5 475 438 491> 646 31<165.5 278 443 555.5>
VStem: 36 25<452 452> 316 89<6 606> 479 91<-134 -111> 660 25<452 452>
AnchorPoint: "top" 386 721 basechar 0
AnchorPoint: "below" 386 -260 basechar 0
LayerCount: 2
Fore
SplineSet
36 452 m 1
 55 677 l 1
 666 677 l 1
 685 452 l 1
 660 452 l 1
 646 613 631 646 480 646 c 0
 406 646 405 645 405 606 c 2
 405 6 l 2
 405 -90 408 -182 468 -182 c 0
 482 -182 498 -179 515 -170 c 1
 488 -163 479 -143 479 -125 c 0
 479 -97 501 -79 525 -79 c 0
 547 -79 570 -96 570 -126 c 0
 570 -177 516 -205 466 -205 c 0
 415 -205 316 -178 316 6 c 2
 316 606 l 2
 316 644 315 646 241 646 c 0
 90 646 75 613 61 452 c 1
 36 452 l 1
EndSplineSet
EndChar

StartChar: Uhorn
Encoding: 431 431 367
Width: 750
GlyphClass: 2
Flags: MW
HStem: -22 30<364.5 414.5 364.5 418.5> 610 27 617 30 653 27 653 30<33 47.5> 769 20G<655.5 688.5>
VStem: 136 88<228 617> 180 30 526 30 582 30<228 589 589 598.5>
AnchorPoint: "bottom" 388 -13 basechar 0
AnchorPoint: "top" 420 752 basechar 0
AnchorPoint: "below" 388 -50 basechar 0
LayerCount: 2
Fore
SplineSet
726 725 m 0x0c40
 726 663 674 617 612 610 c 1
 612 228 l 2
 612 162 590 99 547 51 c 0
 506 5 449 -22 388 -22 c 0
 322 -22 257 4 210 51 c 0xc140
 162 98 136 161 136 228 c 2
 136 617 l 2
 136 629 130 642 119 647 c 0
 101 653 62 653 33 653 c 1
 33 683 l 1
 33 683 180 680 180 680 c 1x2a
 180 680 327 683 327 683 c 1x08
 327 653 l 1
 298 653 259 653 242 647 c 0
 230 642 224 629 224 617 c 2x32
 224 228 l 2
 224 163 235 111 266 70 c 0
 295 32 341 8 388 8 c 0
 441 8 490 31 526 71 c 0
 563 113 582 169 582 228 c 2
 582 589 l 2
 582 608 572 626 556 637 c 0
 533 651 506 653 479 653 c 1
 479 683 l 1
 479 683 597 680 597 680 c 2xcac0
 602 680 607 681 612 683 c 1
 612 635 l 1
 646 640 676 658 691 686 c 1
 686 684 680 683 673 683 c 0
 638 683 620 710 620 736 c 0
 620 762 638 789 673 789 c 0
 704 789 726 758 726 725 c 0x0c40
EndSplineSet
Position2: "'cpsp' Capital Spacing lookup 0 subtable" dx=7 dy=0 dh=14 dv=0
EndChar

StartChar: uhorn
Encoding: 432 432 368
Width: 556
GlyphClass: 2
Flags: MW
HStem: 389 42 400 31 400 42
VStem: 109 70<121 344 344 353> 386 69<158 349 349 357>
CounterMasks: 1 e0
AnchorPoint: "bottom" 464 -4 basechar 0
AnchorPoint: "top" 262 505 basechar 0
AnchorPoint: "below" 266 -25 basechar 0
LayerCount: 2
Fore
SplineSet
571 471 m 0x58
 571 411 518 370 455 360 c 1
 455 86 l 2
 455 69 455 49 468 40 c 0
 481 31 510 31 533 31 c 1
 533 0 l 1
 389 -11 l 1
 389 78 l 1
 366 26 322 -11 266 -11 c 0
 218 -11 179 -4 148 21 c 0
 121 44 109 81 109 121 c 2
 109 344 l 2
 109 362 109 381 96 391 c 0
 83 400 54 400 32 400 c 1
 32 430 l 1
 179 442 l 1
 179 121 l 2
 179 77 181 52 194 36 c 0
 209 18 235 11 268 11 c 0
 335 11 385 77 386 158 c 2
 386 349 l 2
 386 365 385 382 373 391 c 0
 360 400 331 400 308 400 c 1
 308 430 l 1
 455 442 l 1x38
 455 389 l 1x98
 487 395 514 409 530 431 c 1
 526 431 522 430 518 430 c 0
 483 430 465 457 465 483 c 0
 465 510 483 536 518 536 c 0
 550 536 571 505 571 471 c 0x58
EndSplineSet
EndChar

StartChar: uni01B1
Encoding: 433 433 369
Width: 722
GlyphClass: 2
Flags: MW
HStem: 0 22<314 407 314 446.5> 640 65<124 166 166 230 230 233 488 555 488 488>
VStem: 44 25<543 543> 55 103<182.5 324 171 325.5> 563 103<182 322.5> 651 26<543 543>
AnchorPoint: "top" 386 742 basechar 0
AnchorPoint: "below" 383 -24 basechar 0
LayerCount: 2
Fore
SplineSet
44 543 m 1xe0
 77 705 l 1
 230 705 l 2
 254 705 262 704 262 682 c 0
 262 546 158 398 158 250 c 0
 158 92 268 22 360 22 c 0
 454 22 563 93 563 250 c 0xd8
 563 395 459 546 459 683 c 0
 459 704 469 705 484 705 c 2
 644 705 l 1
 677 543 l 1
 651 543 l 1xc4
 631 637 637 640 555 640 c 2
 488 640 l 1
 526 498 666 400 666 250 c 0
 666 114 533 0 360 0 c 0
 186 0 55 115 55 250 c 0xd8
 55 401 195 499 233 640 c 1
 166 640 l 2
 82 640 89 636 69 543 c 1
 44 543 l 1xe0
EndSplineSet
EndChar

StartChar: uni01B2
Encoding: 434 434 370
Width: 724
GlyphClass: 2
Flags: MW
HStem: -22 31<307.5 374.5 307.5 381.5> 652 31<33 33 33 57> 674 23<549.5 569.5>
VStem: 136 89<228 605> 468 92<612 638.5 611.5 646.5> 626 31<393 584>
AnchorPoint: "top" 430 713 basechar 0
AnchorPoint: "below" 348 -60 basechar 0
LayerCount: 2
Fore
SplineSet
33 652 m 1xdc
 33 683 l 1
 68 680 143 680 181 680 c 0
 219 680 293 680 328 683 c 1
 328 652 l 1
 304 652 l 2xdc
 227 652 225 641 225 605 c 2
 225 224 l 2
 225 34 284 9 331 9 c 0
 418 9 510 107 554 184 c 0
 577 223 626 273 626 513 c 0
 626 655 585 674 554 674 c 0
 545 674 536 672 528 670 c 1
 541 664 560 652 560 625 c 0
 560 598 539 580 514 580 c 0
 489 580 468 598 468 626 c 0
 468 667 509 697 552 697 c 0xbc
 594 697 657 667 657 524 c 0
 657 259 606 206 580 163 c 0
 530 82 434 -22 329 -22 c 0
 193 -22 136 87 136 228 c 2
 136 605 l 2
 136 641 134 652 57 652 c 2
 33 652 l 1xdc
EndSplineSet
EndChar

StartChar: uni01B3
Encoding: 435 435 371
Width: 749
GlyphClass: 2
Flags: MW
HStem: 0 31<228 252> 652 31<11 11 11 29> 667 22<678 691>
VStem: 331 86<78 80 80 273> 678 87<609 637>
AnchorPoint: "top" 402 704 basechar 0
AnchorPoint: "below" 396 -21 basechar 0
LayerCount: 2
Fore
SplineSet
11 652 m 1xd8
 11 683 l 1
 53 681 99 680 141 680 c 0
 180 680 253 680 289 683 c 1
 289 652 l 1xd8
 244 652 219 648 219 627 c 0
 219 622 219 620 226 610 c 2
 407 315 l 1
 622 665 l 2
 635 685 659 689 683 689 c 0
 733 689 765 662 765 623 c 0
 765 590 739 578 722 578 c 0
 700 578 678 596 678 622 c 0
 678 652 706 663 708 663 c 1
 707 664 698 667 684 667 c 0xb8
 672 667 656 661 645 644 c 2
 417 273 l 1
 417 80 l 2
 417 41 420 31 497 31 c 2
 520 31 l 1
 520 0 l 1
 484 3 413 3 374 3 c 0
 335 3 264 3 228 0 c 1
 228 31 l 1
 252 31 l 2
 329 31 331 42 331 78 c 2
 331 273 l 1
 121 615 l 2
 105 641 97 652 29 652 c 2
 11 652 l 1xd8
EndSplineSet
EndChar

StartChar: uni01B4
Encoding: 436 436 372
Width: 640
GlyphClass: 2
Flags: MW
HStem: -205 22<108.5 142.5> 400 31<19 43> 667 22<578.5 592>
VStem: 19 84<-131 -110 -131 -109> 579 87<609 637>
AnchorPoint: "top" 350 694 basechar 0
AnchorPoint: "below" 438 -170 basechar 0
LayerCount: 2
Fore
SplineSet
19 -124 m 0
 19 -94 41 -81 61 -81 c 0
 84 -81 103 -97 103 -123 c 0
 103 -139 95 -161 64 -165 c 1
 83 -183 106 -183 111 -183 c 0
 181 -183 206 -105 250 0 c 1
 100 365 l 2
 86 400 67 400 19 400 c 1
 19 431 l 1
 49 429 89 428 116 428 c 0
 133 428 199 430 225 431 c 1
 225 400 l 1
 206 400 169 400 169 374 c 0
 169 370 171 366 175 356 c 2
 286 87 l 1
 515 643 l 2
 529 678 559 689 584 689 c 0
 634 689 666 662 666 623 c 0
 666 590 640 578 623 578 c 0
 601 578 579 596 579 622 c 0
 579 652 607 663 609 663 c 1
 608 664 599 667 585 667 c 0
 572 667 546 662 535 626 c 2
 239 -91 l 2
 215 -148 174 -205 111 -205 c 0
 61 -205 19 -169 19 -124 c 0
EndSplineSet
EndChar

StartChar: uni01B5
Encoding: 437 437 373
Width: 611
GlyphClass: 2
Flags: MW
HStem: 0 34<159 323 323 415.5> 326 32<124 246 124 266 363 484> 652 31<213 295 295 452>
VStem: 69 25<458 458> 535 25<267 267>
AnchorPoint: "top" 349 749 basechar 0
AnchorPoint: "below" 338 -24 basechar 0
LayerCount: 2
Fore
SplineSet
56 17 m 0
 56 25 56 26 63 37 c 2
 246 326 l 1
 124 326 l 1
 124 358 l 1
 266 358 l 1
 452 652 l 1
 295 652 l 2
 131 652 101 571 94 458 c 1
 69 458 l 1
 80 683 l 1
 528 683 l 2
 548 683 554 683 554 667 c 0
 554 660 554 659 547 648 c 2
 363 358 l 1
 484 358 l 1
 484 326 l 1
 343 326 l 1
 159 34 l 1
 323 34 l 2
 508 34 527 128 535 267 c 1
 560 267 l 1
 543 0 l 1
 82 0 l 2
 61 0 56 0 56 17 c 0
EndSplineSet
EndChar

StartChar: uni01B6
Encoding: 438 438 374
Width: 443
GlyphClass: 2
Flags: MW
HStem: 0 25<112 230 230 288> 199 32<91 160 91 184 264 334> 409 22<147 202 202 316>
VStem: 42 25<270 270> 376 25<187 187>
AnchorPoint: "top" 247 471 basechar 0
AnchorPoint: "below" 228 -24 basechar 0
LayerCount: 2
Fore
SplineSet
28 14 m 0
 28 22 25 16 160 199 c 1
 91 199 l 1
 91 231 l 1
 184 231 l 1
 316 409 l 1
 202 409 l 2
 92 409 73 372 67 270 c 1
 42 270 l 1
 53 431 l 1
 373 431 l 2
 391 431 399 431 399 418 c 0
 399 411 397 410 264 231 c 1
 334 231 l 1
 334 199 l 1
 241 199 l 1
 112 25 l 1
 230 25 l 2
 346 25 367 69 376 187 c 1
 401 187 l 1
 384 0 l 1
 54 0 l 2
 35 0 28 0 28 14 c 0
EndSplineSet
EndChar

StartChar: uni01B7
Encoding: 439 439 375
Width: 555
GlyphClass: 2
Flags: MW
HStem: -22 25<219 291.5 219 343> 75 111<87.5 95 84 112.5> 355 33<263 283> 622 61<212.5 290 290 479>
VStem: 41 25<458 458> 41 112<115 146.5 115 150.5> 409 103<134 219.5>
AnchorPoint: "top" 305 749 basechar 0
AnchorPoint: "below" 279 -52 basechar 0
AnchorPoint: "hook" 170 2 basechar 0
AnchorPoint: "Anchor-4" 276 705 basechar 0
LayerCount: 2
Fore
SplineSet
41 127 m 0xf6
 41 174 78 186 97 186 c 0
 128 186 153 163 153 130 c 0xf6
 153 100 133 75 95 75 c 2
 84 75 l 1
 116 23 176 3 262 3 c 0
 321 3 409 27 409 184 c 0
 409 255 394 287 375 309 c 0
 346 342 307 355 259 355 c 0
 191 355 203 345 187 345 c 0
 180 345 175 349 175 355 c 0
 175 366 192 377 197 382 c 2
 479 622 l 1
 290 622 l 2
 135 622 86 609 66 458 c 1
 41 458 l 1xfa
 69 683 l 1
 484 683 l 2
 508 683 510 675 510 661 c 2
 510 632 l 2
 510 614 505 611 492 600 c 2
 243 387 l 1
 251 388 259 388 267 388 c 0
 404 388 512 298 512 184 c 0
 512 84 422 -22 264 -22 c 0
 161 -22 41 9 41 127 c 0xf6
EndSplineSet
EndChar

StartChar: uni01B8
Encoding: 440 440 376
Width: 550
GlyphClass: 2
Flags: MW
HStem: -22 25<261.5 333.5 261.5 340.5> 75 111<441 458 458 466 441 469> 355 33<270 290 218 294> 622 61<74 263 74 74>
VStem: 41 103<134 219 105.5 241> 400 112<115.5 146.5> 487 25<458 458>
AnchorPoint: "top" 299 749 basechar 0
AnchorPoint: "below" 303 -52 basechar 0
LayerCount: 2
Fore
SplineSet
41 184 m 0xfc
 41 298 150 388 286 388 c 0
 294 388 302 388 310 387 c 1
 61 600 l 2
 48 611 43 614 43 632 c 2
 43 661 l 2
 43 675 45 683 69 683 c 2
 484 683 l 1
 512 458 l 1
 487 458 l 1xfa
 466 610 415 622 263 622 c 2
 74 622 l 1
 356 382 l 2
 373 367 377 364 378 358 c 0
 380 352 376 345 366 345 c 0
 351 345 362 354 294 355 c 0
 246 355 208 342 178 309 c 0
 159 287 144 254 144 184 c 0
 144 27 232 3 291 3 c 0
 376 3 437 24 469 75 c 1
 458 75 l 2
 420 75 400 101 400 130 c 0
 400 163 426 186 456 186 c 0
 476 186 512 174 512 127 c 0
 512 9 392 -22 289 -22 c 0
 131 -22 41 84 41 184 c 0xfc
EndSplineSet
EndChar

StartChar: uni01B9
Encoding: 441 441 377
Width: 444
GlyphClass: 2
Flags: MW
HStem: -205 22<221.5 251.5 221.5 283> -114 92 371 59<93 226 93 93>
VStem: 41 84<-53.5 -12.5 -53.5 17> 310 91<-76.5 -54> 376 25<264 264>
AnchorPoint: "top" 240 480 basechar 0
AnchorPoint: "below" 244 -240 basechar 0
LayerCount: 2
Fore
SplineSet
41 -24 m 0xf8
 41 58 96 165 231 186 c 1
 44 387 44 379 44 403 c 0
 44 425 47 429 65 430 c 2
 391 430 l 1
 401 264 l 1
 376 264 l 1xf4
 367 362 329 371 226 371 c 2
 93 371 l 1
 285 165 l 2
 291 159 302 148 302 140 c 0
 302 136 300 132 293 130 c 0
 290 129 185 136 144 62 c 0
 130 37 125 5 125 -30 c 0
 125 -77 130 -136 180 -168 c 0
 195 -178 211 -183 232 -183 c 0
 271 -183 326 -167 359 -114 c 1
 318 -112 310 -85 310 -68 c 0
 310 -40 333 -22 356 -22 c 0
 375 -22 401 -34 401 -71 c 0
 401 -136 335 -205 231 -205 c 0
 130 -205 41 -130 41 -24 c 0xf8
EndSplineSet
EndChar

StartChar: uni01BA
Encoding: 442 442 378
Width: 444
GlyphClass: 2
Flags: MW
HStem: -205 23<235.5 266 235.5 298> 174 52 371 59<165 217 217 344>
VStem: 41 25<264 264> 109 80<-122 -63 -126.5 -34.5> 321 80<89 136.5>
AnchorPoint: "top" 236 482 basechar 0
AnchorPoint: "below" 236 -238 basechar 0
LayerCount: 2
Fore
SplineSet
41 264 m 1
 52 430 l 1
 378 430 l 2
 396 429 399 424 399 403 c 0
 399 387 395 385 385 371 c 1
 370 361 372 362 219 226 c 1
 371 219 401 159 401 114 c 0
 401 4 189 -16 189 -110 c 0
 189 -143 212 -182 259 -182 c 0
 273 -182 322 -181 369 -133 c 0
 374 -128 383 -114 393 -118 c 0
 396 -120 401 -123 401 -129 c 0
 401 -144 341 -205 255 -205 c 0
 176 -205 109 -156 109 -88 c 0
 109 19 321 47 321 131 c 0
 321 164 257 174 195 174 c 0
 185 174 174 173 164 173 c 1
 165 172 l 1
 154 172 143 174 141 183 c 1
 142 187 l 1
 145 193 l 1
 160 207 l 1
 344 371 l 1
 217 371 l 2
 113 371 75 362 66 264 c 1
 41 264 l 1
EndSplineSet
EndChar

StartChar: uni01BB
Encoding: 443 443 379
Width: 499
GlyphClass: 2
Flags: MW
HStem: 0 77<127 307 307 318 127 421> 281 32<71 278 71 301 376 455> 429 105<101.5 111.5> 635 31<195 269.5>
VStem: 50 105<461.5 495 461.5 529.5> 358 91<444.5 513> 424 25<174 174>
AnchorPoint: "top" 248 707 basechar 0
AnchorPoint: "below" 260 -26 basechar 0
LayerCount: 2
Fore
SplineSet
50 0 m 1xfa
 50 24 50 26 61 37 c 2
 253 251 l 2
 261 260 270 270 278 281 c 1
 71 281 l 1
 71 313 l 1
 301 313 l 1
 334 362 358 417 358 472 c 0
 358 554 315 635 224 635 c 0
 166 635 112 598 89 533 c 1
 92 534 94 534 102 534 c 0
 137 534 155 508 155 482 c 0
 155 441 120 429 103 429 c 0
 100 429 50 429 50 485 c 0
 50 574 124 666 237 666 c 0
 359 666 449 586 449 472 c 0xfc
 449 412 427 368 376 313 c 1
 455 313 l 1
 455 281 l 1
 344 281 l 1
 314 252 278 219 233 180 c 2
 127 77 l 1
 307 77 l 2
 329 77 395 77 402 85 c 0
 412 100 419 144 424 174 c 1
 449 174 l 1
 421 0 l 1
 50 0 l 1xfa
EndSplineSet
EndChar

StartChar: uni01BC
Encoding: 444 444 380
Width: 519
GlyphClass: 2
Flags: MW
HStem: -22 28<211.5 271 211.5 308> 116 98<112.5 134.5> 398 22<254 302> 637 46<17 454 17 41 195 230 230 317>
VStem: 69 99<153 177 153 184> 120 31<369 590 590 599 369 608> 379 89<202 208 208 233> 443 25<513 513>
AnchorPoint: "top" 278 706 basechar 0
AnchorPoint: "below" 265 -58 basechar 0
LayerCount: 2
Fore
SplineSet
17 637 m 1xf6
 17 683 l 1
 454 683 l 1
 468 513 l 1
 443 513 l 1
 434 614 428 637 317 637 c 2
 230 637 l 2
 160 637 151 628 151 599 c 2
 151 369 l 1xf5
 187 404 230 420 278 420 c 0
 386 420 468 320 468 201 c 0
 468 74 366 -22 250 -22 c 0
 138 -22 69 75 69 161 c 0
 69 207 104 214 118 214 c 0
 151 214 168 189 168 165 c 0xfa
 168 141 151 116 118 116 c 0
 107 116 104 117 101 118 c 1
 118 59 175 6 248 6 c 0
 294 6 332 32 355 71 c 0
 378 111 379 166 379 202 c 2
 379 208 l 2
 379 258 377 297 361 334 c 0
 353 352 328 398 276 398 c 0
 195 398 158 344 147 328 c 0
 143 322 141 319 134 319 c 0
 120 319 120 327 120 345 c 2
 120 590 l 2
 120 626 118 637 41 637 c 2
 17 637 l 1xf6
EndSplineSet
EndChar

